<svg width="40" height="40" fill="none" xmlns="http://www.w3.org/2000/svg"><g clip-path="url(#a)" fill="#1B1918"><path d="M9.74 21.922C8.31 20.568 2.6 20.13.883 20.028a.864.864 0 0 0-.621.225.833.833 0 0 0-.262.607v15c0 .46.373.833.833.833h5c.36 0 .68-.233.792-.575.121-.373 2.993-9.186 3.371-13.52a.83.83 0 0 0-.256-.676ZM5.225 35.026H1.667V21.753c2.678.212 5.568.672 6.618 1.182-.442 3.65-2.44 10.135-3.06 12.091Z"/><path d="M39.912 32.152a5.447 5.447 0 0 0-6.23-2.865l-6.384 1.596A.833.833 0 1 0 27.7 32.5l6.385-1.593a3.79 3.79 0 0 1 3.858 1.26l-8.261 3.756c-7.007 2.872-7.248 2.78-10.253 1.647l-12.5-4.167a.832.832 0 1 0-.527 1.58l12.468 4.155c1.402.528 2.369.835 3.455.835 1.69 0 3.67-.738 8.02-2.523l9.166-4.167a.832.832 0 0 0 .4-1.131Z"/><path d="m24.346 26.713-15-3.333a.844.844 0 0 0-.995.633.835.835 0 0 0 .634.995l14.978 3.329c1.846.461 2.588 1.188 2.69 2.71l-1.6.4a4.17 4.17 0 0 1-1.827.043l-7.23-1.447a.825.825 0 0 0-.98.654c-.09.451.202.89.654.98l7.231 1.446a5.844 5.844 0 0 0 2.557-.062l2.243-.56a.834.834 0 0 0 .632-.808v-.263c0-2.574-1.222-4.027-3.987-4.717Z"/><path d="M28.14 10.329a.83.83 0 0 0-.64-.302h-6.667a.833.833 0 0 0-.635.295c-.307.362-7.527 8.92-9.308 13.547a.834.834 0 0 0 1.555.598c1.503-3.907 7.485-11.218 8.778-12.773h5.883c2.885 3.533 9.56 12.425 9.56 15.833 0 .808-.087 1.606-.257 2.371a.835.835 0 0 0 .815 1.015.832.832 0 0 0 .812-.651c.196-.884.296-1.804.296-2.735 0-4.742-9.148-15.936-10.191-17.198Z"/><path d="M30.833 10.027H17.5a.834.834 0 0 0 0 1.667h13.333a.834.834 0 0 0 0-1.667Z"/><path d="M34.79 1.142c-.234-.266-.678-.585-1.444-.585-1.675 0-4.339 1.62-5.625 2.474-.95-1.35-2.358-3.004-3.555-3.004S21.56 1.681 20.61 3.032C19.324 2.18 16.661.56 14.986.56c-.768 0-1.21.318-1.445.585-.378.428-.55.985-.495 1.61.269 3.085 6.552 8.186 7.267 8.758a.84.84 0 0 0 .52.181h6.666a.831.831 0 0 0 .52-.183c.715-.57 6.998-5.671 7.267-8.758.055-.625-.117-1.181-.495-1.61ZM33.625 2.61c-.152 1.738-3.923 5.386-6.42 7.418h-6.078c-2.495-2.032-6.268-5.681-6.42-7.42-.02-.243.053-.326.07-.353a.486.486 0 0 1 .205-.03c1.217 0 3.935 1.623 5.362 2.646a.834.834 0 0 0 1.187-.225c.944-1.463 2.21-2.871 2.61-2.953.442.082 1.71 1.49 2.656 2.953a.836.836 0 0 0 1.186.225c1.429-1.023 4.147-2.646 5.362-2.646.125 0 .19.022.195.022.032.036.107.12.085.363Zm-5.579 14.128h-4.725v2.02h4.06v1.787h-4.06v1.525h2.182v1.584H23.32v1.424h-1.98v-1.424h-1.185V22.07h1.185v-7.148h6.705v1.816Z"/></g><defs><clipPath id="a"><path fill="#fff" d="M0 0h40v40H0z"/></clipPath></defs></svg>