<svg width="40" height="40" fill="none" xmlns="http://www.w3.org/2000/svg"><path d="M34.94 5.301h-3.374V1.928C31.566.868 30.7 0 29.64 0H5.06C4 0 3.133.867 3.133 1.928V32.77c0 1.06.867 1.928 1.927 1.928h3.374v3.373c0 1.06.867 1.928 1.928 1.928h16.385c1.06 0 2.56-.595 3.33-1.32l5.386-5.07c.772-.726 1.404-2.188 1.404-3.248V7.229c0-1.06-.867-1.928-1.927-1.928ZM8.434 7.23v26.024H5.06a.488.488 0 0 1-.482-.482V1.928c0-.261.221-.482.482-.482h24.58c.26 0 .482.22.482.482V5.3H10.36c-1.06 0-1.927.868-1.927 1.928Zm26.038 25.328-5.385 5.069c-.11.104-.254.205-.413.302v-4.434c0-.331.134-.63.354-.85.222-.22.52-.355.851-.355h4.822a2.03 2.03 0 0 1-.23.268Zm.949-2.196c0 .143-.026.31-.066.482H29.88a2.656 2.656 0 0 0-2.65 2.65v5.003a2.517 2.517 0 0 1-.483.058H10.361a.488.488 0 0 1-.481-.482V7.23c0-.261.22-.482.481-.482H34.94c.26 0 .482.22.482.482l-.002 23.13Z" fill="#000"/><path d="M29.64 12.048H15.662a.722.722 0 1 0 0 1.446H29.64a.723.723 0 1 0 0-1.446Zm0 9.639H15.662a.723.723 0 1 0 0 1.445H29.64a.723.723 0 1 0 0-1.445Zm-6.266 4.819h-7.71a.723.723 0 1 0 0 1.446h7.71a.722.722 0 0 0 0-1.446Zm6.266-9.639H15.662a.723.723 0 1 0 0 1.446H29.64a.723.723 0 1 0 0-1.446Z" fill="#000"/></svg>