<svg width="40" height="40" fill="none" xmlns="http://www.w3.org/2000/svg"><g clip-path="url(#a)" fill="#000"><path d="M36.797 39.922H3.203a3.129 3.129 0 0 1-3.125-3.125V6.328a3.129 3.129 0 0 1 3.125-3.125h2.344c.431 0 .781.35.781.781V5.51c0 .436.338.803.753.818a.78.78 0 0 0 .81-.781V3.984c0-.431.35-.78.78-.78h5.47a.78.78 0 0 1 .78.78V5.51c0 .436.338.803.753.818a.78.78 0 0 0 .81-.781V3.984c0-.431.35-.78.782-.78h5.468a.78.78 0 0 1 .782.78V5.51c0 .436.337.803.752.818a.78.78 0 0 0 .81-.781V3.984c0-.431.35-.78.781-.78h5.47c.43 0 .78.349.78.78V5.51c0 .436.338.803.753.818a.78.78 0 0 0 .81-.781V3.984c0-.431.35-.78.781-.78h2.344a3.129 3.129 0 0 1 3.125 3.124v30.469a3.129 3.129 0 0 1-3.125 3.125ZM3.203 4.766c-.861 0-1.562.7-1.562 1.562v30.469c0 .861.7 1.562 1.562 1.562h33.594c.861 0 1.562-.7 1.562-1.562V6.328c0-.861-.7-1.562-1.562-1.562h-1.563v.78a2.342 2.342 0 0 1-2.427 2.343c-1.267-.044-2.26-1.09-2.26-2.38v-.743H26.64v.78a2.342 2.342 0 0 1-2.428 2.343c-1.267-.044-2.26-1.09-2.26-2.38v-.743h-3.906v.78A2.342 2.342 0 0 1 15.62 7.89c-1.268-.044-2.26-1.09-2.26-2.38v-.743H9.452v.78A2.342 2.342 0 0 1 7.026 7.89c-1.268-.044-2.26-1.09-2.26-2.38v-.743H3.203Z"/><path d="M39.14 12.578H.86a.781.781 0 1 1 0-1.562h38.28a.781.781 0 0 1 0 1.562ZM32.89 7.89a2.346 2.346 0 0 1-2.343-2.343V2.422a2.343 2.343 0 1 1 4.688 0v3.125A2.346 2.346 0 0 1 32.89 7.89Zm0-6.25c-.43 0-.78.351-.78.782v3.125a.782.782 0 0 0 1.562 0V2.422a.782.782 0 0 0-.781-.781Zm-8.593 6.25a2.346 2.346 0 0 1-2.344-2.343V2.422a2.343 2.343 0 1 1 4.688 0v3.125a2.346 2.346 0 0 1-2.344 2.344Zm0-6.25a.783.783 0 0 0-.781.782v3.125a.782.782 0 0 0 1.562 0V2.422a.782.782 0 0 0-.781-.781Zm-8.594 6.25a2.346 2.346 0 0 1-2.344-2.343V2.422a2.343 2.343 0 1 1 4.688 0v3.125a2.346 2.346 0 0 1-2.344 2.344Zm0-6.25a.783.783 0 0 0-.781.782v3.125a.782.782 0 0 0 1.562 0V2.422a.782.782 0 0 0-.78-.781ZM7.11 7.89a2.346 2.346 0 0 1-2.344-2.343V2.422a2.343 2.343 0 1 1 4.688 0v3.125A2.346 2.346 0 0 1 7.108 7.89Zm0-6.25a.783.783 0 0 0-.782.782v3.125a.782.782 0 0 0 1.563 0V2.422a.782.782 0 0 0-.782-.781Zm3.124 18.75H6.328a.781.781 0 0 1-.781-.78v-3.907c0-.431.35-.781.781-.781h3.906c.432 0 .782.35.782.781v3.906c0 .432-.35.782-.782.782ZM7.11 18.829h2.344v-2.344H7.11v2.344Zm10.937 1.561H14.14a.781.781 0 0 1-.782-.78v-3.907c0-.431.35-.781.782-.781h3.906c.431 0 .781.35.781.781v3.906c0 .432-.35.782-.781.782Zm-3.125-1.562h2.344v-2.344h-2.344v2.344ZM25.86 20.39h-3.907a.781.781 0 0 1-.781-.78v-3.907c0-.431.35-.781.781-.781h3.906c.432 0 .782.35.782.781v3.906c0 .432-.35.782-.782.782Zm-3.126-1.562h2.344v-2.344h-2.344v2.344Zm10.938 1.562h-3.906a.781.781 0 0 1-.782-.78v-3.907c0-.431.35-.781.782-.781h3.906c.431 0 .781.35.781.781v3.906c0 .432-.35.782-.781.782Zm-3.125-1.562h2.344v-2.344h-2.344v2.344Zm-4.687 9.375h-3.907a.781.781 0 0 1-.781-.781v-3.906c0-.432.35-.782.781-.782h3.906c.432 0 .782.35.782.782v3.906c0 .431-.35.781-.782.781Zm-3.126-1.562h2.344v-2.344h-2.344v2.344Zm10.938 1.562h-3.906a.781.781 0 0 1-.782-.781v-3.906c0-.432.35-.782.782-.782h3.906c.431 0 .781.35.781.782v3.906c0 .431-.35.781-.781.781Zm-3.125-1.562h2.344v-2.344h-2.344v2.344Zm-4.687 9.375h-3.907a.781.781 0 0 1-.781-.782v-3.906c0-.431.35-.781.781-.781h3.906c.432 0 .782.35.782.781v3.906c0 .432-.35.782-.782.782Zm-3.126-1.563h2.344V32.11h-2.344v2.344Zm10.938 1.563h-3.906a.781.781 0 0 1-.782-.782v-3.906c0-.431.35-.781.782-.781h3.906c.431 0 .781.35.781.781v3.906c0 .432-.35.782-.781.782Zm-3.125-1.563h2.344V32.11h-2.344v2.344Zm-20.313-6.25H6.328a.781.781 0 0 1-.781-.781v-3.906c0-.432.35-.782.781-.782h3.906c.432 0 .782.35.782.782v3.906c0 .431-.35.781-.782.781ZM7.11 26.641h2.344v-2.344H7.11v2.344Zm10.937 1.562H14.14a.781.781 0 0 1-.782-.781v-3.906c0-.432.35-.782.782-.782h3.906c.431 0 .781.35.781.782v3.906c0 .431-.35.781-.781.781Zm-3.125-1.562h2.344v-2.344h-2.344v2.344Zm-4.688 9.375H6.328a.781.781 0 0 1-.781-.782v-3.906c0-.431.35-.781.781-.781h3.906c.432 0 .782.35.782.781v3.906c0 .432-.35.782-.782.782ZM7.11 34.453h2.344V32.11H7.11v2.344Zm10.937 1.563H14.14a.781.781 0 0 1-.782-.782v-3.906c0-.431.35-.781.782-.781h3.906c.431 0 .781.35.781.781v3.906c0 .432-.35.782-.781.782Zm-3.125-1.563h2.344V32.11h-2.344v2.344Z"/></g><defs><clipPath id="a"><path fill="#fff" d="M0 0h40v40H0z"/></clipPath></defs></svg>