<svg width="40" height="40" fill="none" xmlns="http://www.w3.org/2000/svg"><g clip-path="url(#a)" fill="#000"><path d="M38.5 21.159a3.417 3.417 0 0 0-4.275.516l-5.742 5.742A3.333 3.333 0 0 0 25.292 25c-9.784 0-11.667-.408-15.292 1.442V25a.833.833 0 0 0-.833-.833H.833A.834.834 0 0 0 0 25v14.167A.833.833 0 0 0 .833 40h8.334a.833.833 0 0 0 .833-.833v-.833h13.892a7.442 7.442 0 0 0 5.275-2.192L39 26.309a3.333 3.333 0 0 0-.5-5.15ZM8.333 38.334H1.667v-12.5h6.666v12.5ZM37.85 25.125 28.008 35a5.783 5.783 0 0 1-4.116 1.667H10v-8.333a11 11 0 0 1 5.917-1.667c10.291 0 9.891-.175 10.558.492A1.666 1.666 0 0 1 25.292 30H18a.833.833 0 0 0 0 1.667h7.292A3.334 3.334 0 0 0 28.167 30c.241-.1-.367.467 7.233-7.133a1.767 1.767 0 0 1 2.175-.308 1.666 1.666 0 0 1 .275 2.566Z"/><path d="M4.167 23.333h26.666a2.5 2.5 0 0 0 2.25-3.575c1.209-1.183-.716-12.941-11.441-15.833a4.167 4.167 0 0 0-8.284 0A15.833 15.833 0 0 0 1.667 19.167a.834.834 0 0 0 .25.591 2.5 2.5 0 0 0 2.25 3.575Zm26.666-1.666H4.167a.833.833 0 1 1 0-1.667h26.666a.833.833 0 0 1 0 1.667ZM19.908 3.533a14.6 14.6 0 0 0-4.816 0 2.5 2.5 0 0 1 4.816 0ZM17.5 5a14.166 14.166 0 0 1 14.167 13.333H3.333A14.167 14.167 0 0 1 17.5 5Z"/></g><defs><clipPath id="a"><path fill="#fff" d="M0 0h40v40H0z"/></clipPath></defs></svg>