<svg width="367" height="367" fill="none" xmlns="http://www.w3.org/2000/svg"><path fill="#F2DE01" d="M0 0h367v367H0z"/><path d="M225.618 275.998c-1.008 0-2.519 0-3.527-.503v-4.021c1.008.503 2.519.503 3.527.503 1.507 0 2.514-.503 2.514-2.011 0-2.514-7.048-1.006-7.048-6.535 0-3.519 2.519-5.53 7.048-5.53 1.007 0 2.015 0 3.022.503v3.519c-1.007-.503-2.015-.503-3.022-.503-2.015 0-2.514.503-2.514 1.508 0 2.513 7.043 1.508 7.043 6.535.504 4.021-2.01 6.535-7.043 6.535Zm-15.609.002c-5.536 0-8.559-3.519-8.559-8.546 0-5.529 4.53-9.048 9.063-9.048 5.033 0 8.555 3.016 8.555 8.546.504 5.529-4.026 9.048-9.059 9.048Zm.504-14.075c-2.519 0-4.533 1.508-4.533 5.027 0 3.016 1.511 5.027 4.533 5.027 2.515 0 4.53-1.509 4.53-5.027 0-3.519-2.015-5.027-4.53-5.027Zm-15.608 13.572h-5.033l-6.544-17.091h4.534l3.018 8.043 1.511 4.524c.504-1.508 1.008-3.519 1.511-4.524l3.018-8.043h4.53m-22.147 17.091-1.007-3.016h-6.544l-1.008 3.016h-4.529l6.544-17.091h5.033l6.544 17.091h-5.033Zm-3.526-10.053c-.499-1.006-.499-2.011-1.003-2.514 0 1.005-.504 1.508-1.007 2.514l-1.512 4.021h4.53l-1.008-4.021Zm-20.133 10.053h-5.537v-17.091h6.545c5.537 0 9.058 2.513 9.058 8.546 0 6.032-4.529 8.545-10.066 8.545Zm.504-14.075h-2.015v10.054h2.015c3.018 0 5.537-1.508 5.537-5.027-.504-3.016-2.015-5.027-5.537-5.027Z" fill="#1B1918"/><path fill-rule="evenodd" clip-rule="evenodd" d="M223.098 174.456c-2.015 0-3.023-1.508-3.023-3.519 0-2.513.504-5.529.504-8.545 0-5.531-3.018-10.055-5.033-11.06 6.544-1.508 13.089-8.043 13.089-14.578 0-7.038-4.53-12.568-14.6-12.568h-9.059c-2.015 3.016-4.529 5.027-9.063 5.027l-1.507 6.535h1.507c2.015 0 3.526-.503 5.537-1.508l-9.562 36.697h9.562l4.534-18.097c3.018 1.005 6.04 4.524 6.04 9.049 0 4.524-1.007 7.037-1.007 12.065 0 5.529 4.025 8.545 10.066 8.545 3.526 0 5.537-1.005 7.048-2.513l-1.511-6.032c-1.507.502-2.515.502-3.522.502Zm-14.096-28.654h-2.011l4.026-15.081h1.511c4.026 0 5.537 2.514 5.537 6.033 0 4.524-3.023 9.048-9.063 9.048Zm54.363 12.567c0-7.038 4.03-12.065 8.056-12.065 2.015 0 4.025 1.508 5.033 2.514l2.015-7.038c-1.511-1.005-4.53-2.514-7.552-2.514-9.059 0-16.61 9.552-16.61 19.103 0 7.541 5.033 12.568 11.577 12.568 2.519 0 4.529-.503 5.537-1.006l2.015-7.038c-1.008 1.006-2.519 1.006-4.534 1.006-3.522 0-5.537-1.508-5.537-5.53Z" fill="#1B1918"/><path fill-rule="evenodd" clip-rule="evenodd" d="M240.715 139.266c-9.563 0-16.611 9.049-16.611 19.606 0 7.038 5.034 12.065 11.074 12.065 10.066 0 17.114-9.049 17.114-19.103 0-7.541-5.033-12.568-11.577-12.568Zm-4.529 24.633c-1.512 0-3.023-2.011-3.023-5.53 0-6.032 3.023-12.568 7.048-12.568 2.015 0 3.023 2.514 3.023 5.53 0 6.033-3.527 12.568-7.048 12.568Zm65.942 10.053c-2.015 0-2.515-1.006-2.515-3.016v-3.017c0-3.519-1.511-7.037-4.03-8.546 5.537-1.005 12.081-5.529 12.081-12.567 0-4.022-3.018-7.54-8.051-7.54-3.022 0-6.04 1.507-8.055 3.518l5.033-19.102h-9.563l-12.081 47.254h9.563l2.518-9.552c2.515.503 4.53 2.514 4.53 6.033 0 2.513-.504 4.021-.504 6.535 0 4.524 3.522 7.54 8.559 7.54 2.515 0 5.033-1.005 6.54-2.01l-1.507-6.033c-.503 0-1.511.503-2.518.503Zm-13.593-18.6c1.008-4.524 5.038-9.552 8.559-9.552 1.512 0 2.519 1.006 2.519 2.011-.504 4.022-5.037 7.541-11.078 7.541Zm-137.922-16.086c-3.023 0-5.537 2.514-7.048 5.027l1.007-4.524h-9.566l-8.056 30.665h9.567l4.025-14.579c1.008-4.021 3.527-8.043 7.048-8.043 1.008 0 2.015.503 2.519.503l2.515-9.049c-.504.503-1.507 0-2.011 0Zm21.138 3.516c-1.008-1.508-3.522-3.016-6.041-3.016-8.559 0-15.603 10.054-15.603 21.113 0 6.033 4.53 10.557 9.059 10.557 3.526 0 6.041-2.011 7.552-4.022l-1.008 4.022h8.056l12.081-46.751h-9.567l-4.529 18.097Zm-9.059 21.114c-2.015 0-3.022-2.011-3.022-5.027 0-5.53 3.022-12.065 7.048-12.065 1.511 0 3.018 2.011 3.018 5.027 0 5.027-3.018 12.065-7.044 12.065Zm-71.986-40.214-4.529 18.6h-9.063l5.037-18.6h-8.559c-2.015 3.016-4.53 5.027-9.063 5.027l-1.507 6.535h1.507c2.015 0 3.526-.503 5.541-1.508L60 170.936h9.567l5.537-20.611h8.554l-5.033 20.611h9.567l12.081-46.752m21.642 38.207v-1.006l5.537-21.113h-9.563l-1.007 3.016c-1.008-2.011-3.018-4.022-6.041-4.022-8.559 0-15.603 9.552-15.603 21.114 0 6.032 4.53 10.557 9.059 10.557 4.026 0 6.544-2.514 8.055-4.525.504 3.016 3.522 4.525 6.041 4.525 2.514 0 4.026-.503 5.033-1.509l1.511-6.535c-.503 0-1.007.503-2.015.503-.503 0-1.007-.503-1.007-1.005Zm-13.592 1.508c-2.011 0-3.019-2.011-3.019-5.027 0-5.53 3.019-12.065 7.048-12.065 1.512 0 3.019 2.011 3.019 5.027 0 5.027-3.522 12.065-7.048 12.065Zm147.496 8.043c-3.527 34.184-32.218 61.33-67.454 61.33-34.232 0-62.42-25.136-66.954-57.811h-2.01c-2.015 0-3.527-.503-5.038-1.508 4.534 37.2 36.248 65.854 74.502 65.854 38.258 0 69.468-28.151 74.501-64.849-3.522 0-5.537-1.508-7.547-3.016Z" fill="#1B1918"/><path fill-rule="evenodd" clip-rule="evenodd" d="M127.454 135.243c11.077-22.621 34.232-37.703 60.913-37.703 27.684 0 51.342 16.59 61.917 40.217 2.01 1.508 3.521 3.518 4.529 5.529 1.007-1.508 2.514-3.016 4.025-4.021C248.269 110.611 220.58 90 188.367 90c-30.706 0-57.387 18.6-68.965 44.74" fill="#1B1918"/><path d="M215.042 208.638v-15.584h4.03v12.568h5.033v3.016m-22.152 0v-15.584h10.071v3.016h-6.041v3.52h5.537v2.513h-5.537v3.519h6.041v3.016m-16.11-12.065v12.065h-4.025v-12.065h-4.026v-3.519h12.081v3.519m-21.145 12.568c-5.033 0-7.552-3.017-7.552-8.044 0-5.027 4.026-8.043 8.559-8.043 4.53 0 8.051 2.514 8.051 8.043-.503 5.027-4.529 8.044-9.058 8.044Zm0-12.568c-2.015 0-4.026 1.508-4.026 4.524 0 2.514 1.003 4.525 4.026 4.525 2.015 0 4.025-1.508 4.025-4.525 0-3.016-1.511-4.524-4.025-4.524Zm-14.095 12.065v-6.032h-7.048v6.032h-3.522v-15.584h3.522v6.033h7.048v-6.033h3.526v15.584" fill="#1B1918"/></svg>