<svg width="322" height="330" fill="none" xmlns="http://www.w3.org/2000/svg"><path d="M149.22 31.429C149.22 14.07 163.284 0 180.634 0h109.951C307.935 0 322 14.071 322 31.429v110c0 17.357-14.065 31.428-31.415 31.428H180.634c-17.35 0-31.414-14.071-31.414-31.428v-110Z" fill="#FFDD56"/><path d="M0 188.571c0-17.357 14.065-31.428 31.415-31.428h109.951c17.35 0 31.414 14.071 31.414 31.428v110c0 17.358-14.064 31.429-31.414 31.429H31.415C14.065 330 0 315.929 0 298.571v-110Z" fill="#FFDD56"/><path d="m157.073 133.571-35.341 51.072 35.341 19.643 35.342-51.072-35.342-19.643Z" fill="#FFDD56"/></svg>