<svg width="24" height="25" fill="none" xmlns="http://www.w3.org/2000/svg"><path d="M0 2.22C0 1.27.794.5 1.774.5h20.452C23.206.5 24 1.27 24 2.22v20.56c0 .95-.794 1.719-1.774 1.719H1.774C.794 24.5 0 23.73 0 22.781V2.22Z" fill="#1B1918"/><path d="M7.293 20.585V9.78H3.702v10.805h3.592ZM5.498 8.305c1.252 0 2.032-.83 2.032-1.866-.023-1.06-.78-1.867-2.008-1.867-1.229 0-2.032.806-2.032 1.866 0 1.037.78 1.867 1.985 1.867h.023Zm3.783 12.28h3.591v-6.033c0-.323.024-.646.119-.877.259-.645.85-1.313 1.842-1.313 1.3 0 1.82.99 1.82 2.443v5.78h3.59V14.39c0-3.319-1.771-4.863-4.134-4.863-1.937 0-2.788 1.083-3.26 1.82h.024V9.78H9.28c.047 1.014 0 10.805 0 10.805Z" fill="#fff"/></svg>