<svg width="24" height="24" fill="none" xmlns="http://www.w3.org/2000/svg"><path d="M16.85 0h-9.7A7.157 7.157 0 0 0 0 7.15v9.7A7.157 7.157 0 0 0 7.15 24h9.7A7.157 7.157 0 0 0 24 16.85v-9.7A7.157 7.157 0 0 0 16.85 0Zm4.736 16.85a4.735 4.735 0 0 1-4.736 4.736h-9.7a4.735 4.735 0 0 1-4.736-4.736v-9.7A4.735 4.735 0 0 1 7.15 2.414h9.7a4.735 4.735 0 0 1 4.736 4.736v9.7Z" fill="#fff"/><path d="M12 5.793A6.214 6.214 0 0 0 5.793 12 6.214 6.214 0 0 0 12 18.207 6.214 6.214 0 0 0 18.207 12 6.214 6.214 0 0 0 12 5.793Zm0 10a3.793 3.793 0 1 1 0-7.586 3.793 3.793 0 0 1 0 7.586Zm6.219-8.466a1.487 1.487 0 1 0 0-2.975 1.487 1.487 0 0 0 0 2.975Z" fill="#fff"/></svg>