<svg width="24" height="25" fill="none" xmlns="http://www.w3.org/2000/svg"><g clip-path="url(#a)" fill="#1B1918"><path d="M16.85.5h-9.7A7.157 7.157 0 0 0 0 7.65v9.7a7.157 7.157 0 0 0 7.15 7.15h9.7A7.157 7.157 0 0 0 24 17.35v-9.7A7.157 7.157 0 0 0 16.85.5Zm4.736 16.85a4.735 4.735 0 0 1-4.736 4.736h-9.7a4.735 4.735 0 0 1-4.736-4.736v-9.7A4.735 4.735 0 0 1 7.15 2.914h9.7a4.735 4.735 0 0 1 4.736 4.736v9.7Z"/><path d="M12 6.293A6.214 6.214 0 0 0 5.793 12.5 6.214 6.214 0 0 0 12 18.707a6.214 6.214 0 0 0 6.207-6.207A6.214 6.214 0 0 0 12 6.293Zm0 10a3.793 3.793 0 1 1 0-7.586 3.793 3.793 0 0 1 0 7.586Zm6.219-8.466a1.487 1.487 0 1 0 0-2.975 1.487 1.487 0 0 0 0 2.975Z"/></g><defs><clipPath id="a"><path fill="#fff" transform="translate(0 .5)" d="M0 0h24v24H0z"/></clipPath></defs></svg>