<svg width="246" height="105" fill="none" xmlns="http://www.w3.org/2000/svg"><g clip-path="url(#a)"><path d="M226.375 59.363a1.176 1.176 0 0 0 0 2.35 1.176 1.176 0 0 0 0-2.35Zm0 2.164a.99.99 0 1 1 .001-1.98.99.99 0 0 1-.001 1.98Zm.382-1.19c0-.214-.151-.34-.375-.34h-.375v1.07h.184v-.388h.201l.194.388h.199l-.214-.427a.315.315 0 0 0 .186-.303Zm-.382.176h-.182v-.355h.182c.124 0 .199.062.199.176-.001.117-.077.179-.199.179ZM84.751 47.47v-2.842h-4.359v16.908h4.359V51.398c0-1.836 1.177-2.738 3.014-2.738h2.385v-4.032h-2.037c-1.596 0-2.982.832-3.362 2.842Zm9.482-9.53c-1.49 0-2.634 1.177-2.634 2.668a2.61 2.61 0 0 0 2.634 2.634 2.61 2.61 0 0 0 2.634-2.634c0-1.49-1.143-2.668-2.634-2.668ZM92.06 61.537h4.349v-16.91h-4.35v16.91Zm25.063-8.455a8.741 8.741 0 0 1-8.742 8.74 8.416 8.416 0 0 1-5.132-1.716V66.5H98.9V44.628h4.348v1.43a8.415 8.415 0 0 1 5.132-1.716 8.741 8.741 0 0 1 8.742 8.74Zm-4.376 0a4.75 4.75 0 0 0-9.497 0 4.75 4.75 0 0 0 9.497 0Zm79.958-1.483-2.537-.696c-1.67-.434-2.319-.946-2.319-1.828 0-.86.915-1.461 2.222-1.461 1.245 0 2.221.815 2.221 1.858v.097h4.009v-.097c0-3.068-2.503-5.13-6.23-5.13-3.69 0-6.372 2.06-6.372 4.9 0 2.208 1.464 3.872 4.019 4.563l2.43.663c1.846.512 2.532 1.079 2.532 2.095 0 1.07-.991 1.791-2.468 1.791-1.538 0-2.574-.974-2.574-2.42v-.097h-4.254v.097c0 3.468 2.793 5.893 6.794 5.893 3.854 0 6.652-2.367 6.652-5.627 0-1.6-.716-3.692-4.125-4.601Zm-60.155-6.971h4.348v16.908h-4.348v-1.43a8.415 8.415 0 0 1-5.132 1.716 8.741 8.741 0 1 1 0-17.48c1.948 0 3.715.639 5.132 1.717v-1.431Zm0 8.454a4.749 4.749 0 1 0-9.497.002 4.749 4.749 0 0 0 9.497-.002Zm20.05-14.471h4.349v22.928H152.6v-1.431a8.41 8.41 0 0 1-5.131 1.717 8.741 8.741 0 1 1 0-17.48 8.41 8.41 0 0 1 5.131 1.716v-7.45Zm0 14.471a4.75 4.75 0 0 0-9.497 0 4.748 4.748 0 0 0 9.497 0Zm24.539 8.455h4.349v-16.91h-4.349v16.91Zm2.174-23.597c-1.49 0-2.634 1.177-2.634 2.668a2.61 2.61 0 0 0 2.634 2.634 2.61 2.61 0 0 0 2.635-2.634c0-1.49-1.144-2.668-2.635-2.668Zm36.313 15.142a8.741 8.741 0 0 1-8.742 8.74 8.741 8.741 0 1 1 0-17.48 8.741 8.741 0 0 1 8.742 8.74Zm-3.993 0a4.75 4.75 0 0 0-9.498 0 4.749 4.749 0 0 0 9.498 0ZM82.524 38.611H65.843v3.878h6.175v19.047h4.334V42.49h6.175v-3.88h-.003Zm84.361 18.295-3.869-12.278h-4.567l5.802 16.909h5.234l5.837-16.91h-4.568l-3.869 12.279Zm55.111-9.436v-2.842h-4.358v16.908h4.358V51.398c0-1.836 1.178-2.738 3.014-2.738h2.386v-4.032h-2.038c-1.595 0-2.979.832-3.362 2.842Z" fill="#000"/><path d="M40.69 74.118c12.283 0 22.24-9.955 22.24-22.236 0-12.28-9.957-22.235-22.24-22.235-12.282 0-22.24 9.955-22.24 22.235s9.957 22.236 22.24 22.236Z" fill="#34E0A1"/><path d="m54.427 47.544 2.684-2.919h-5.952a18.48 18.48 0 0 0-10.469-3.22 18.435 18.435 0 0 0-10.449 3.22h-5.966l2.684 2.92a8.202 8.202 0 1 0 11.103 12.077l2.628 2.861 2.63-2.86a8.17 8.17 0 0 0 5.573 2.184c4.53 0 8.208-3.672 8.208-8.2a8.164 8.164 0 0 0-2.674-6.063Zm-21.94 11.613a5.55 5.55 0 1 1 0-11.1 5.55 5.55 0 1 1 0 11.1Zm8.206-5.712c0-3.652-2.657-6.787-6.163-8.127a15.931 15.931 0 0 1 6.16-1.232c2.184 0 4.267.44 6.163 1.233-3.504 1.341-6.16 4.474-6.16 8.126Zm8.203 5.712a5.55 5.55 0 1 1 0-11.1 5.55 5.55 0 1 1 0 11.1Zm0-8.462a2.909 2.909 0 1 0 0 5.818 2.909 2.909 0 1 0 0-5.818Zm-13.499 2.911a2.909 2.909 0 0 1-2.91 2.91 2.909 2.909 0 1 1 0-5.819 2.907 2.907 0 0 1 2.91 2.91Z" fill="#000"/></g><defs><clipPath id="a"><path fill="#fff" transform="translate(18.45 29.647)" d="M0 0h209.1v44.471H0z"/></clipPath></defs></svg>