<svg width="247" height="105" fill="none" xmlns="http://www.w3.org/2000/svg"><g clip-path="url(#a)"><path d="M103.534 39.88a2.825 2.825 0 0 1 1.75-2.6 2.82 2.82 0 1 1-1.75 2.6Zm47.239 21.648a2.835 2.835 0 0 0 2.622-1.74 2.838 2.838 0 0 0-.607-3.09 2.826 2.826 0 0 0-3.085-.617 2.826 2.826 0 0 0-1.75 2.616 2.829 2.829 0 0 0 2.82 2.83ZM57.325 43.987a8.798 8.798 0 0 0-8.064 5.497 8.803 8.803 0 0 0 6.473 11.943 8.797 8.797 0 0 0 10.483-8.639 8.536 8.536 0 0 0-8.892-8.801Zm0 13.485c-2.419 0-4.117-1.925-4.117-4.684 0-2.759 1.688-4.684 4.117-4.684 2.428 0 4.116 1.925 4.116 4.684 0 2.759-1.636 4.684-4.116 4.684Zm40.755-4.241a3.769 3.769 0 0 0-.67-.947l-.154-.165.165-.154c.259-.28.496-.58.71-.896l4.518-6.743h-5.485l-3.407 5.281a1.336 1.336 0 0 1-1.163.422h-.772v-9.975c0-1.986-1.245-2.264-2.583-2.264h-2.295v23.542h4.868v-7.061h.453c.555 0 .936.061 1.111.37l2.697 5.034a2.696 2.696 0 0 0 2.902 1.616h3.736l-2.79-4.601-1.841-3.46Zm23.64-9.285a6.606 6.606 0 0 0-4.94 2.058l-.299.299-.103-.412a2.234 2.234 0 0 0-2.449-1.544h-2.192v16.975h4.857v-7.824a6.305 6.305 0 0 1 .299-2.058 3.975 3.975 0 0 1 3.921-2.975c1.502 0 2.058.792 2.058 2.861v7.402a2.26 2.26 0 0 0 .632 1.952 2.247 2.247 0 0 0 1.951.632h2.285V50.513c.031-4.292-2.058-6.567-6.02-6.567Zm-15.314.38h-2.285v17.006h4.837V46.92a2.266 2.266 0 0 0-2.552-2.594Zm-30.083-.34a8.798 8.798 0 0 0-8.526 10.575 8.801 8.801 0 0 0 12.007 6.35 8.8 8.8 0 0 0 5.411-8.123 8.537 8.537 0 0 0-5.452-8.236 8.53 8.53 0 0 0-3.44-.565Zm0 13.486c-2.418 0-4.117-1.925-4.117-4.684 0-2.759 1.688-4.684 4.117-4.684 2.429 0 4.117 1.925 4.117 4.684 0 2.759-1.637 4.684-4.117 4.684Zm103.668-13.485a8.798 8.798 0 0 0-8.064 5.497 8.805 8.805 0 0 0 6.474 11.943 8.797 8.797 0 0 0 10.482-8.639 8.53 8.53 0 0 0-2.527-6.341 8.528 8.528 0 0 0-6.365-2.46Zm0 13.485c-2.419 0-4.117-1.925-4.117-4.684 0-2.759 1.688-4.684 4.117-4.684 2.429 0 4.117 1.925 4.117 4.684 0 2.759-1.637 4.684-4.117 4.684Zm-36.175-13.187a2.063 2.063 0 0 0-1.987 1.03l-.123.257-.226-.196a6.579 6.579 0 0 0-4.457-1.482c-4.518 0-7.574 3.407-7.574 8.472 0 5.065 3.159 8.596 7.667 8.596a5.974 5.974 0 0 0 3.725-1.091l.371-.289v.474c0 2.275-1.472 3.53-4.117 3.53a9.74 9.74 0 0 1-3.252-.607 1.429 1.429 0 0 0-2.058 1.03l-.937 2.347.34.175a13.191 13.191 0 0 0 5.928 1.38c4.117 0 8.923-2.121 8.923-8.061V44.285h-2.223Zm-5.846 12.446c-2.635 0-3.581-2.316-3.581-4.478 0-.957.236-4.118 3.324-4.118 1.533 0 3.592.433 3.592 4.22 0 3.624-1.812 4.376-3.335 4.376Zm-93.623-7.474-.71-.39.617-.516a5.703 5.703 0 0 0 1.935-4.436c0-3.706-2.871-6.094-7.297-6.094h-5.64a2.47 2.47 0 0 0-2.377 2.429v21h8.11c4.93 0 8.12-2.687 8.12-6.856a5.736 5.736 0 0 0-2.758-5.137Zm-8.974-5.94c0-1.09.463-1.605 1.471-1.667h2.059a2.54 2.54 0 0 1 2.619 1.672c.126.351.173.726.139 1.097a2.627 2.627 0 0 1-2.738 2.903h-3.55v-4.004Zm3.941 13.96h-3.941v-4.715c0-1.03.4-1.534 1.255-1.658h2.686a3.19 3.19 0 0 1 0 6.372Zm171.181-13.28a6.662 6.662 0 0 0-5.197 2.522l-.35.453-.278-.504a4.8 4.8 0 0 0-4.579-2.471 6.17 6.17 0 0 0-4.457 2.007l-.453.495-.174-.649a2.171 2.171 0 0 0-2.368-1.462h-2.058v16.934h4.59v-7.474a8.72 8.72 0 0 1 .247-1.976c.443-1.812 1.657-3.757 3.695-3.562 1.255.124 1.873 1.091 1.873 2.975v10.037h4.652v-7.474a6.82 6.82 0 0 1 .257-2.058c.371-1.72 1.636-3.49 3.602-3.49 1.42 0 1.945.803 1.945 2.975v7.576c0 1.71.762 2.471 2.47 2.471h2.213V50.513c0-4.323-1.904-6.516-5.63-6.516Zm-42.031 11.447a7.08 7.08 0 0 1-4.61 2.172 4.53 4.53 0 0 1-4.796-4.745 4.474 4.474 0 0 1 1.203-3.451 4.473 4.473 0 0 1 3.376-1.398c.865 0 1.853.309 2.007.834v.093a1.706 1.706 0 0 0 1.647 1.245h2.521v-2.213c0-2.924-3.715-3.984-6.175-3.984-5.341 0-9.262 3.737-9.262 8.863 0 5.127 3.839 8.874 9.118 8.874a9.916 9.916 0 0 0 7.205-3.212l-1.915-3.366-.319.288Z" fill="#123D8F"/></g><defs><clipPath id="a"><path fill="#fff" transform="translate(30.875 37.059)" d="M0 0h185.25v30.882H0z"/></clipPath></defs></svg>