<svg width="246" height="105" fill="none" xmlns="http://www.w3.org/2000/svg"><g clip-path="url(#a)" fill-rule="evenodd" clip-rule="evenodd"><path d="M95.118 66.555c-5.558 0-10.08 4.54-10.08 10.122 0 5.581 4.522 10.122 10.08 10.122s10.078-4.54 10.078-10.122c0-5.581-4.52-10.122-10.078-10.122Z" fill="#FCB716"/><path d="M66.953 66.555c-5.558 0-10.078 4.54-10.078 10.122 0 5.581 4.52 10.122 10.078 10.122 5.557 0 10.08-4.54 10.08-10.122 0-5.581-4.523-10.122-10.08-10.122Z" fill="#EE363F"/><path d="M123.283 66.555c-5.559 0-10.079 4.54-10.079 10.122 0 5.581 4.52 10.122 10.079 10.122 5.557 0 10.078-4.54 10.078-10.122 0-5.581-4.521-10.122-10.078-10.122Z" fill="#07AF56"/><path d="M179.611 66.555c-5.558 0-10.079 4.54-10.079 10.122 0 5.581 4.521 10.122 10.079 10.122 5.557 0 10.078-4.54 10.078-10.122 0-5.581-4.521-10.122-10.078-10.122Z" fill="#04A9DF"/><path d="M151.447 66.556c-5.558 0-10.08 4.54-10.08 10.121 0 5.582 4.521 10.121 10.079 10.121 5.558 0 10.079-4.539 10.079-10.12 0-5.582-4.521-10.122-10.078-10.122Z" fill="#A1479A"/><path d="M55.35 37.875c0-6.563 5.246-11.518 11.736-11.518 6.534 0 11.735 4.91 11.735 11.473v10.09c0 1.026-.711 1.74-1.778 1.74-1.112 0-1.778-.714-1.778-1.74v-2.947h-.178c-1.378 2.366-4.134 4.42-8.224 4.42-6.312 0-11.513-4.911-11.513-11.518Zm20.004 0c0-4.732-3.557-8.303-8.268-8.303-4.713 0-8.269 3.57-8.269 8.303 0 4.732 3.556 8.304 8.269 8.304 4.711 0 8.268-3.572 8.268-8.304ZM87.98 56.85c-.934-.447-1.38-1.25-1.023-2.188.356-.983 1.245-1.384 2.178-.937 1.6.758 3.6 1.294 5.734 1.294 5.291 0 8.491-3.17 8.491-8.572v-1.473h-.179c-1.378 2.366-4.133 4.42-8.223 4.42-6.312 0-11.513-4.911-11.513-11.518 0-6.563 5.245-11.518 11.736-11.518 6.534 0 11.736 4.911 11.736 11.473v8.393c0 7.233-4.625 12.099-12.181 12.099-2.311 0-4.623-.447-6.756-1.474Zm15.468-18.974c0-4.732-3.556-8.304-8.267-8.304-4.712 0-8.268 3.572-8.268 8.304s3.556 8.303 8.268 8.303c4.711 0 8.267-3.57 8.267-8.303Zm8.092 0c0-6.563 5.201-11.518 11.736-11.518 6.534 0 11.735 4.955 11.735 11.518 0 6.562-5.201 11.517-11.735 11.517-6.535 0-11.736-4.955-11.736-11.517Zm20.004 0c0-4.732-3.557-8.303-8.268-8.303-4.713 0-8.269 3.57-8.269 8.303 0 4.732 3.556 8.304 8.269 8.304 4.711 0 8.268-3.572 8.268-8.304Zm8.091 0c0-6.563 5.156-11.518 11.513-11.518 4.09 0 6.846 2.054 8.224 4.42h.178V19.034c0-1.026.711-1.74 1.778-1.74 1.112 0 1.778.714 1.778 1.74V37.92c0 6.563-5.201 11.474-11.735 11.474-6.49 0-11.736-4.956-11.736-11.518Zm20.004 0c0-4.732-3.557-8.303-8.268-8.303-4.713 0-8.269 3.57-8.269 8.303 0 4.732 3.556 8.304 8.269 8.304 4.711 0 8.268-3.572 8.268-8.304Zm8.091 0c0-6.563 5.246-11.518 11.736-11.518 6.534 0 11.735 4.91 11.735 11.473v10.09c0 1.026-.711 1.74-1.778 1.74-1.112 0-1.778-.714-1.778-1.74v-2.947h-.178c-1.378 2.366-4.134 4.42-8.224 4.42-6.312 0-11.513-4.911-11.513-11.518Zm20.004 0c0-4.732-3.556-8.303-8.268-8.303-4.712 0-8.268 3.57-8.268 8.303 0 4.732 3.556 8.304 8.268 8.304 4.712 0 8.268-3.572 8.268-8.304Z" fill="#5A5B5B"/></g><defs><clipPath id="a"><path fill="#fff" transform="translate(55.35 17.294)" d="M0 0h136.325v70.412H0z"/></clipPath></defs></svg>