<svg width="247" height="105" fill="none" xmlns="http://www.w3.org/2000/svg"><g clip-path="url(#a)"><mask id="b" style="mask-type:luminance" maskUnits="userSpaceOnUse" x="23" y="34" width="199" height="36"><path d="M221.638 34.094H23.618v35.741h198.02v-35.74Z" fill="#fff"/></mask><g mask="url(#b)"><path d="M51.994 69.835H30.96c-4.047 0-7.34-3.294-7.34-7.358v-21.04c0-4.048 3.293-7.343 7.34-7.343h21.035a7.341 7.341 0 0 1 7.341 7.343v21.04c.016 4.064-3.278 7.358-7.34 7.358Z" fill="#EF3346"/><path d="M36.356 49.925a.477.477 0 0 0-.502-.502H32.37a.478.478 0 0 0-.501.502v3.468c0 .298.204.502.501.502h3.467a.478.478 0 0 0 .502-.502v-3.468h.016Zm7.67 7.688a.486.486 0 0 0-.502-.502h-3.466a.477.477 0 0 0-.502.502v3.468c0 .298.204.502.502.502h3.466a.478.478 0 0 0 .502-.502v-3.468Z" fill="#191E3B"/><path d="M44.026 49.925a.478.478 0 0 0-.502-.502h-3.466a.477.477 0 0 0-.502.502v3.468c0 .298.204.502.502.502h3.466a.478.478 0 0 0 .502-.502v-3.468Z" fill="#FDDB32"/><path d="M143.772 53.863c.502-3.53 2.353-5.836 6.023-5.836 3.765 0 5.757 2.165 6.039 5.836h-12.062Zm6.118-9.304c-5.882 0-10.572 4.237-10.572 11.25 0 7.186 4.14 11.594 11.12 11.594 4.016 0 7.357-1.772 9.428-4.236a.516.516 0 0 0 .172-.376.516.516 0 0 0-.172-.377l-1.945-1.898a.52.52 0 0 0-.377-.173c-.125 0-.25.079-.376.22-1.6 1.741-3.687 3.216-6.682 3.216-4.376 0-6.478-2.698-6.808-6.605h16.235c.298 0 .501-.22.501-.502v-.847c0-6.433-3.889-11.266-10.524-11.266Zm-56.127-7.405H90.25a.486.486 0 0 0-.502.502v11.846H75.489v-11.83a.478.478 0 0 0-.502-.502h-3.513a.486.486 0 0 0-.502.502v28.586c0 .298.204.502.502.502h3.513c.299 0 .502-.22.502-.502V53.487h14.259v12.771c0 .298.204.502.502.502h3.513c.298 0 .502-.22.502-.502V37.672c.016-.298-.204-.518-.502-.518Zm74.353 0h-3.388a.486.486 0 0 0-.502.502v28.602c0 .298.204.502.502.502h3.388c.298 0 .502-.22.502-.502V37.672a.5.5 0 0 0-.502-.518Zm-58.349 26.531c-4.69 0-7.184-3.514-7.184-7.704 0-4.189 2.494-7.703 7.184-7.703 4.69 0 7.184 3.514 7.184 7.703 0 4.19-2.494 7.704-7.184 7.704Zm0-19.126c-6.306 0-11.592 4.66-11.592 11.422 0 6.763 5.286 11.422 11.592 11.422 6.306 0 11.592-4.66 11.592-11.422 0-6.762-5.302-11.422-11.592-11.422Zm26.963.675h-5.49V38.08c0-.377-.376-.55-.627-.298l-3.42 3.42c-.203.204-.345.424-.345.753v3.28h-3.764a.478.478 0 0 0-.502.501v2.37c0 .297.204.502.502.502h3.764v11.547c0 4.017 1.898 6.605 5.914 6.605h3.968a.478.478 0 0 0 .503-.502V63.56a.479.479 0 0 0-.503-.502h-2.791c-1.992 0-2.699-.77-2.699-2.746V48.623h5.49a.478.478 0 0 0 .503-.502v-2.369a.483.483 0 0 0-.503-.518Zm57.082 19.691h-1.458c-.142 0-.252.094-.252.25v1.366a.24.24 0 0 0 .252.25h1.458c.141 0 .251-.093.251-.25v-1.365c0-.142-.094-.251-.251-.251Zm13.16.69c-1.365 0-2.056-.925-2.056-2.15 0-1.176.675-2.149 2.056-2.149 1.364 0 2.054.973 2.054 2.15-.016 1.223-.69 2.15-2.054 2.15Zm0-5.601c-1.899 0-3.515 1.412-3.515 3.467 0 2.103 1.616 3.468 3.515 3.468 1.897 0 3.513-1.365 3.513-3.468 0-2.055-1.616-3.467-3.513-3.467Zm-24.864-6.151c-3.467-.753-5.161-1.349-5.161-3.138 0-1.694 1.522-2.698 4.235-2.698 2.416 0 4.314 1.098 5.538 2.84.172.25.47.298.721.125l2.29-1.475c.251-.172.345-.423.173-.721-1.867-2.84-4.816-4.237-8.675-4.237-4.313 0-8.157 2.119-8.157 6.433 0 4.535 3.593 5.711 8.33 6.731 3.341.722 4.815 1.27 4.815 3.264 0 1.945-1.741 2.965-4.658 2.965-3.044 0-4.988-1.193-6.337-3.17-.173-.298-.471-.376-.769-.172l-2.29 1.585c-.251.172-.298.423-.173.674 1.726 2.918 4.942 4.566 9.521 4.566 5.71 0 9.005-2.84 9.005-6.637 0-4.44-3.671-5.868-8.408-6.935Zm37.083 6.151c-.972 0-1.615.392-2.149 1.02-.345-.58-1.067-1.02-1.945-1.02-.926 0-1.506.44-1.851.926v-.487c0-.14-.094-.25-.251-.25h-.972c-.142 0-.252.093-.252.25v6.104a.24.24 0 0 0 .252.25h1.019c.142 0 .251-.094.251-.25v-3.17c0-1.224.346-2.055 1.412-2.055.926 0 1.224.533 1.224 1.412v3.797c0 .141.093.25.251.25h1.019c.141 0 .251-.093.251-.25v-3.17c0-1.223.393-2.055 1.459-2.055.878 0 1.224.534 1.224 1.412v3.797c0 .141.093.251.25.251h1.02c.141 0 .251-.094.251-.25v-4.002c-.031-1.49-.957-2.51-2.463-2.51Zm-17.35 4.581c-.141-.14-.298-.094-.392 0-.674.738-1.129 1.02-1.851 1.02-1.223 0-1.851-.925-1.851-2.15 0-1.176.533-2.149 1.804-2.149.831 0 1.27.345 1.71.832.094.094.251.141.392.047l.58-.486c.141-.095.251-.252.094-.44-.533-.737-1.459-1.27-2.776-1.27-2.008 0-3.31 1.364-3.31 3.467 0 2.102 1.318 3.514 3.262 3.514 1.365 0 2.338-.58 2.981-1.459.095-.141.095-.251 0-.345l-.643-.58ZM52.921 42.818c0-1.27-1.02-2.29-2.29-2.29H33.549c-.345 0-.549.125-.753.344l-3.435 3.42c-.251.252-.079.644.298.644h18.854v18.859c0 .377.377.55.643.298l3.436-3.42c.22-.22.33-.424.33-.769V42.818Z" fill="#191E3B"/></g></g><defs><clipPath id="a"><path fill="#fff" transform="translate(23.465 29.647)" d="M0 0h198.959v44.471H0z"/></clipPath></defs></svg>