<svg width="246" height="105" fill="none" xmlns="http://www.w3.org/2000/svg"><g clip-path="url(#a)"><mask id="b" style="mask-type:luminance" maskUnits="userSpaceOnUse" x="75" y="3" width="98" height="99"><path d="M172.2 3.706H75.03v97.588h97.17V3.706Z" fill="#fff"/></mask><g mask="url(#b)"><path d="M172.2 52.5c0 26.947-21.754 48.794-48.585 48.794S75.03 79.447 75.03 52.5c0-26.947 21.754-48.794 48.585-48.794S172.2 25.553 172.2 52.5Z" fill="#EB004B"/><path d="M106.885 62.328v-7.799h-10.68v7.799h-4.98V42.635h4.98v7.747h10.68v-7.747h4.952v19.693h-4.952Zm13.13-10.597v-5.054h7.045c2.219 0 3.045 1.009 3.045 2.46 0 1.452-.851 2.59-2.916 2.59h-7.17l-.004.004Zm10.81 3.42c2.685-.83 4.284-2.85 4.284-6.14 0-4.64-2.968-6.376-7.818-6.376h-12.256v19.693h4.98v-6.555h5.729l4.231 6.555h5.624l-4.774-7.177Zm20.252 1.399c0 1.582-2.166 1.996-5.081 1.996-3.871 0-7.251-.83-8.745-1.529v4.38c2.194.675 4.903 1.191 8.745 1.191 6.526 0 10.008-1.659 10.008-6.27 0-4.042-2.348-5.388-9.547-5.83-3.352-.208-4.437-.416-4.437-1.969 0-1.553 2.065-2.098 4.798-2.098 3.587 0 6.785.83 8.101 1.505v-4.38c-1.652-.622-4.336-1.167-7.87-1.167-7.3 0-9.96 2.253-9.96 6.372s2.32 5.388 9.571 5.83c3.328.208 4.413.416 4.413 1.969" fill="#fff"/></g></g><defs><clipPath id="a"><path fill="#fff" transform="translate(75.03 3.706)" d="M0 0h97.17v97.588H0z"/></clipPath></defs></svg>