<svg width="15" height="16" fill="none" xmlns="http://www.w3.org/2000/svg"><path d="M6.951 1.524C6.951.682 7.606 0 8.415 0h5.122C14.345 0 15 .682 15 1.524v5.333c0 .842-.655 1.524-1.463 1.524H8.415c-.809 0-1.464-.682-1.464-1.524V1.524Z" fill="#FBD34C"/><path d="M0 9.143C0 8.3.655 7.619 1.463 7.619h5.122c.809 0 1.464.682 1.464 1.524v5.333c0 .842-.655 1.524-1.464 1.524H1.463C.655 16 0 15.318 0 14.476V9.143Z" fill="#FBD34C"/><path d="M7.317 6.476 5.671 8.952l1.646.953 1.646-2.476-1.646-.953Z" fill="#FBD34C"/></svg>