<svg width="250" height="65" fill="none" xmlns="http://www.w3.org/2000/svg"><g clip-path="url(#a)" fill="#fff"><path d="M198.96 41.46v-2.108h-2.463v2.108h-1.23v-5.446h1.23v2.108h2.463v-2.108h1.233v5.446m3.693.175c-1.759 0-2.639-1.054-2.639-2.81 0-1.757 1.407-2.811 2.991-2.811 1.583 0 2.814.878 2.814 2.81-.176 1.757-1.583 2.811-3.166 2.811Zm0-4.392c-.704 0-1.407.527-1.407 1.581 0 .879.351 1.582 1.407 1.582.704 0 1.407-.527 1.407-1.581 0-1.055-.528-1.582-1.407-1.582Zm5.981 0v4.217h-1.406v-4.217h-1.407v-1.23h4.222v1.23m.702 4.217v-5.446h3.519v1.054h-2.111v1.23h1.935v.878h-1.935v1.23h2.111v1.054m1.055 0v-5.446h1.408v4.392h1.759v1.054"/><path fill-rule="evenodd" clip-rule="evenodd" d="M185.942 15.81c3.872-7.905 11.963-13.175 21.287-13.175 9.675 0 17.943 5.797 21.638 14.054.703.527 1.231 1.23 1.583 1.933a5.33 5.33 0 0 1 1.407-1.406C228.163 7.203 218.487 0 207.229 0c-10.73 0-20.054 6.5-24.1 15.635m47.673 13.001c-1.232 11.946-11.259 21.432-23.573 21.432-11.963 0-21.813-8.784-23.398-20.203h-.702a2.98 2.98 0 0 1-1.761-.526c1.585 13 12.668 23.013 26.036 23.013a26.203 26.203 0 0 0 26.035-22.662c-1.23 0-1.935-.527-2.637-1.054Zm-46.795-3.338v-.351l1.935-7.379H182.6l-.352 1.054c-.352-.703-1.055-1.405-2.111-1.405-2.991 0-5.452 3.338-5.452 7.378 0 2.108 1.582 3.69 3.165 3.69 1.407 0 2.287-.879 2.815-1.582.176 1.054 1.231 1.581 2.111 1.581.879 0 1.407-.175 1.759-.527l.528-2.283c-.176 0-.352.175-.704.175-.176 0-.352-.175-.352-.351Zm-4.75.527c-.703 0-1.055-.703-1.055-1.757 0-1.932 1.055-4.216 2.463-4.216.528 0 1.055.703 1.055 1.757 0 1.756-1.231 4.216-2.463 4.216Zm-6.156-14.055-1.583 6.5h-3.167l1.76-6.5h-2.991c-.704 1.055-1.583 1.757-3.167 1.757l-.527 2.284h.527c.704 0 1.232-.176 1.936-.527l-3.519 13h3.343l1.935-7.203h2.99l-1.759 7.203h3.343l4.222-16.338"/><path fill-rule="evenodd" clip-rule="evenodd" d="M201.423 18.445c-.352-.527-1.231-1.054-2.111-1.054-2.991 0-5.453 3.514-5.453 7.379 0 2.108 1.583 3.689 3.166 3.689 1.232 0 2.111-.703 2.639-1.405l-.352 1.405h2.815l4.222-16.338h-3.343l-1.583 6.324Zm-3.166 7.379c-.704 0-1.056-.703-1.056-1.757 0-1.932 1.056-4.216 2.463-4.216.528 0 1.055.703 1.055 1.757 0 1.756-1.055 4.216-2.462 4.216Zm-4.221-8.607c-1.056 0-1.935.878-2.463 1.757l.352-1.582h-3.343l-2.815 10.717h3.343l1.407-5.095c.352-1.405 1.232-2.81 2.463-2.81.352 0 .704.175.88.175l.878-3.162c-.176.175-.526 0-.702 0Zm52.949 12.121c-.704 0-.879-.351-.879-1.054V27.23c0-1.23-.528-2.46-1.408-2.986 1.935-.352 4.222-1.933 4.222-4.392 0-1.406-1.055-2.636-2.814-2.636-1.056 0-2.111.527-2.815 1.23l1.759-6.676h-3.342l-4.222 16.514h3.342l.88-3.338c.879.176 1.583.879 1.583 2.108 0 .879-.176 1.406-.176 2.284 0 1.581 1.231 2.635 2.991 2.635.879 0 1.759-.351 2.286-.702l-.527-2.109c-.176 0-.528.176-.88.176Zm-4.75-6.5c.352-1.581 1.76-3.338 2.991-3.338.528 0 .88.352.88.703-.176 1.405-1.76 2.635-3.871 2.635Zm-16.711-5.621c-3.342 0-5.805 3.162-5.805 6.851 0 2.46 1.759 4.216 3.87 4.216 3.518 0 5.981-3.162 5.981-6.675 0-2.635-1.759-4.392-4.046-4.392Zm-1.583 8.608c-.528 0-1.056-.703-1.056-1.933 0-2.108 1.056-4.392 2.463-4.392.704 0 1.056.879 1.056 1.933 0 2.108-1.232 4.392-2.463 4.392Zm9.498-1.933c0-2.459 1.409-4.216 2.815-4.216.705 0 1.407.527 1.759.879l.704-2.46c-.528-.351-1.582-.878-2.639-.878-3.165 0-5.804 3.338-5.804 6.675 0 2.636 1.759 4.392 4.046 4.392.88 0 1.582-.175 1.934-.35l.705-2.46c-.352.35-.881.35-1.585.35-1.231 0-1.935-.526-1.935-1.932Z"/><path fill-rule="evenodd" clip-rule="evenodd" d="M219.367 29.514c-.704 0-1.056-.527-1.056-1.23 0-.878.176-1.932.176-2.986 0-1.932-1.055-3.513-1.759-3.865 2.287-.527 4.574-2.81 4.574-5.094 0-2.46-1.583-4.392-5.102-4.392h-3.166c-.704 1.054-1.583 1.757-3.167 1.757l-.527 2.283h.527c.704 0 1.232-.175 1.935-.527l-3.342 12.825h3.342l1.584-6.325c1.055.352 2.111 1.581 2.111 3.162s-.352 2.46-.352 4.217c0 1.932 1.407 2.986 3.518 2.986 1.232 0 1.935-.351 2.463-.878l-.528-2.108c-.527.175-.879.175-1.231.175Zm-4.926-10.013h-.703l1.407-5.27h.528c1.407 0 1.935.878 1.935 2.108 0 1.58-1.056 3.162-3.167 3.162Z"/><path d="M236.079 31.27c.176-.175.352-.35.352-.526 0-.176-.176-.352-.528-.352h-.352v1.406h.176v-.527l.528.527h.176l-.352-.527Zm-.352-.175v-.351h.176c.176 0 .352 0 .352.175 0 0-.176.176-.528.176Z"/><path d="M235.903 29.865c-.704 0-1.231.527-1.231 1.23s.527 1.23 1.231 1.23c.704 0 1.232-.527 1.232-1.23s-.528-1.23-1.232-1.23Zm0 2.284c-.528 0-1.055-.527-1.055-1.054s.527-1.054 1.055-1.054c.528 0 1.056.527 1.056 1.054 0 .703-.352 1.054-1.056 1.054ZM8.444 33.378 2.99 25.824h-.176v7.554H0V15.81c1.231 0 2.815-.175 4.75-.175 3.694 0 6.157 1.23 6.157 4.743 0 2.81-2.111 4.568-4.926 4.919.528.703 1.056 1.23 1.407 1.932l4.574 6.149H8.444Zm-4.046-15.46H2.99v5.622h1.407c2.287 0 3.694-1.23 3.694-2.986-.176-1.757-1.407-2.635-3.694-2.635Zm10.378 15.46V15.81H24.1v2.284h-6.333v5.095h5.981v2.284h-5.981v5.446H24.1v2.46m6.86.175c-1.23 0-2.462-.176-3.517-.352l.175-2.635c1.056.352 2.463.703 3.695.703 1.935 0 3.518-.878 3.518-2.635 0-3.69-7.74-2.108-7.74-7.906 0-2.986 2.462-5.094 6.509-5.094 1.055 0 2.11.175 3.166.351l-.176 2.46a9.975 9.975 0 0 0-3.166-.527c-2.111 0-3.343 1.054-3.343 2.459 0 3.514 7.74 2.284 7.74 7.73-.175 3.162-2.638 5.446-6.86 5.446ZM43.803 15.81h-2.815v17.568h2.815V15.81Zm9.324 17.569c-1.76 0-3.343 0-4.75-.176V15.636c1.407 0 3.342-.176 5.453-.176 5.63 0 8.972 2.46 8.972 8.608 0 6.324-3.87 9.311-9.675 9.311Zm.527-15.46h-2.462v12.825c.527 0 1.407.175 2.11.175 3.87 0 6.51-1.932 6.51-6.5 0-4.04-1.76-6.5-6.158-6.5Zm12.315 15.459V15.81h9.323v2.284h-6.509v5.095h6.157v2.284h-6.157v5.446h6.51v2.46m14.424-.001-5.981-10.013c-.704-1.23-1.407-2.46-1.935-3.69.176 1.757.176 5.27.176 7.73v5.973h-2.815V15.81h3.518l5.806 9.663c.703 1.23 1.407 2.635 2.11 4.04-.175-1.932-.175-5.797-.175-8.432v-5.27h2.814v17.567m11.259.176c-5.982 0-8.093-3.865-8.093-8.433 0-5.446 2.815-9.486 8.62-9.486 1.232 0 2.639.175 3.87.527l-.351 2.635a13.744 13.744 0 0 0-3.871-.527c-3.694 0-5.277 2.81-5.277 6.5 0 4.04 1.759 6.5 5.629 6.5 1.232 0 2.815-.351 3.694-.878l.352 2.459c-1.231.351-2.814.703-4.573.703Zm8.268-.176V15.81h9.147v2.284h-6.333v5.095h6.157v2.284h-6.157v5.446h6.333v2.46m6.862.175c-1.232 0-2.463-.176-3.519-.352l.176-2.635c1.056.352 2.463.703 3.694.703 1.935 0 3.519-.878 3.519-2.635 0-3.69-7.741-2.108-7.741-7.906 0-2.986 2.463-5.094 6.509-5.094 1.056 0 2.111.175 3.167.351l-.176 2.46a9.978 9.978 0 0 0-3.167-.527c-2.111 0-3.342 1.054-3.342 2.459 0 3.514 7.74 2.284 7.74 7.73 0 3.162-2.639 5.446-6.86 5.446ZM99.744 49.892l-.704-2.108h-4.046l-.704 2.108h-1.583l3.518-9.837h1.76l3.518 9.837h-1.76Zm-2.287-6.5-.528-1.58-.528 1.58-1.055 2.987h3.166l-1.055-2.987Zm7.565-2.108v8.608h-1.584v-8.608H100.8v-1.23h7.036v1.23m7.565 0v8.608h-1.583v-8.608h-2.815v-1.23h7.036v1.23m7.565 8.608v-4.391h-4.75v4.391h-1.583v-9.837h1.583v4.04h4.75v-4.04h1.583v9.837m2.639 0v-9.837h5.278v1.23h-3.695v2.81h3.519v1.406h-3.519v2.986h3.695v1.405"/><path opacity=".2" d="M149.352.352h-.88v64.473h.88V.352Z"/><path d="M195.794 64.825h-1.935v-5.973h2.287c1.935 0 3.166.878 3.166 2.986s-1.583 2.986-3.518 2.986Zm.176-4.92h-.704v3.514h.704c1.055 0 1.935-.527 1.935-1.757-.176-1.054-.704-1.756-1.935-1.756Zm8.092 4.92-.352-1.055h-2.287l-.352 1.054h-1.583l2.287-5.972h1.759l2.287 5.973h-1.759Zm-1.232-3.514c-.175-.351-.175-.703-.351-.878 0 .351-.176.527-.352.878l-.528 1.405h1.583l-.352-1.405Zm6.685 3.514h-1.759l-2.287-5.973h1.584l1.055 2.81.528 1.581c.176-.527.352-1.23.528-1.58l1.055-2.811h1.583M214.793 65c-1.935 0-2.991-1.23-2.991-2.986 0-1.933 1.583-3.162 3.167-3.162 1.759 0 2.99 1.054 2.99 2.986.176 1.932-1.407 3.162-3.166 3.162Zm.176-4.919c-.88 0-1.584.527-1.584 1.757 0 1.054.528 1.757 1.584 1.757.879 0 1.583-.527 1.583-1.757s-.704-1.757-1.583-1.757ZM220.247 65c-.352 0-.88 0-1.232-.176v-1.405c.352.175.88.175 1.232.175.527 0 .879-.175.879-.703 0-.878-2.463-.35-2.463-2.283 0-1.23.88-1.933 2.463-1.933.352 0 .704 0 1.056.176v1.23c-.352-.176-.704-.176-1.056-.176-.704 0-.879.176-.879.527 0 .878 2.462.527 2.462 2.284.176 1.405-.703 2.283-2.462 2.283Z"/></g><defs><clipPath id="a"><path fill="#fff" d="M0 0h250v65H0z"/></clipPath></defs></svg>