<svg width="76" height="80" fill="none" xmlns="http://www.w3.org/2000/svg"><path d="M14 39h7v7h-7v-7Zm21.5 1h5v5h-5v-5Zm20 0h5v5h-5v-5Zm0 20h5v5h-5v-5Zm-20 0h5v5h-5v-5Zm-20 0h5v5h-5v-5Z" fill="#EDCD51"/><path fill-rule="evenodd" clip-rule="evenodd" d="M65.5 5h-10V2.5a2.5 2.5 0 0 0-5 0V5h-25V2.5a2.501 2.501 0 0 0-5 0V5h-10C4.978 5 .5 9.478.5 15v55c0 5.522 4.478 10 10 10h55c5.522 0 10-4.478 10-10V15c0-5.523-4.478-10-10-10Zm5 65c0 2.762-2.237 5-5 5h-55a5 5 0 0 1-5-5V25h65v45Zm0-50h-65v-5c0-2.762 2.237-5 5-5h10v2.5a2.5 2.5 0 0 0 5 0V10h25v2.5a2.501 2.501 0 0 0 5 0V10h10c2.763 0 5 2.238 5 5v5Z" fill="#EDCD51"/><path d="M34.5 39h7v7h-7v-7ZM55 39h7v7h-7v-7Zm0 20h7v7h-7v-7Zm-20.5 0h7v7h-7v-7ZM14 59h7v7h-7v-7Z" fill="#EDCD51"/></svg>