<svg width="81" height="80" fill="none" xmlns="http://www.w3.org/2000/svg"><g clip-path="url(#a)" fill="#EDCD51"><path d="M19.813 43.843C16.956 41.136 5.533 40.26 2.1 40.057c-.48-.007-.91.136-1.243.45a1.667 1.667 0 0 0-.524 1.213v30c0 .92.747 1.666 1.667 1.666h10c.72 0 1.36-.467 1.583-1.15.243-.747 5.987-18.373 6.743-27.04a1.659 1.659 0 0 0-.513-1.353Zm-9.03 26.21H3.667V43.506c5.356.423 11.136 1.343 13.236 2.363-.883 7.3-4.88 20.27-6.12 24.182Z"/><path d="M80.158 64.303c-2.317-4.63-7.44-6.987-12.46-5.73l-12.77 3.193a1.665 1.665 0 0 0-1.213 2.02 1.663 1.663 0 0 0 2.02 1.213l12.77-3.186a7.58 7.58 0 0 1 7.717 2.52l-16.523 7.513c-14.013 5.743-14.497 5.56-20.506 3.293l-25-8.333a1.665 1.665 0 1 0-1.053 3.16l24.936 8.31c2.803 1.056 4.736 1.67 6.91 1.67 3.38 0 7.34-1.477 16.04-5.047l18.332-8.333a1.664 1.664 0 0 0 .8-2.263Z"/><path d="M49.025 53.426 19.026 46.76c-.89-.183-1.79.37-1.99 1.267a1.67 1.67 0 0 0 1.267 1.99l29.956 6.656c3.693.923 5.176 2.377 5.38 5.42l-3.2.8a8.339 8.339 0 0 1-3.653.087l-14.46-2.894a1.65 1.65 0 0 0-1.96 1.307c-.18.903.403 1.78 1.307 1.96l14.463 2.893c.75.15 1.52.223 2.286.223.954 0 1.91-.116 2.827-.346l4.486-1.12A1.668 1.668 0 0 0 57 63.386v-.527c0-5.146-2.444-8.053-7.974-9.433Z"/><path d="M56.615 20.657a1.662 1.662 0 0 0-1.283-.603H41.999c-.49 0-.953.217-1.27.59-.613.723-15.053 17.84-18.616 27.093-.33.856.096 1.82.957 2.153a1.67 1.67 0 0 0 2.153-.957c3.006-7.813 14.97-22.436 17.556-25.546h11.766c5.77 7.066 19.12 24.85 19.12 31.666 0 1.617-.174 3.213-.514 4.743a1.67 1.67 0 0 0 1.63 2.03c.764 0 1.45-.527 1.624-1.303a25.21 25.21 0 0 0 .593-5.47c0-9.483-18.296-31.872-20.383-34.396Z"/><path d="M61.998 20.054H35.332a1.667 1.667 0 0 0 0 3.333h26.666a1.667 1.667 0 0 0 0-3.333Z"/><path d="M69.915 2.284c-.47-.533-1.357-1.17-2.89-1.17-3.35 0-8.677 3.24-11.25 4.947-1.9-2.7-4.716-6.007-7.11-6.007-2.393 0-5.21 3.307-7.11 6.01-2.573-1.706-7.9-4.946-11.25-4.946-1.536 0-2.42.636-2.89 1.17-.756.856-1.1 1.97-.99 3.22.538 6.17 13.104 16.372 14.534 17.516a1.68 1.68 0 0 0 1.04.363h13.333c.377 0 .747-.13 1.04-.367 1.43-1.14 13.996-11.343 14.533-17.516.11-1.25-.234-2.363-.99-3.22ZM67.58 5.218c-.303 3.476-7.846 10.773-12.84 14.836H42.587c-4.99-4.063-12.537-11.363-12.84-14.84-.04-.486.107-.653.14-.706.027-.017.153-.06.41-.06 2.433 0 7.87 3.246 10.723 5.293a1.667 1.667 0 0 0 2.373-.45c1.89-2.927 4.423-5.743 5.223-5.907.883.164 3.417 2.98 5.31 5.907a1.67 1.67 0 0 0 2.373.45c2.857-2.047 8.293-5.293 10.723-5.293.25 0 .38.043.39.043.064.073.214.24.17.727ZM56.426 33.475h-9.452v4.04h8.122v3.574h-8.122v3.05h4.365v3.168h-4.365v2.848h-3.96v-2.848h-2.37V44.14h2.37V29.843h13.412v3.632Z"/></g><defs><clipPath id="a"><path fill="#fff" transform="translate(.333)" d="M0 0h80v80H0z"/></clipPath></defs></svg>