<svg width="81" height="102" fill="none" xmlns="http://www.w3.org/2000/svg"><path d="m69.055 59.572 11.612-11.611-21.772-21.772-3.583 3.583-11.505.01-2.663 2.664H29.942l-5.4-5.4L.666 50.92l13.626 13.584c-.7.334-1.355.79-1.933 1.368l-2.432 2.431c-3.775 3.701-2.066 10.308 2.998 11.722-1.245 5.08 3.411 9.734 8.49 8.489 1.07 3.838 5.385 6.04 9.137 4.643 2.176 5.941 10.321 6.262 13.039.572 3.742 3.045 9.531 1.38 11.064-3.216 3.714 1.256 7.886-.961 8.93-4.716 5.081 1.258 9.739-3.443 8.485-8.485 2.906-.79 5.123-3.701 5.062-6.75a6.988 6.988 0 0 0-2.06-4.972l-6.018-6.018Zm-11.8-25.113 1.64-1.64 15.14 15.142-8.295 8.296L49.494 40.01l-4.852 4.851c-2.906 2.906-7.333 3.385-10.74 1.438L45.75 34.47l11.505-.011Zm-44.011 37.16 2.431-2.432a2.347 2.347 0 0 1 3.316 0 2.347 2.347 0 0 1 0 3.316l-2.432 2.431c-2.29 2.108-5.423-1.025-3.315-3.316Zm4.863 11.715c-.91-.873-.91-2.443 0-3.316l4.2-4.2a2.329 2.329 0 0 1 1.657-.686c2.064-.018 3.129 2.548 1.659 4l-.001.002-4.2 4.2c-.873.91-2.443.91-3.316 0Zm8.399 4.862a2.347 2.347 0 0 1 0-3.315l2.431-2.432a2.347 2.347 0 0 1 3.316 0 2.347 2.347 0 0 1 0 3.316l-2.431 2.431a2.347 2.347 0 0 1-3.316 0Zm12.38 4.199c-.865.955-2.477.984-3.37.053-1.5-1.49-.353-4.06 1.71-4.053 2.059-.014 3.133 2.532 1.66 4Zm32.87-20.175c-.873.91-2.443.91-3.315 0l-5.797-5.797-3.315 3.316 7.565 7.565a2.347 2.347 0 0 1 0 3.315 2.347 2.347 0 0 1-3.316 0l-7.565-7.565-3.315 3.316 5.797 5.797c1.47 1.451.407 4.019-1.658 4.002a2.33 2.33 0 0 1-1.658-.687l-5.797-5.797-3.315 3.316 3.586 3.586a2.33 2.33 0 0 1 .687 1.658c.017 2.065-2.55 3.128-4.002 1.657l-4.14-4.138a6.982 6.982 0 0 0-4.586-2.05c-.121-3.48-3.15-6.506-6.63-6.626-.109-3.437-3.13-6.522-6.632-6.635a7.003 7.003 0 0 0-2.047-4.585l-15-14.953L24.54 33.676l3.458 3.459h8.449l-9.403 9.383 1.66 1.66c5.308 5.308 13.944 5.308 19.253 0l1.535-1.536 22.264 22.263a2.347 2.347 0 0 1 0 3.316ZM47.085 18.17c0 .358.011.773.034 1.244a5.2 5.2 0 0 0 .239 1.346c.136.404.352.752.648 1.043.296.292.716.438 1.262.438.523 0 .933-.146 1.228-.438a2.46 2.46 0 0 0 .683-1.043c.159-.426.25-.863.273-1.312.045-.47.068-.886.068-1.245 0-.336-.023-.729-.068-1.177a4.806 4.806 0 0 0-.24-1.313 2.595 2.595 0 0 0-.647-1.076c-.273-.314-.66-.472-1.16-.472-.546 0-.978.135-1.297.404a2.66 2.66 0 0 0-.682 1.01 4.76 4.76 0 0 0-.307 1.312c-.023.471-.034.897-.034 1.279Zm-3.48-.034c0-.92.113-1.772.34-2.557.228-.785.58-1.47 1.059-2.053a5.02 5.02 0 0 1 1.808-1.38c.728-.336 1.592-.504 2.593-.504 1.069 0 1.956.18 2.66.538a4.36 4.36 0 0 1 1.707 1.414c.455.583.773 1.278.955 2.086.182.807.273 1.67.273 2.59 0 .92-.114 1.773-.341 2.558A5.7 5.7 0 0 1 53.6 22.88c-.455.583-1.046 1.043-1.774 1.38-.728.314-1.592.47-2.593.47-1.046 0-1.933-.167-2.661-.504a4.777 4.777 0 0 1-1.74-1.38c-.432-.605-.75-1.312-.955-2.12a11.772 11.772 0 0 1-.273-2.59ZM46.232 0h2.9L35.075 25h-2.968L46.232 0ZM29.48 6.999c0 .359.011.762.034 1.211.023.449.102.875.239 1.279.136.38.352.706.648.975.296.27.717.404 1.262.404.524 0 .933-.135 1.229-.404.318-.269.546-.594.682-.975.16-.404.25-.82.273-1.245.045-.449.068-.853.068-1.212 0-.336-.023-.74-.068-1.211a5.747 5.747 0 0 0-.239-1.413 2.85 2.85 0 0 0-.648-1.144c-.273-.314-.66-.471-1.16-.471-.546 0-.978.146-1.297.437-.295.292-.523.65-.682 1.077a5.348 5.348 0 0 0-.307 1.38c-.023.493-.034.93-.034 1.312ZM26 6.93c0-.92.114-1.783.341-2.59A6.013 6.013 0 0 1 27.4 2.22 4.863 4.863 0 0 1 29.207.808C29.935.448 30.8.269 31.8.269c1.069 0 1.956.18 2.661.539a4.521 4.521 0 0 1 1.706 1.48c.455.606.773 1.323.955 2.153.182.83.273 1.705.273 2.625 0 .92-.113 1.772-.34 2.557a5.398 5.398 0 0 1-1.059 1.985c-.454.561-1.046.999-1.774 1.313-.727.314-1.592.47-2.593.47-1.046 0-1.933-.156-2.66-.47a4.94 4.94 0 0 1-1.74-1.346c-.433-.583-.751-1.268-.956-2.053A11.771 11.771 0 0 1 26 6.932Z" fill="#EDCD51"/></svg>