<svg width="16" height="16" fill="none" xmlns="http://www.w3.org/2000/svg"><path d="M7.415 1.524C7.415.682 8.114 0 8.975 0h5.464C15.301 0 16 .682 16 1.524v5.333c0 .842-.699 1.524-1.561 1.524H8.976c-.862 0-1.561-.682-1.561-1.524V1.524Z" fill="#FBD34C"/><path d="M0 9.143C0 8.3.699 7.619 1.561 7.619h5.463c.862 0 1.561.682 1.561 1.524v5.333c0 .842-.699 1.524-1.56 1.524H1.56C.699 16 0 15.318 0 14.476V9.143Z" fill="#FBD34C"/><path d="M7.805 6.476 6.049 8.952l1.756.953L9.56 7.429l-1.756-.953Z" fill="#FBD34C"/></svg>