<svg width="3608" height="42" fill="none" xmlns="http://www.w3.org/2000/svg"><path d="M19 4a4 4 0 0 1 4-4h14a4 4 0 0 1 4 4v14a4 4 0 0 1-4 4H23a4 4 0 0 1-4-4V4Z" fill="#FBD34C"/><path d="M0 24a4 4 0 0 1 4-4h14a4 4 0 0 1 4 4v14a4 4 0 0 1-4 4H4a4 4 0 0 1-4-4V24Z" fill="#FBD34C"/><path d="m20 17-4.5 6.5L20 26l4.5-6.5L20 17Z" fill="#FBD34C"/><path d="M60 4a4 4 0 0 1 4-4h14a4 4 0 0 1 4 4v14a4 4 0 0 1-4 4H64a4 4 0 0 1-4-4V4Z" fill="#202938"/><path d="M41 24a4 4 0 0 1 4-4h14a4 4 0 0 1 4 4v14a4 4 0 0 1-4 4H45a4 4 0 0 1-4-4V24Z" fill="#202938"/><path d="m61 17-4.5 6.5L61 26l4.5-6.5L61 17Z" fill="#202938"/><path d="M101 4a4 4 0 0 1 4-4h14a4 4 0 0 1 4 4v14a4 4 0 0 1-4 4h-14a4 4 0 0 1-4-4V4Z" fill="#FBD34C"/><path d="M82 24a4 4 0 0 1 4-4h14a4 4 0 0 1 4 4v14a4 4 0 0 1-4 4H86a4 4 0 0 1-4-4V24Z" fill="#FBD34C"/><path d="m102 17-4.5 6.5L102 26l4.5-6.5L102 17Z" fill="#FBD34C"/><path d="M142 4a4 4 0 0 1 4-4h14a4 4 0 0 1 4 4v14a4 4 0 0 1-4 4h-14a4 4 0 0 1-4-4V4Z" fill="#202938"/><path d="M123 24a4 4 0 0 1 4-4h14a4 4 0 0 1 4 4v14a4 4 0 0 1-4 4h-14a4 4 0 0 1-4-4V24Z" fill="#202938"/><path d="m143 17-4.5 6.5L143 26l4.5-6.5L143 17Z" fill="#202938"/><path d="M183 4a4 4 0 0 1 4-4h14a4 4 0 0 1 4 4v14a4 4 0 0 1-4 4h-14a4 4 0 0 1-4-4V4Z" fill="#FBD34C"/><path d="M164 24a4 4 0 0 1 4-4h14a4 4 0 0 1 4 4v14a4 4 0 0 1-4 4h-14a4 4 0 0 1-4-4V24Z" fill="#FBD34C"/><path d="m184 17-4.5 6.5L184 26l4.5-6.5L184 17Z" fill="#FBD34C"/><path d="M224 4a4 4 0 0 1 4-4h14a4 4 0 0 1 4 4v14a4 4 0 0 1-4 4h-14a4 4 0 0 1-4-4V4Z" fill="#202938"/><path d="M205 24a4 4 0 0 1 4-4h14a4 4 0 0 1 4 4v14a4 4 0 0 1-4 4h-14a4 4 0 0 1-4-4V24Z" fill="#202938"/><path d="m225 17-4.5 6.5L225 26l4.5-6.5L225 17Z" fill="#202938"/><path d="M265 4a4 4 0 0 1 4-4h14a4 4 0 0 1 4 4v14a4 4 0 0 1-4 4h-14a4 4 0 0 1-4-4V4Z" fill="#FBD34C"/><path d="M246 24a4 4 0 0 1 4-4h14a4 4 0 0 1 4 4v14a4 4 0 0 1-4 4h-14a4 4 0 0 1-4-4V24Z" fill="#FBD34C"/><path d="m266 17-4.5 6.5L266 26l4.5-6.5L266 17Z" fill="#FBD34C"/><path d="M306 4a4 4 0 0 1 4-4h14a4 4 0 0 1 4 4v14a4 4 0 0 1-4 4h-14a4 4 0 0 1-4-4V4Z" fill="#202938"/><path d="M287 24a4 4 0 0 1 4-4h14a4 4 0 0 1 4 4v14a4 4 0 0 1-4 4h-14a4 4 0 0 1-4-4V24Z" fill="#202938"/><path d="m307 17-4.5 6.5L307 26l4.5-6.5L307 17Z" fill="#202938"/><path d="M347 4a4 4 0 0 1 4-4h14a4 4 0 0 1 4 4v14a4 4 0 0 1-4 4h-14a4 4 0 0 1-4-4V4Z" fill="#FBD34C"/><path d="M328 24a4 4 0 0 1 4-4h14a4 4 0 0 1 4 4v14a4 4 0 0 1-4 4h-14a4 4 0 0 1-4-4V24Z" fill="#FBD34C"/><path d="m348 17-4.5 6.5L348 26l4.5-6.5L348 17Z" fill="#FBD34C"/><path d="M388 4a4 4 0 0 1 4-4h14a4 4 0 0 1 4 4v14a4 4 0 0 1-4 4h-14a4 4 0 0 1-4-4V4Z" fill="#202938"/><path d="M369 24a4 4 0 0 1 4-4h14a4 4 0 0 1 4 4v14a4 4 0 0 1-4 4h-14a4 4 0 0 1-4-4V24Z" fill="#202938"/><path d="m389 17-4.5 6.5L389 26l4.5-6.5L389 17Z" fill="#202938"/><path d="M429 4a4 4 0 0 1 4-4h14a4 4 0 0 1 4 4v14a4 4 0 0 1-4 4h-14a4 4 0 0 1-4-4V4Z" fill="#FBD34C"/><path d="M410 24a4 4 0 0 1 4-4h14a4 4 0 0 1 4 4v14a4 4 0 0 1-4 4h-14a4 4 0 0 1-4-4V24Z" fill="#FBD34C"/><path d="m430 17-4.5 6.5L430 26l4.5-6.5L430 17Z" fill="#FBD34C"/><path d="M470 4a4 4 0 0 1 4-4h14a4 4 0 0 1 4 4v14a4 4 0 0 1-4 4h-14a4 4 0 0 1-4-4V4Z" fill="#202938"/><path d="M451 24a4 4 0 0 1 4-4h14a4 4 0 0 1 4 4v14a4 4 0 0 1-4 4h-14a4 4 0 0 1-4-4V24Z" fill="#202938"/><path d="m471 17-4.5 6.5L471 26l4.5-6.5L471 17Z" fill="#202938"/><path d="M511 4a4 4 0 0 1 4-4h14a4 4 0 0 1 4 4v14a4 4 0 0 1-4 4h-14a4 4 0 0 1-4-4V4Z" fill="#FBD34C"/><path d="M492 24a4 4 0 0 1 4-4h14a4 4 0 0 1 4 4v14a4 4 0 0 1-4 4h-14a4 4 0 0 1-4-4V24Z" fill="#FBD34C"/><path d="m512 17-4.5 6.5L512 26l4.5-6.5L512 17Z" fill="#FBD34C"/><path d="M552 4a4 4 0 0 1 4-4h14a4 4 0 0 1 4 4v14a4 4 0 0 1-4 4h-14a4 4 0 0 1-4-4V4Z" fill="#202938"/><path d="M533 24a4 4 0 0 1 4-4h14a4 4 0 0 1 4 4v14a4 4 0 0 1-4 4h-14a4 4 0 0 1-4-4V24Z" fill="#202938"/><path d="m553 17-4.5 6.5L553 26l4.5-6.5L553 17Z" fill="#202938"/><path d="M593 4a4 4 0 0 1 4-4h14a4 4 0 0 1 4 4v14a4 4 0 0 1-4 4h-14a4 4 0 0 1-4-4V4Z" fill="#FBD34C"/><path d="M574 24a4 4 0 0 1 4-4h14a4 4 0 0 1 4 4v14a4 4 0 0 1-4 4h-14a4 4 0 0 1-4-4V24Z" fill="#FBD34C"/><path d="m594 17-4.5 6.5L594 26l4.5-6.5L594 17Z" fill="#FBD34C"/><path d="M634 4a4 4 0 0 1 4-4h14a4 4 0 0 1 4 4v14a4 4 0 0 1-4 4h-14a4 4 0 0 1-4-4V4Z" fill="#202938"/><path d="M615 24a4 4 0 0 1 4-4h14a4 4 0 0 1 4 4v14a4 4 0 0 1-4 4h-14a4 4 0 0 1-4-4V24Z" fill="#202938"/><path d="m635 17-4.5 6.5L635 26l4.5-6.5L635 17Z" fill="#202938"/><path d="M675 4a4 4 0 0 1 4-4h14a4 4 0 0 1 4 4v14a4 4 0 0 1-4 4h-14a4 4 0 0 1-4-4V4Z" fill="#FBD34C"/><path d="M656 24a4 4 0 0 1 4-4h14a4 4 0 0 1 4 4v14a4 4 0 0 1-4 4h-14a4 4 0 0 1-4-4V24Z" fill="#FBD34C"/><path d="m676 17-4.5 6.5L676 26l4.5-6.5L676 17Z" fill="#FBD34C"/><path d="M716 4a4 4 0 0 1 4-4h14a4 4 0 0 1 4 4v14a4 4 0 0 1-4 4h-14a4 4 0 0 1-4-4V4Z" fill="#202938"/><path d="M697 24a4 4 0 0 1 4-4h14a4 4 0 0 1 4 4v14a4 4 0 0 1-4 4h-14a4 4 0 0 1-4-4V24Z" fill="#202938"/><path d="m717 17-4.5 6.5L717 26l4.5-6.5L717 17Z" fill="#202938"/><path d="M757 4a4 4 0 0 1 4-4h14a4 4 0 0 1 4 4v14a4 4 0 0 1-4 4h-14a4 4 0 0 1-4-4V4Z" fill="#FBD34C"/><path d="M738 24a4 4 0 0 1 4-4h14a4 4 0 0 1 4 4v14a4 4 0 0 1-4 4h-14a4 4 0 0 1-4-4V24Z" fill="#FBD34C"/><path d="m758 17-4.5 6.5L758 26l4.5-6.5L758 17Z" fill="#FBD34C"/><path d="M798 4a4 4 0 0 1 4-4h14a4 4 0 0 1 4 4v14a4 4 0 0 1-4 4h-14a4 4 0 0 1-4-4V4Z" fill="#202938"/><path d="M779 24a4 4 0 0 1 4-4h14a4 4 0 0 1 4 4v14a4 4 0 0 1-4 4h-14a4 4 0 0 1-4-4V24Z" fill="#202938"/><path d="m799 17-4.5 6.5L799 26l4.5-6.5L799 17Z" fill="#202938"/><path d="M839 4a4 4 0 0 1 4-4h14a4 4 0 0 1 4 4v14a4 4 0 0 1-4 4h-14a4 4 0 0 1-4-4V4Z" fill="#FBD34C"/><path d="M820 24a4 4 0 0 1 4-4h14a4 4 0 0 1 4 4v14a4 4 0 0 1-4 4h-14a4 4 0 0 1-4-4V24Z" fill="#FBD34C"/><path d="m840 17-4.5 6.5L840 26l4.5-6.5L840 17Z" fill="#FBD34C"/><path d="M880 4a4 4 0 0 1 4-4h14a4 4 0 0 1 4 4v14a4 4 0 0 1-4 4h-14a4 4 0 0 1-4-4V4Z" fill="#202938"/><path d="M861 24a4 4 0 0 1 4-4h14a4 4 0 0 1 4 4v14a4 4 0 0 1-4 4h-14a4 4 0 0 1-4-4V24Z" fill="#202938"/><path d="m881 17-4.5 6.5L881 26l4.5-6.5L881 17Z" fill="#202938"/><path d="M921 4a4 4 0 0 1 4-4h14a4 4 0 0 1 4 4v14a4 4 0 0 1-4 4h-14a4 4 0 0 1-4-4V4Z" fill="#FBD34C"/><path d="M902 24a4 4 0 0 1 4-4h14a4 4 0 0 1 4 4v14a4 4 0 0 1-4 4h-14a4 4 0 0 1-4-4V24Z" fill="#FBD34C"/><path d="m922 17-4.5 6.5L922 26l4.5-6.5L922 17Z" fill="#FBD34C"/><path d="M962 4a4 4 0 0 1 4-4h14a4 4 0 0 1 4 4v14a4 4 0 0 1-4 4h-14a4 4 0 0 1-4-4V4Z" fill="#202938"/><path d="M943 24a4 4 0 0 1 4-4h14a4 4 0 0 1 4 4v14a4 4 0 0 1-4 4h-14a4 4 0 0 1-4-4V24Z" fill="#202938"/><path d="m963 17-4.5 6.5L963 26l4.5-6.5L963 17Z" fill="#202938"/><path d="M1003 4a4 4 0 0 1 4-4h14a4 4 0 0 1 4 4v14a4 4 0 0 1-4 4h-14a4 4 0 0 1-4-4V4Z" fill="#FBD34C"/><path d="M984 24a4 4 0 0 1 4-4h14a4 4 0 0 1 4 4v14a4 4 0 0 1-4 4h-14a4 4 0 0 1-4-4V24Z" fill="#FBD34C"/><path d="m1004 17-4.5 6.5 4.5 2.5 4.5-6.5-4.5-2.5Z" fill="#FBD34C"/><path d="M1044 4a4 4 0 0 1 4-4h14a4 4 0 0 1 4 4v14a4 4 0 0 1-4 4h-14a4 4 0 0 1-4-4V4Z" fill="#202938"/><path d="M1025 24a4 4 0 0 1 4-4h14a4 4 0 0 1 4 4v14a4 4 0 0 1-4 4h-14a4 4 0 0 1-4-4V24Z" fill="#202938"/><path d="m1045 17-4.5 6.5 4.5 2.5 4.5-6.5-4.5-2.5Z" fill="#202938"/><path d="M1085 4a4 4 0 0 1 4-4h14a4 4 0 0 1 4 4v14a4 4 0 0 1-4 4h-14a4 4 0 0 1-4-4V4Z" fill="#FBD34C"/><path d="M1066 24a4 4 0 0 1 4-4h14a4 4 0 0 1 4 4v14a4 4 0 0 1-4 4h-14a4 4 0 0 1-4-4V24Z" fill="#FBD34C"/><path d="m1086 17-4.5 6.5 4.5 2.5 4.5-6.5-4.5-2.5Z" fill="#FBD34C"/><path d="M1126 4a4 4 0 0 1 4-4h14a4 4 0 0 1 4 4v14a4 4 0 0 1-4 4h-14a4 4 0 0 1-4-4V4Z" fill="#202938"/><path d="M1107 24a4 4 0 0 1 4-4h14a4 4 0 0 1 4 4v14a4 4 0 0 1-4 4h-14a4 4 0 0 1-4-4V24Z" fill="#202938"/><path d="m1127 17-4.5 6.5 4.5 2.5 4.5-6.5-4.5-2.5Z" fill="#202938"/><path d="M1167 4a4 4 0 0 1 4-4h14a4 4 0 0 1 4 4v14a4 4 0 0 1-4 4h-14a4 4 0 0 1-4-4V4Z" fill="#FBD34C"/><path d="M1148 24a4 4 0 0 1 4-4h14a4 4 0 0 1 4 4v14a4 4 0 0 1-4 4h-14a4 4 0 0 1-4-4V24Z" fill="#FBD34C"/><path d="m1168 17-4.5 6.5 4.5 2.5 4.5-6.5-4.5-2.5Z" fill="#FBD34C"/><path d="M1208 4a4 4 0 0 1 4-4h14a4 4 0 0 1 4 4v14a4 4 0 0 1-4 4h-14a4 4 0 0 1-4-4V4Z" fill="#202938"/><path d="M1189 24a4 4 0 0 1 4-4h14a4 4 0 0 1 4 4v14a4 4 0 0 1-4 4h-14a4 4 0 0 1-4-4V24Z" fill="#202938"/><path d="m1209 17-4.5 6.5 4.5 2.5 4.5-6.5-4.5-2.5Z" fill="#202938"/><path d="M1249 4a4 4 0 0 1 4-4h14a4 4 0 0 1 4 4v14a4 4 0 0 1-4 4h-14a4 4 0 0 1-4-4V4Z" fill="#FBD34C"/><path d="M1230 24a4 4 0 0 1 4-4h14a4 4 0 0 1 4 4v14a4 4 0 0 1-4 4h-14a4 4 0 0 1-4-4V24Z" fill="#FBD34C"/><path d="m1250 17-4.5 6.5 4.5 2.5 4.5-6.5-4.5-2.5Z" fill="#FBD34C"/><path d="M1290 4a4 4 0 0 1 4-4h14a4 4 0 0 1 4 4v14a4 4 0 0 1-4 4h-14a4 4 0 0 1-4-4V4Z" fill="#202938"/><path d="M1271 24a4 4 0 0 1 4-4h14a4 4 0 0 1 4 4v14a4 4 0 0 1-4 4h-14a4 4 0 0 1-4-4V24Z" fill="#202938"/><path d="m1291 17-4.5 6.5 4.5 2.5 4.5-6.5-4.5-2.5Z" fill="#202938"/><path d="M1331 4a4 4 0 0 1 4-4h14a4 4 0 0 1 4 4v14a4 4 0 0 1-4 4h-14a4 4 0 0 1-4-4V4Z" fill="#FBD34C"/><path d="M1312 24a4 4 0 0 1 4-4h14a4 4 0 0 1 4 4v14a4 4 0 0 1-4 4h-14a4 4 0 0 1-4-4V24Z" fill="#FBD34C"/><path d="m1332 17-4.5 6.5 4.5 2.5 4.5-6.5-4.5-2.5Z" fill="#FBD34C"/><path d="M1372 4a4 4 0 0 1 4-4h14a4 4 0 0 1 4 4v14a4 4 0 0 1-4 4h-14a4 4 0 0 1-4-4V4Z" fill="#202938"/><path d="M1353 24a4 4 0 0 1 4-4h14a4 4 0 0 1 4 4v14a4 4 0 0 1-4 4h-14a4 4 0 0 1-4-4V24Z" fill="#202938"/><path d="m1373 17-4.5 6.5 4.5 2.5 4.5-6.5-4.5-2.5Z" fill="#202938"/><path d="M1413 4a4 4 0 0 1 4-4h14a4 4 0 0 1 4 4v14a4 4 0 0 1-4 4h-14a4 4 0 0 1-4-4V4Z" fill="#FBD34C"/><path d="M1394 24a4 4 0 0 1 4-4h14a4 4 0 0 1 4 4v14a4 4 0 0 1-4 4h-14a4 4 0 0 1-4-4V24Z" fill="#FBD34C"/><path d="m1414 17-4.5 6.5 4.5 2.5 4.5-6.5-4.5-2.5Z" fill="#FBD34C"/><path d="M1454 4a4 4 0 0 1 4-4h14a4 4 0 0 1 4 4v14a4 4 0 0 1-4 4h-14a4 4 0 0 1-4-4V4Z" fill="#202938"/><path d="M1435 24a4 4 0 0 1 4-4h14a4 4 0 0 1 4 4v14a4 4 0 0 1-4 4h-14a4 4 0 0 1-4-4V24Z" fill="#202938"/><path d="m1455 17-4.5 6.5 4.5 2.5 4.5-6.5-4.5-2.5Z" fill="#202938"/><path d="M1495 4a4 4 0 0 1 4-4h14a4 4 0 0 1 4 4v14a4 4 0 0 1-4 4h-14a4 4 0 0 1-4-4V4Z" fill="#FBD34C"/><path d="M1476 24a4 4 0 0 1 4-4h14a4 4 0 0 1 4 4v14a4 4 0 0 1-4 4h-14a4 4 0 0 1-4-4V24Z" fill="#FBD34C"/><path d="m1496 17-4.5 6.5 4.5 2.5 4.5-6.5-4.5-2.5Z" fill="#FBD34C"/><path d="M1536 4a4 4 0 0 1 4-4h14a4 4 0 0 1 4 4v14a4 4 0 0 1-4 4h-14a4 4 0 0 1-4-4V4Z" fill="#202938"/><path d="M1517 24a4 4 0 0 1 4-4h14a4 4 0 0 1 4 4v14a4 4 0 0 1-4 4h-14a4 4 0 0 1-4-4V24Z" fill="#202938"/><path d="m1537 17-4.5 6.5 4.5 2.5 4.5-6.5-4.5-2.5Z" fill="#202938"/><path d="M1577 4a4 4 0 0 1 4-4h14a4 4 0 0 1 4 4v14a4 4 0 0 1-4 4h-14a4 4 0 0 1-4-4V4Z" fill="#FBD34C"/><path d="M1558 24a4 4 0 0 1 4-4h14a4 4 0 0 1 4 4v14a4 4 0 0 1-4 4h-14a4 4 0 0 1-4-4V24Z" fill="#FBD34C"/><path d="m1578 17-4.5 6.5 4.5 2.5 4.5-6.5-4.5-2.5Z" fill="#FBD34C"/><path d="M1618 4a4 4 0 0 1 4-4h14a4 4 0 0 1 4 4v14a4 4 0 0 1-4 4h-14a4 4 0 0 1-4-4V4Z" fill="#202938"/><path d="M1599 24a4 4 0 0 1 4-4h14a4 4 0 0 1 4 4v14a4 4 0 0 1-4 4h-14a4 4 0 0 1-4-4V24Z" fill="#202938"/><path d="m1619 17-4.5 6.5 4.5 2.5 4.5-6.5-4.5-2.5Z" fill="#202938"/><path d="M1659 4a4 4 0 0 1 4-4h14a4 4 0 0 1 4 4v14a4 4 0 0 1-4 4h-14a4 4 0 0 1-4-4V4Z" fill="#FBD34C"/><path d="M1640 24a4 4 0 0 1 4-4h14a4 4 0 0 1 4 4v14a4 4 0 0 1-4 4h-14a4 4 0 0 1-4-4V24Z" fill="#FBD34C"/><path d="m1660 17-4.5 6.5 4.5 2.5 4.5-6.5-4.5-2.5Z" fill="#FBD34C"/><path d="M1700 4a4 4 0 0 1 4-4h14a4 4 0 0 1 4 4v14a4 4 0 0 1-4 4h-14a4 4 0 0 1-4-4V4Z" fill="#202938"/><path d="M1681 24a4 4 0 0 1 4-4h14a4 4 0 0 1 4 4v14a4 4 0 0 1-4 4h-14a4 4 0 0 1-4-4V24Z" fill="#202938"/><path d="m1701 17-4.5 6.5 4.5 2.5 4.5-6.5-4.5-2.5Z" fill="#202938"/><path d="M1741 4a4 4 0 0 1 4-4h14a4 4 0 0 1 4 4v14a4 4 0 0 1-4 4h-14a4 4 0 0 1-4-4V4Z" fill="#FBD34C"/><path d="M1722 24a4 4 0 0 1 4-4h14a4 4 0 0 1 4 4v14a4 4 0 0 1-4 4h-14a4 4 0 0 1-4-4V24Z" fill="#FBD34C"/><path d="m1742 17-4.5 6.5 4.5 2.5 4.5-6.5-4.5-2.5Z" fill="#FBD34C"/><path d="M1782 4a4 4 0 0 1 4-4h14a4 4 0 0 1 4 4v14a4 4 0 0 1-4 4h-14a4 4 0 0 1-4-4V4Z" fill="#202938"/><path d="M1763 24a4 4 0 0 1 4-4h14a4 4 0 0 1 4 4v14a4 4 0 0 1-4 4h-14a4 4 0 0 1-4-4V24Z" fill="#202938"/><path d="m1783 17-4.5 6.5 4.5 2.5 4.5-6.5-4.5-2.5Z" fill="#202938"/><path d="M1823 4a4 4 0 0 1 4-4h14a4 4 0 0 1 4 4v14a4 4 0 0 1-4 4h-14a4 4 0 0 1-4-4V4Z" fill="#FBD34C"/><path d="M1804 24a4 4 0 0 1 4-4h14a4 4 0 0 1 4 4v14a4 4 0 0 1-4 4h-14a4 4 0 0 1-4-4V24Z" fill="#FBD34C"/><path d="m1824 17-4.5 6.5 4.5 2.5 4.5-6.5-4.5-2.5Z" fill="#FBD34C"/><path d="M1864 4a4 4 0 0 1 4-4h14a4 4 0 0 1 4 4v14a4 4 0 0 1-4 4h-14a4 4 0 0 1-4-4V4Z" fill="#202938"/><path d="M1845 24a4 4 0 0 1 4-4h14a4 4 0 0 1 4 4v14a4 4 0 0 1-4 4h-14a4 4 0 0 1-4-4V24Z" fill="#202938"/><path d="m1865 17-4.5 6.5 4.5 2.5 4.5-6.5-4.5-2.5Z" fill="#202938"/><path d="M1905 4a4 4 0 0 1 4-4h14a4 4 0 0 1 4 4v14a4 4 0 0 1-4 4h-14a4 4 0 0 1-4-4V4Z" fill="#FBD34C"/><path d="M1886 24a4 4 0 0 1 4-4h14a4 4 0 0 1 4 4v14a4 4 0 0 1-4 4h-14a4 4 0 0 1-4-4V24Z" fill="#FBD34C"/><path d="m1906 17-4.5 6.5 4.5 2.5 4.5-6.5-4.5-2.5Z" fill="#FBD34C"/><path d="M1946 4a4 4 0 0 1 4-4h14a4 4 0 0 1 4 4v14a4 4 0 0 1-4 4h-14a4 4 0 0 1-4-4V4Z" fill="#202938"/><path d="M1927 24a4 4 0 0 1 4-4h14a4 4 0 0 1 4 4v14a4 4 0 0 1-4 4h-14a4 4 0 0 1-4-4V24Z" fill="#202938"/><path d="m1947 17-4.5 6.5 4.5 2.5 4.5-6.5-4.5-2.5Z" fill="#202938"/><path d="M1987 4a4 4 0 0 1 4-4h14a4 4 0 0 1 4 4v14a4 4 0 0 1-4 4h-14a4 4 0 0 1-4-4V4Z" fill="#FBD34C"/><path d="M1968 24a4 4 0 0 1 4-4h14a4 4 0 0 1 4 4v14a4 4 0 0 1-4 4h-14a4 4 0 0 1-4-4V24Z" fill="#FBD34C"/><path d="m1988 17-4.5 6.5 4.5 2.5 4.5-6.5-4.5-2.5Z" fill="#FBD34C"/><path d="M2028 4a4 4 0 0 1 4-4h14a4 4 0 0 1 4 4v14a4 4 0 0 1-4 4h-14a4 4 0 0 1-4-4V4Z" fill="#202938"/><path d="M2009 24a4 4 0 0 1 4-4h14a4 4 0 0 1 4 4v14a4 4 0 0 1-4 4h-14a4 4 0 0 1-4-4V24Z" fill="#202938"/><path d="m2029 17-4.5 6.5 4.5 2.5 4.5-6.5-4.5-2.5Z" fill="#202938"/><path d="M2069 4a4 4 0 0 1 4-4h14a4 4 0 0 1 4 4v14a4 4 0 0 1-4 4h-14a4 4 0 0 1-4-4V4Z" fill="#FBD34C"/><path d="M2050 24a4 4 0 0 1 4-4h14a4 4 0 0 1 4 4v14a4 4 0 0 1-4 4h-14a4 4 0 0 1-4-4V24Z" fill="#FBD34C"/><path d="m2070 17-4.5 6.5 4.5 2.5 4.5-6.5-4.5-2.5Z" fill="#FBD34C"/><path d="M2110 4a4 4 0 0 1 4-4h14a4 4 0 0 1 4 4v14a4 4 0 0 1-4 4h-14a4 4 0 0 1-4-4V4Z" fill="#202938"/><path d="M2091 24a4 4 0 0 1 4-4h14a4 4 0 0 1 4 4v14a4 4 0 0 1-4 4h-14a4 4 0 0 1-4-4V24Z" fill="#202938"/><path d="m2111 17-4.5 6.5 4.5 2.5 4.5-6.5-4.5-2.5Z" fill="#202938"/><path d="M2151 4a4 4 0 0 1 4-4h14a4 4 0 0 1 4 4v14a4 4 0 0 1-4 4h-14a4 4 0 0 1-4-4V4Z" fill="#FBD34C"/><path d="M2132 24a4 4 0 0 1 4-4h14a4 4 0 0 1 4 4v14a4 4 0 0 1-4 4h-14a4 4 0 0 1-4-4V24Z" fill="#FBD34C"/><path d="m2152 17-4.5 6.5 4.5 2.5 4.5-6.5-4.5-2.5Z" fill="#FBD34C"/><path d="M2192 4a4 4 0 0 1 4-4h14a4 4 0 0 1 4 4v14a4 4 0 0 1-4 4h-14a4 4 0 0 1-4-4V4Z" fill="#202938"/><path d="M2173 24a4 4 0 0 1 4-4h14a4 4 0 0 1 4 4v14a4 4 0 0 1-4 4h-14a4 4 0 0 1-4-4V24Z" fill="#202938"/><path d="m2193 17-4.5 6.5 4.5 2.5 4.5-6.5-4.5-2.5Z" fill="#202938"/><path d="M2233 4a4 4 0 0 1 4-4h14a4 4 0 0 1 4 4v14a4 4 0 0 1-4 4h-14a4 4 0 0 1-4-4V4Z" fill="#FBD34C"/><path d="M2214 24a4 4 0 0 1 4-4h14a4 4 0 0 1 4 4v14a4 4 0 0 1-4 4h-14a4 4 0 0 1-4-4V24Z" fill="#FBD34C"/><path d="m2234 17-4.5 6.5 4.5 2.5 4.5-6.5-4.5-2.5Z" fill="#FBD34C"/><path d="M2274 4a4 4 0 0 1 4-4h14a4 4 0 0 1 4 4v14a4 4 0 0 1-4 4h-14a4 4 0 0 1-4-4V4Z" fill="#202938"/><path d="M2255 24a4 4 0 0 1 4-4h14a4 4 0 0 1 4 4v14a4 4 0 0 1-4 4h-14a4 4 0 0 1-4-4V24Z" fill="#202938"/><path d="m2275 17-4.5 6.5 4.5 2.5 4.5-6.5-4.5-2.5Z" fill="#202938"/><path d="M2315 4a4 4 0 0 1 4-4h14a4 4 0 0 1 4 4v14a4 4 0 0 1-4 4h-14a4 4 0 0 1-4-4V4Z" fill="#FBD34C"/><path d="M2296 24a4 4 0 0 1 4-4h14a4 4 0 0 1 4 4v14a4 4 0 0 1-4 4h-14a4 4 0 0 1-4-4V24Z" fill="#FBD34C"/><path d="m2316 17-4.5 6.5 4.5 2.5 4.5-6.5-4.5-2.5Z" fill="#FBD34C"/><path d="M2356 4a4 4 0 0 1 4-4h14a4 4 0 0 1 4 4v14a4 4 0 0 1-4 4h-14a4 4 0 0 1-4-4V4Z" fill="#202938"/><path d="M2337 24a4 4 0 0 1 4-4h14a4 4 0 0 1 4 4v14a4 4 0 0 1-4 4h-14a4 4 0 0 1-4-4V24Z" fill="#202938"/><path d="m2357 17-4.5 6.5 4.5 2.5 4.5-6.5-4.5-2.5Z" fill="#202938"/><path d="M2397 4a4 4 0 0 1 4-4h14a4 4 0 0 1 4 4v14a4 4 0 0 1-4 4h-14a4 4 0 0 1-4-4V4Z" fill="#FBD34C"/><path d="M2378 24a4 4 0 0 1 4-4h14a4 4 0 0 1 4 4v14a4 4 0 0 1-4 4h-14a4 4 0 0 1-4-4V24Z" fill="#FBD34C"/><path d="m2398 17-4.5 6.5 4.5 2.5 4.5-6.5-4.5-2.5Z" fill="#FBD34C"/><path d="M2438 4a4 4 0 0 1 4-4h14a4 4 0 0 1 4 4v14a4 4 0 0 1-4 4h-14a4 4 0 0 1-4-4V4Z" fill="#202938"/><path d="M2419 24a4 4 0 0 1 4-4h14a4 4 0 0 1 4 4v14a4 4 0 0 1-4 4h-14a4 4 0 0 1-4-4V24Z" fill="#202938"/><path d="m2439 17-4.5 6.5 4.5 2.5 4.5-6.5-4.5-2.5Z" fill="#202938"/><path d="M2479 4a4 4 0 0 1 4-4h14a4 4 0 0 1 4 4v14a4 4 0 0 1-4 4h-14a4 4 0 0 1-4-4V4Z" fill="#FBD34C"/><path d="M2460 24a4 4 0 0 1 4-4h14a4 4 0 0 1 4 4v14a4 4 0 0 1-4 4h-14a4 4 0 0 1-4-4V24Z" fill="#FBD34C"/><path d="m2480 17-4.5 6.5 4.5 2.5 4.5-6.5-4.5-2.5Z" fill="#FBD34C"/><path d="M2520 4a4 4 0 0 1 4-4h14a4 4 0 0 1 4 4v14a4 4 0 0 1-4 4h-14a4 4 0 0 1-4-4V4Z" fill="#202938"/><path d="M2501 24a4 4 0 0 1 4-4h14a4 4 0 0 1 4 4v14a4 4 0 0 1-4 4h-14a4 4 0 0 1-4-4V24Z" fill="#202938"/><path d="m2521 17-4.5 6.5 4.5 2.5 4.5-6.5-4.5-2.5Z" fill="#202938"/><path d="M2561 4a4 4 0 0 1 4-4h14a4 4 0 0 1 4 4v14a4 4 0 0 1-4 4h-14a4 4 0 0 1-4-4V4Z" fill="#FBD34C"/><path d="M2542 24a4 4 0 0 1 4-4h14a4 4 0 0 1 4 4v14a4 4 0 0 1-4 4h-14a4 4 0 0 1-4-4V24Z" fill="#FBD34C"/><path d="m2562 17-4.5 6.5 4.5 2.5 4.5-6.5-4.5-2.5Z" fill="#FBD34C"/><path d="M2602 4a4 4 0 0 1 4-4h14a4 4 0 0 1 4 4v14a4 4 0 0 1-4 4h-14a4 4 0 0 1-4-4V4Z" fill="#202938"/><path d="M2583 24a4 4 0 0 1 4-4h14a4 4 0 0 1 4 4v14a4 4 0 0 1-4 4h-14a4 4 0 0 1-4-4V24Z" fill="#202938"/><path d="m2603 17-4.5 6.5 4.5 2.5 4.5-6.5-4.5-2.5Z" fill="#202938"/><path d="M2643 4a4 4 0 0 1 4-4h14a4 4 0 0 1 4 4v14a4 4 0 0 1-4 4h-14a4 4 0 0 1-4-4V4Z" fill="#FBD34C"/><path d="M2624 24a4 4 0 0 1 4-4h14a4 4 0 0 1 4 4v14a4 4 0 0 1-4 4h-14a4 4 0 0 1-4-4V24Z" fill="#FBD34C"/><path d="m2644 17-4.5 6.5 4.5 2.5 4.5-6.5-4.5-2.5Z" fill="#FBD34C"/><path d="M2684 4a4 4 0 0 1 4-4h14a4 4 0 0 1 4 4v14a4 4 0 0 1-4 4h-14a4 4 0 0 1-4-4V4Z" fill="#202938"/><path d="M2665 24a4 4 0 0 1 4-4h14a4 4 0 0 1 4 4v14a4 4 0 0 1-4 4h-14a4 4 0 0 1-4-4V24Z" fill="#202938"/><path d="m2685 17-4.5 6.5 4.5 2.5 4.5-6.5-4.5-2.5Z" fill="#202938"/><path d="M2725 4a4 4 0 0 1 4-4h14a4 4 0 0 1 4 4v14a4 4 0 0 1-4 4h-14a4 4 0 0 1-4-4V4Z" fill="#FBD34C"/><path d="M2706 24a4 4 0 0 1 4-4h14a4 4 0 0 1 4 4v14a4 4 0 0 1-4 4h-14a4 4 0 0 1-4-4V24Z" fill="#FBD34C"/><path d="m2726 17-4.5 6.5 4.5 2.5 4.5-6.5-4.5-2.5Z" fill="#FBD34C"/><path d="M2766 4a4 4 0 0 1 4-4h14a4 4 0 0 1 4 4v14a4 4 0 0 1-4 4h-14a4 4 0 0 1-4-4V4Z" fill="#202938"/><path d="M2747 24a4 4 0 0 1 4-4h14a4 4 0 0 1 4 4v14a4 4 0 0 1-4 4h-14a4 4 0 0 1-4-4V24Z" fill="#202938"/><path d="m2767 17-4.5 6.5 4.5 2.5 4.5-6.5-4.5-2.5Z" fill="#202938"/><path d="M2807 4a4 4 0 0 1 4-4h14a4 4 0 0 1 4 4v14a4 4 0 0 1-4 4h-14a4 4 0 0 1-4-4V4Z" fill="#FBD34C"/><path d="M2788 24a4 4 0 0 1 4-4h14a4 4 0 0 1 4 4v14a4 4 0 0 1-4 4h-14a4 4 0 0 1-4-4V24Z" fill="#FBD34C"/><path d="m2808 17-4.5 6.5 4.5 2.5 4.5-6.5-4.5-2.5Z" fill="#FBD34C"/><path d="M2848 4a4 4 0 0 1 4-4h14a4 4 0 0 1 4 4v14a4 4 0 0 1-4 4h-14a4 4 0 0 1-4-4V4Z" fill="#202938"/><path d="M2829 24a4 4 0 0 1 4-4h14a4 4 0 0 1 4 4v14a4 4 0 0 1-4 4h-14a4 4 0 0 1-4-4V24Z" fill="#202938"/><path d="m2849 17-4.5 6.5 4.5 2.5 4.5-6.5-4.5-2.5Z" fill="#202938"/><path d="M2889 4a4 4 0 0 1 4-4h14a4 4 0 0 1 4 4v14a4 4 0 0 1-4 4h-14a4 4 0 0 1-4-4V4Z" fill="#FBD34C"/><path d="M2870 24a4 4 0 0 1 4-4h14a4 4 0 0 1 4 4v14a4 4 0 0 1-4 4h-14a4 4 0 0 1-4-4V24Z" fill="#FBD34C"/><path d="m2890 17-4.5 6.5 4.5 2.5 4.5-6.5-4.5-2.5Z" fill="#FBD34C"/><path d="M2930 4a4 4 0 0 1 4-4h14a4 4 0 0 1 4 4v14a4 4 0 0 1-4 4h-14a4 4 0 0 1-4-4V4Z" fill="#202938"/><path d="M2911 24a4 4 0 0 1 4-4h14a4 4 0 0 1 4 4v14a4 4 0 0 1-4 4h-14a4 4 0 0 1-4-4V24Z" fill="#202938"/><path d="m2931 17-4.5 6.5 4.5 2.5 4.5-6.5-4.5-2.5Z" fill="#202938"/><path d="M2971 4a4 4 0 0 1 4-4h14a4 4 0 0 1 4 4v14a4 4 0 0 1-4 4h-14a4 4 0 0 1-4-4V4Z" fill="#FBD34C"/><path d="M2952 24a4 4 0 0 1 4-4h14a4 4 0 0 1 4 4v14a4 4 0 0 1-4 4h-14a4 4 0 0 1-4-4V24Z" fill="#FBD34C"/><path d="m2972 17-4.5 6.5 4.5 2.5 4.5-6.5-4.5-2.5Z" fill="#FBD34C"/><path d="M3012 4a4 4 0 0 1 4-4h14a4 4 0 0 1 4 4v14a4 4 0 0 1-4 4h-14a4 4 0 0 1-4-4V4Z" fill="#202938"/><path d="M2993 24a4 4 0 0 1 4-4h14a4 4 0 0 1 4 4v14a4 4 0 0 1-4 4h-14a4 4 0 0 1-4-4V24Z" fill="#202938"/><path d="m3013 17-4.5 6.5 4.5 2.5 4.5-6.5-4.5-2.5Z" fill="#202938"/><path d="M3053 4a4 4 0 0 1 4-4h14a4 4 0 0 1 4 4v14a4 4 0 0 1-4 4h-14a4 4 0 0 1-4-4V4Z" fill="#FBD34C"/><path d="M3034 24a4 4 0 0 1 4-4h14a4 4 0 0 1 4 4v14a4 4 0 0 1-4 4h-14a4 4 0 0 1-4-4V24Z" fill="#FBD34C"/><path d="m3054 17-4.5 6.5 4.5 2.5 4.5-6.5-4.5-2.5Z" fill="#FBD34C"/><path d="M3094 4a4 4 0 0 1 4-4h14a4 4 0 0 1 4 4v14a4 4 0 0 1-4 4h-14a4 4 0 0 1-4-4V4Z" fill="#202938"/><path d="M3075 24a4 4 0 0 1 4-4h14a4 4 0 0 1 4 4v14a4 4 0 0 1-4 4h-14a4 4 0 0 1-4-4V24Z" fill="#202938"/><path d="m3095 17-4.5 6.5 4.5 2.5 4.5-6.5-4.5-2.5Z" fill="#202938"/><path d="M3135 4a4 4 0 0 1 4-4h14a4 4 0 0 1 4 4v14a4 4 0 0 1-4 4h-14a4 4 0 0 1-4-4V4Z" fill="#FBD34C"/><path d="M3116 24a4 4 0 0 1 4-4h14a4 4 0 0 1 4 4v14a4 4 0 0 1-4 4h-14a4 4 0 0 1-4-4V24Z" fill="#FBD34C"/><path d="m3136 17-4.5 6.5 4.5 2.5 4.5-6.5-4.5-2.5Z" fill="#FBD34C"/><path d="M3176 4a4 4 0 0 1 4-4h14a4 4 0 0 1 4 4v14a4 4 0 0 1-4 4h-14a4 4 0 0 1-4-4V4Z" fill="#202938"/><path d="M3157 24a4 4 0 0 1 4-4h14a4 4 0 0 1 4 4v14a4 4 0 0 1-4 4h-14a4 4 0 0 1-4-4V24Z" fill="#202938"/><path d="m3177 17-4.5 6.5 4.5 2.5 4.5-6.5-4.5-2.5Z" fill="#202938"/><path d="M3217 4a4 4 0 0 1 4-4h14a4 4 0 0 1 4 4v14a4 4 0 0 1-4 4h-14a4 4 0 0 1-4-4V4Z" fill="#FBD34C"/><path d="M3198 24a4 4 0 0 1 4-4h14a4 4 0 0 1 4 4v14a4 4 0 0 1-4 4h-14a4 4 0 0 1-4-4V24Z" fill="#FBD34C"/><path d="m3218 17-4.5 6.5 4.5 2.5 4.5-6.5-4.5-2.5Z" fill="#FBD34C"/><path d="M3258 4a4 4 0 0 1 4-4h14a4 4 0 0 1 4 4v14a4 4 0 0 1-4 4h-14a4 4 0 0 1-4-4V4Z" fill="#202938"/><path d="M3239 24a4 4 0 0 1 4-4h14a4 4 0 0 1 4 4v14a4 4 0 0 1-4 4h-14a4 4 0 0 1-4-4V24Z" fill="#202938"/><path d="m3259 17-4.5 6.5 4.5 2.5 4.5-6.5-4.5-2.5Z" fill="#202938"/><path d="M3299 4a4 4 0 0 1 4-4h14a4 4 0 0 1 4 4v14a4 4 0 0 1-4 4h-14a4 4 0 0 1-4-4V4Z" fill="#FBD34C"/><path d="M3280 24a4 4 0 0 1 4-4h14a4 4 0 0 1 4 4v14a4 4 0 0 1-4 4h-14a4 4 0 0 1-4-4V24Z" fill="#FBD34C"/><path d="m3300 17-4.5 6.5 4.5 2.5 4.5-6.5-4.5-2.5Z" fill="#FBD34C"/><path d="M3340 4a4 4 0 0 1 4-4h14a4 4 0 0 1 4 4v14a4 4 0 0 1-4 4h-14a4 4 0 0 1-4-4V4Z" fill="#202938"/><path d="M3321 24a4 4 0 0 1 4-4h14a4 4 0 0 1 4 4v14a4 4 0 0 1-4 4h-14a4 4 0 0 1-4-4V24Z" fill="#202938"/><path d="m3341 17-4.5 6.5 4.5 2.5 4.5-6.5-4.5-2.5Z" fill="#202938"/><path d="M3381 4a4 4 0 0 1 4-4h14a4 4 0 0 1 4 4v14a4 4 0 0 1-4 4h-14a4 4 0 0 1-4-4V4Z" fill="#FBD34C"/><path d="M3362 24a4 4 0 0 1 4-4h14a4 4 0 0 1 4 4v14a4 4 0 0 1-4 4h-14a4 4 0 0 1-4-4V24Z" fill="#FBD34C"/><path d="m3382 17-4.5 6.5 4.5 2.5 4.5-6.5-4.5-2.5Z" fill="#FBD34C"/><path d="M3422 4a4 4 0 0 1 4-4h14a4 4 0 0 1 4 4v14a4 4 0 0 1-4 4h-14a4 4 0 0 1-4-4V4Z" fill="#202938"/><path d="M3403 24a4 4 0 0 1 4-4h14a4 4 0 0 1 4 4v14a4 4 0 0 1-4 4h-14a4 4 0 0 1-4-4V24Z" fill="#202938"/><path d="m3423 17-4.5 6.5 4.5 2.5 4.5-6.5-4.5-2.5Z" fill="#202938"/><path d="M3463 4a4 4 0 0 1 4-4h14a4 4 0 0 1 4 4v14a4 4 0 0 1-4 4h-14a4 4 0 0 1-4-4V4Z" fill="#FBD34C"/><path d="M3444 24a4 4 0 0 1 4-4h14a4 4 0 0 1 4 4v14a4 4 0 0 1-4 4h-14a4 4 0 0 1-4-4V24Z" fill="#FBD34C"/><path d="m3464 17-4.5 6.5 4.5 2.5 4.5-6.5-4.5-2.5Z" fill="#FBD34C"/><path d="M3504 4a4 4 0 0 1 4-4h14a4 4 0 0 1 4 4v14a4 4 0 0 1-4 4h-14a4 4 0 0 1-4-4V4Z" fill="#202938"/><path d="M3485 24a4 4 0 0 1 4-4h14a4 4 0 0 1 4 4v14a4 4 0 0 1-4 4h-14a4 4 0 0 1-4-4V24Z" fill="#202938"/><path d="m3505 17-4.5 6.5 4.5 2.5 4.5-6.5-4.5-2.5Z" fill="#202938"/><path d="M3545 4a4 4 0 0 1 4-4h14a4 4 0 0 1 4 4v14a4 4 0 0 1-4 4h-14a4 4 0 0 1-4-4V4Z" fill="#FBD34C"/><path d="M3526 24a4 4 0 0 1 4-4h14a4 4 0 0 1 4 4v14a4 4 0 0 1-4 4h-14a4 4 0 0 1-4-4V24Z" fill="#FBD34C"/><path d="m3546 17-4.5 6.5 4.5 2.5 4.5-6.5-4.5-2.5Z" fill="#FBD34C"/><path d="M3586 4a4 4 0 0 1 4-4h14a4 4 0 0 1 4 4v14a4 4 0 0 1-4 4h-14a4 4 0 0 1-4-4V4Z" fill="#202938"/><path d="M3567 24a4 4 0 0 1 4-4h14a4 4 0 0 1 4 4v14a4 4 0 0 1-4 4h-14a4 4 0 0 1-4-4V24Z" fill="#202938"/><path d="m3587 17-4.5 6.5 4.5 2.5 4.5-6.5-4.5-2.5Z" fill="#202938"/></svg>