<svg width="32" height="32" fill="none" xmlns="http://www.w3.org/2000/svg"><path d="M16 5a1 1 0 0 1-1-1V2a1 1 0 0 1 2 0v2a1 1 0 0 1-1 1Zm8.49 3.51a1 1 0 0 1-.71-.29 1 1 0 0 1 0-1.41l1.41-1.42a1.004 1.004 0 0 1 1.42 1.42l-1.42 1.41a1 1 0 0 1-.7.29ZM30 17h-2a1 1 0 0 1 0-2h2a1 1 0 0 1 0 2Zm-4.1 9.9a1 1 0 0 1-.71-.29l-1.41-1.42a1 1 0 1 1 1.41-1.41l1.42 1.41a1 1 0 0 1-.71 1.71ZM16 31a1 1 0 0 1-1-1v-2a1 1 0 0 1 2 0v2a1 1 0 0 1-1 1Zm-9.9-4.1a1 1 0 0 1-.71-1.71l1.42-1.41a1 1 0 1 1 1.41 1.41l-1.41 1.42a1 1 0 0 1-.71.29ZM4 17H2a1 1 0 0 1 0-2h2a1 1 0 0 1 0 2Zm3.51-8.49a1 1 0 0 1-.7-.29L5.39 6.81a1.004 1.004 0 1 1 1.42-1.42l1.41 1.42a1 1 0 0 1 0 1.41 1 1 0 0 1-.71.29ZM25 16a9 9 0 0 1-16.28 5.28A9 9 0 0 1 21.28 8.72 8.94 8.94 0 0 1 25 16Z" fill="#FFC166"/><path d="M22 13a9 9 0 0 1-13.67 7.69A9 9 0 0 1 20.69 8.33 8.94 8.94 0 0 1 22 13Z" fill="#FFD64F"/></svg>