<svg width="32" height="32" fill="none" xmlns="http://www.w3.org/2000/svg"><g clip-path="url(#a)"><path d="M22.563 6.563c0 .234-.03.542-.165.676-.279.278-1.26.275-2.145.264L13.188 7.5v1.875h1.876v2.813h1.874V9.376l3.754.004c2.145 0 3.747-.493 3.747-2.818V4.688h-1.875v1.875ZM0 1.875h21.625V3.75H0V1.875Z" fill="#ECF2FF"/><path d="M25.375 1.875H32V3.75h-6.625V1.875Zm-9.375 0h5.625V3.75H16V1.875Zm6.563 4.688c0 .234-.03.542-.165.676-.279.278-1.26.275-2.145.264L16 7.5v4.686h.938v-2.81l3.705.003h.048c2.145 0 3.747-.493 3.747-2.818V4.688h-1.875v1.875Z" fill="#D9E5FF"/><path d="M23.5 5.625a2.816 2.816 0 0 1-2.813-2.813A2.816 2.816 0 0 1 23.5 0a2.816 2.816 0 0 1 2.813 2.813A2.816 2.816 0 0 1 23.5 5.624Z" fill="#4D7F99"/><path d="M27.313 11.25H4.687A4.692 4.692 0 0 0 0 15.938v12.187h4.688V26.25H1.874V15.937a2.816 2.816 0 0 1 2.813-2.812h22.625a2.816 2.816 0 0 1 2.812 2.813V26.25h-2.813v1.875H32V15.937a4.692 4.692 0 0 0-4.688-4.687Z" fill="#D9E5FF"/><path d="M27.313 11.25H16v1.875h11.313a2.816 2.816 0 0 1 2.812 2.813V26.25h-2.813v1.875H32V15.937a4.692 4.692 0 0 0-4.688-4.687Z" fill="#BFD6FF"/><path d="M26.375 28.125H5.625A1.875 1.875 0 0 1 3.75 26.25v-4.688a2.812 2.812 0 0 1 2.813-2.812h3.812c.72 0 1.377.272 1.875.718a2.803 2.803 0 0 1 1.875-.718h3.75c.72 0 1.377.272 1.875.718a2.803 2.803 0 0 1 1.875-.718h3.813a2.813 2.813 0 0 1 2.812 2.813v4.687c0 1.036-.84 1.875-1.875 1.875Z" fill="#406080"/><path d="M25.438 18.75h-3.813c-.72 0-1.377.272-1.875.718a2.803 2.803 0 0 0-1.875-.718H16v9.375h10.375c1.036 0 1.875-.84 1.875-1.875v-4.688a2.813 2.813 0 0 0-2.813-2.812Z" fill="#334D66"/><path d="M28.25 32H3.75v-3.875c0-.518.42-.938.938-.938h22.625c.517 0 .937.42.937.938V32Z" fill="#4D7F99"/><path d="M16 32h12.25v-3.875a.938.938 0 0 0-.938-.938H16V32Z" fill="#406080"/><path d="M28.25 28.125H3.75V26.25h24.5v1.875Z" fill="#ECF2FF"/><path d="M16 26.25h12.25v1.875H16V26.25Z" fill="#D9E5FF"/></g><defs><clipPath id="a"><path fill="#fff" d="M0 0h32v32H0z"/></clipPath></defs></svg>