<svg width="32" height="32" fill="none" xmlns="http://www.w3.org/2000/svg"><path d="M15.467 12.8H1.6a1.067 1.067 0 0 1 0-2.133h13.867a3.2 3.2 0 1 0-3.2-3.2 1.066 1.066 0 0 1-2.134 0 5.333 5.333 0 1 1 5.334 5.333ZM11.2 29.867a5.339 5.339 0 0 1-5.333-5.334 1.067 1.067 0 0 1 2.133 0 3.2 3.2 0 1 0 3.2-3.2H1.6a1.067 1.067 0 0 1 0-2.133h9.6a5.334 5.334 0 0 1 0 10.667Z" fill="#BFD6FF"/><path d="M25.6 26.667a5.874 5.874 0 0 1-5.867-5.867 1.067 1.067 0 0 1 2.134 0 3.733 3.733 0 1 0 3.733-3.733h-24a1.067 1.067 0 0 1 0-2.134h24a5.867 5.867 0 0 1 0 11.734Z" fill="#A3B9DF"/></svg>