<svg width="32" height="32" fill="none" xmlns="http://www.w3.org/2000/svg"><g clip-path="url(#a)"><mask id="b" style="mask-type:luminance" maskUnits="userSpaceOnUse" x="0" y="0" width="32" height="32"><path d="M0 0h32v32H0V0Z" fill="#fff"/></mask><g mask="url(#b)"><path d="M31.034 15.034h-2.171l1.082-1.083a.966.966 0 0 0-1.365-1.366l-2.45 2.45H23.4l1.082-1.084a.966.966 0 0 0-1.366-1.366l-2.448 2.45h-2.336l5.514-5.516h3.464a.966.966 0 1 0 0-1.932h-1.532l1.536-1.535a.966.966 0 1 0-1.366-1.366l-1.536 1.536V4.69a.966.966 0 0 0-1.931 0v3.463l-5.515 5.515v-2.335l.4-.4 2.049-2.05a.966.966 0 1 0-1.366-1.365L16.966 8.6V5.869l.4-.4 2.049-2.049a.966.966 0 1 0-1.366-1.365l-1.083 1.083V.966a.966.966 0 0 0-1.932 0v2.171l-1.083-1.083a.966.966 0 1 0-1.366 1.366l2.05 2.05.4.4V8.6L13.95 7.519a.966.966 0 0 0-1.366 1.366l2.05 2.048.4.4v2.336L9.518 8.154V4.69a.966.966 0 1 0-1.931 0v1.532L6.052 4.686a.966.966 0 0 0-1.366 1.366l1.536 1.536H4.69a.966.966 0 1 0 0 1.932h3.464l5.514 5.514h-2.335l-2.45-2.449a.966.966 0 1 0-1.365 1.366L8.6 15.034H5.869L3.42 12.585a.966.966 0 1 0-1.365 1.366l1.083 1.083H.966a.966.966 0 0 0 0 1.932h2.172l-1.083 1.083a.966.966 0 1 0 1.365 1.366l2.45-2.45H8.6L7.519 18.05a.966.966 0 1 0 1.366 1.366l2.048-2.05.4-.4h2.336l-5.514 5.516H4.69a.966.966 0 0 0 0 1.931h1.532l-1.536 1.536a.966.966 0 0 0 1.366 1.366l1.536-1.536v1.532a.966.966 0 1 0 1.931 0v-3.464l5.515-5.514v2.335l-.4.4-2.049 2.05a.966.966 0 0 0 1.366 1.366l1.083-1.084v2.732l-.4.4-2.049 2.049a.966.966 0 1 0 1.366 1.365l1.083-1.082v2.171a.966.966 0 1 0 1.932 0v-2.171l1.083 1.082a.966.966 0 1 0 1.366-1.365l-2.05-2.05-.4-.4V23.4l1.084 1.082a.966.966 0 1 0 1.366-1.366l-2.05-2.049-.4-.4v-2.335l5.516 5.514v3.464a.966.966 0 0 0 1.931 0v-1.532l1.536 1.536a.966.966 0 1 0 1.366-1.366l-1.536-1.536h1.532a.966.966 0 0 0 0-1.931h-3.464l-5.514-5.515h2.335l.4.4 2.05 2.049a.966.966 0 1 0 1.365-1.366L23.4 16.966h2.732l2.449 2.449a.966.966 0 0 0 1.366-1.366l-1.084-1.083h2.172a.966.966 0 1 0 0-1.932Z" fill="#A2DDFD"/><path d="M20.668 16.966a.966.966 0 1 1 0-1.932h-2.336l1.651-1.651a.966.966 0 0 1-1.366-1.366l-1.651 1.651v-2.335l.4-.4 2.049-2.05a.966.966 0 1 0-1.366-1.365L16.966 8.6V5.869l.4-.4 2.049-2.049a.966.966 0 1 0-1.366-1.365l-1.083 1.083V.966a.966.966 0 0 0-1.932 0v2.171l-1.083-1.082a.966.966 0 1 0-1.366 1.365l2.05 2.05.4.4V8.6L13.95 7.519a.966.966 0 0 0-1.366 1.366l2.05 2.048.4.4v2.336L9.518 8.154V4.69a.966.966 0 1 0-1.931 0v1.532L6.052 4.686a.966.966 0 1 0-1.366 1.366l1.536 1.536H4.69a.966.966 0 0 0 0 1.931h3.464l5.514 5.515h-2.335l-2.45-2.449a.966.966 0 0 0-1.365 1.366L8.6 15.034H5.869L3.42 12.585a.966.966 0 0 0-1.365 1.366l1.083 1.083H.966a.966.966 0 1 0 0 1.932h2.172l-1.083 1.083a.966.966 0 1 0 1.365 1.366l2.45-2.45H8.6L7.519 18.05a.966.966 0 1 0 1.366 1.366l2.048-2.05.4-.4h2.336l-5.514 5.516H4.69a.966.966 0 1 0 0 1.931h1.532l-1.536 1.536a.966.966 0 1 0 1.366 1.366l1.536-1.536v1.532a.966.966 0 1 0 1.931 0v-3.464l5.515-5.514v2.335l-.4.4-2.049 2.05a.966.966 0 1 0 1.366 1.365l1.083-1.083v2.732l-.4.4-2.049 2.049a.966.966 0 0 0 1.366 1.366l1.083-1.084v2.172a.966.966 0 0 0 1.932 0v-2.171l1.083 1.082a.966.966 0 1 0 1.366-1.365l-2.05-2.05-.4-.4V23.4l1.084 1.082a.966.966 0 1 0 1.366-1.366l-2.05-2.049-.4-.4v-2.335l1.652 1.651a.966.966 0 1 1 1.366-1.366l-1.651-1.651h2.335Z" fill="#7ACDF9"/></g></g><defs><clipPath id="a"><path fill="#fff" d="M0 0h32v32H0z"/></clipPath></defs></svg>