<svg width="40" height="40" viewBox="0 0 40 40" fill="none" xmlns="http://www.w3.org/2000/svg">
<g clip-path="url(#clip0_1987_7772)">
<path d="M9.73973 21.9216C8.31141 20.5683 2.59993 20.13 0.883335 20.0283C0.643342 20.025 0.428348 20.0967 0.261712 20.2533C0.0949974 20.41 0 20.63 0 20.86V35.8596C0 36.3196 0.373349 36.6929 0.833337 36.6929H5.8332C6.19319 36.6929 6.51318 36.4596 6.62482 36.1179C6.74646 35.7446 9.6181 26.9316 9.99637 22.5983C10.0181 22.345 9.92473 22.095 9.73973 21.9216ZM5.22486 35.0263H1.6666V21.7533C4.34488 21.965 7.2348 22.425 8.28477 22.935C7.84315 26.5849 5.84484 33.0697 5.22486 35.0263Z" fill="#1B1918"/>
<path d="M39.9123 32.1517C38.7539 29.8367 36.1924 28.6584 33.6824 29.2867L27.2976 30.8833C26.851 30.995 26.5793 31.4467 26.691 31.8933C26.8026 32.3399 27.2543 32.6133 27.701 32.4999L34.0858 30.9066C35.5424 30.5433 37.0257 31.0533 37.944 32.1666L29.6826 35.9231C22.6762 38.7947 22.4345 38.703 19.4296 37.5697L6.9299 33.4032C6.49155 33.2582 6.02156 33.4932 5.87657 33.9298C5.73157 34.3664 5.96656 34.8382 6.40319 34.9832L18.8712 39.138C20.2728 39.6664 21.2395 39.973 22.3261 39.973C24.0161 39.973 25.996 39.2347 30.3459 37.4497L39.5123 33.2832C39.7173 33.1898 39.8773 33.0166 39.9523 32.8032C40.0273 32.5884 40.0139 32.355 39.9123 32.1517Z" fill="#1B1918"/>
<path d="M24.3459 26.7132L9.34634 23.3799C8.90135 23.2883 8.45136 23.5649 8.35136 24.0133C8.25301 24.4633 8.53472 24.9082 8.98471 25.0082L23.9627 28.3365C25.8092 28.7981 26.5509 29.5248 26.6526 31.0464L25.0526 31.4464C24.4593 31.5948 23.8293 31.6114 23.226 31.4898L15.9962 30.0432C15.5379 29.9482 15.1063 30.2448 15.0163 30.6965C14.9263 31.1482 15.2179 31.5865 15.6696 31.6765L22.901 33.1231C23.276 33.1981 23.661 33.2347 24.0444 33.2347C24.521 33.2347 24.9993 33.1764 25.4577 33.0614L27.701 32.5014C28.0726 32.408 28.3326 32.0748 28.3326 31.6931V31.4297C28.3325 28.8564 27.1109 27.4032 24.3459 26.7132Z" fill="#1B1918"/>
<path d="M28.1409 10.329C27.9826 10.1373 27.7476 10.0273 27.4993 10.0273H20.8328C20.5878 10.0273 20.3562 10.1357 20.1979 10.3223C19.8912 10.684 12.6714 19.2421 10.8898 23.8686C10.7248 24.297 10.9381 24.7786 11.3681 24.9452C11.7931 25.1102 12.2781 24.8969 12.4447 24.4669C13.948 20.5603 19.9295 13.2488 21.2228 11.6939H27.106C29.991 15.2271 36.6658 24.1185 36.6658 27.5268C36.6658 28.3351 36.5791 29.1334 36.4091 29.8984C36.3108 30.3484 36.5925 30.7933 37.0425 30.8933C37.1025 30.9067 37.1641 30.9133 37.2241 30.9133C37.6057 30.9133 37.9491 30.65 38.0357 30.2617C38.2324 29.3784 38.3324 28.4584 38.3324 27.5268C38.3324 22.7853 29.1843 11.5906 28.1409 10.329Z" fill="#1B1918"/>
<path d="M30.8326 10.0273H17.4996C17.0396 10.0273 16.6663 10.4007 16.6663 10.8607C16.6663 11.3207 17.0396 11.694 17.4996 11.694H30.8326C31.2926 11.694 31.6659 11.3207 31.6659 10.8607C31.6659 10.4007 31.2926 10.0273 30.8326 10.0273Z" fill="#1B1918"/>
<path d="M34.7906 1.14219C34.5556 0.875558 34.1122 0.557207 33.3456 0.557207C31.6707 0.557207 29.0074 2.17716 27.7208 3.0305C26.7708 1.68054 25.3625 0.0272217 24.1659 0.0272217C22.9693 0.0272217 21.5609 1.68054 20.611 3.03214C19.3244 2.1788 16.6611 0.558848 14.9861 0.558848C14.2178 0.558848 13.7762 0.877199 13.5412 1.14383C13.1628 1.57218 12.9912 2.12881 13.0462 2.75379C13.3145 5.8387 19.5976 10.9402 20.3126 11.5119C20.4593 11.6285 20.6443 11.6935 20.8326 11.6935H27.4991C27.6875 11.6935 27.8725 11.6285 28.0191 11.5102C28.7341 10.9402 35.0173 5.8387 35.2856 2.75207C35.3406 2.12716 35.1689 1.57054 34.7906 1.14219ZM33.624 2.60887C33.4723 4.34718 29.7007 7.99536 27.2042 10.027H21.126C18.631 7.99544 14.8578 4.34554 14.7061 2.60723C14.6861 2.36388 14.7595 2.2806 14.7761 2.25388C14.7895 2.24552 14.8528 2.22388 14.9811 2.22388C16.1977 2.22388 18.916 3.8472 20.3426 4.87045C20.531 5.0038 20.7592 5.05208 20.9842 5.01209C21.2092 4.96873 21.4059 4.83709 21.5292 4.64546C22.4742 3.18214 23.7408 1.77389 24.1408 1.69218C24.5824 1.77381 25.8491 3.18214 26.7957 4.64546C26.9207 4.83709 27.1174 4.97045 27.3407 5.01209C27.5673 5.05208 27.7973 5.00373 27.9823 4.87045C29.4107 3.84712 32.1289 2.22388 33.3438 2.22388C33.4688 2.22388 33.5338 2.24552 33.5388 2.24552C33.5706 2.28216 33.6456 2.36552 33.624 2.60887Z" fill="#1B1918"/>
<path d="M28.0462 16.738H23.3206V18.7576H27.3814V20.5447H23.3206V22.0703H25.5027V23.654H23.3206V25.0778H21.3408V23.654H20.1558V22.0703H21.3408V14.9219H28.0462V16.738Z" fill="#1B1918"/>
</g>
<defs>
<clipPath id="clip0_1987_7772">
<rect width="40" height="40" fill="white"/>
</clipPath>
</defs>
</svg>
