<svg width="40" height="40" viewBox="0 0 40 40" fill="none" xmlns="http://www.w3.org/2000/svg">
<path d="M34.9397 5.30116H31.5662V1.92773C31.5663 0.86742 30.6987 0 29.6389 0H5.06022C3.99999 0 3.13257 0.86742 3.13257 1.92773V32.771C3.13257 33.8313 3.99999 34.6988 5.0603 34.6988H8.43381V38.0723C8.43381 39.1325 9.30084 40 10.3615 40H26.7466C27.8064 40 29.3061 39.4053 30.0777 38.6791L35.4627 33.6102C36.2352 32.8839 36.8666 31.4217 36.8666 30.3615L36.8675 7.22905C36.8674 6.16866 35.9999 5.30116 34.9397 5.30116ZM8.43365 7.22897V33.253H5.06022C4.79905 33.253 4.57835 33.0323 4.57835 32.7711V1.92773C4.57835 1.66656 4.79905 1.44586 5.06022 1.44586H29.639C29.8997 1.44586 30.1209 1.66656 30.1209 1.92773V5.30124H10.3614C9.30068 5.30124 8.43365 6.16866 8.43365 7.22897ZM34.4718 32.5575L29.0867 37.626C28.9764 37.7297 28.8328 37.8313 28.6742 37.9281V33.4939C28.6742 33.1628 28.8077 32.8649 29.0279 32.6433C29.2501 32.4231 29.5479 32.2892 29.879 32.2892H34.7007C34.6259 32.3907 34.5494 32.4842 34.4718 32.5575ZM35.4206 30.3613C35.4206 30.5045 35.3945 30.6703 35.3551 30.8432H29.8789C28.4163 30.8461 27.2313 32.0312 27.2283 33.4938V38.4957C27.0563 38.5305 26.8905 38.554 26.7464 38.554H10.3614V38.5541C10.0997 38.5541 9.87951 38.3334 9.87951 38.0722V7.22889C9.87951 6.96772 10.0997 6.74702 10.3614 6.74702H34.9396C35.2008 6.74702 35.4215 6.96772 35.4215 7.22889L35.4206 30.3613Z" fill="black"/>
<path d="M29.6392 12.0479H15.6633C15.2638 12.0479 14.9404 12.3712 14.9404 12.7707C14.9404 13.1703 15.2639 13.4936 15.6633 13.4936H29.6392C30.0382 13.4936 30.362 13.1703 30.362 12.7707C30.362 12.3712 30.0382 12.0479 29.6392 12.0479Z" fill="black"/>
<path d="M29.6392 21.6866H15.6633C15.2638 21.6866 14.9404 22.01 14.9404 22.4095C14.9404 22.8091 15.2639 23.1324 15.6633 23.1324H29.6392C30.0382 23.1324 30.362 22.8091 30.362 22.4095C30.362 22.0099 30.0382 21.6866 29.6392 21.6866Z" fill="black"/>
<path d="M23.3741 26.506H15.6633C15.2638 26.506 14.9404 26.8293 14.9404 27.2289C14.9404 27.6284 15.2638 27.9518 15.6633 27.9518H23.3741C23.7731 27.9518 24.0965 27.6284 24.0965 27.2289C24.0965 26.8293 23.7731 26.506 23.3741 26.506Z" fill="black"/>
<path d="M29.6392 16.8674H15.6633C15.2638 16.8674 14.9404 17.1908 14.9404 17.5903C14.9404 17.9899 15.2639 18.3132 15.6633 18.3132H29.6392C30.0382 18.3132 30.362 17.9899 30.362 17.5903C30.362 17.1908 30.0382 16.8674 29.6392 16.8674Z" fill="black"/>
</svg>
