<svg width="40" height="40" viewBox="0 0 40 40" fill="none" xmlns="http://www.w3.org/2000/svg">
<g clip-path="url(#clip0_1987_7853)">
<path d="M36.7969 39.9219H3.20312C1.48 39.9219 0.078125 38.52 0.078125 36.7969V6.32812C0.078125 4.605 1.48 3.20312 3.20312 3.20312H5.54688C5.97828 3.20312 6.32812 3.55297 6.32812 3.98438V5.50961C6.32812 5.94609 6.66563 6.31305 7.08063 6.32758C7.51391 6.34633 7.89062 5.99766 7.89062 5.54688V3.98438C7.89062 3.55297 8.24039 3.20312 8.67188 3.20312H14.1406C14.572 3.20312 14.9219 3.55297 14.9219 3.98438V5.50961C14.9219 5.94609 15.2594 6.31305 15.6744 6.32758C16.1106 6.34633 16.4844 5.99453 16.4844 5.54688V3.98438C16.4844 3.55297 16.8341 3.20312 17.2656 3.20312H22.7344C23.1658 3.20312 23.5156 3.55297 23.5156 3.98438V5.50961C23.5156 5.94609 23.8531 6.31305 24.2681 6.32758C24.7002 6.34625 25.0781 5.99859 25.0781 5.54688V3.98438C25.0781 3.55297 25.428 3.20312 25.8594 3.20312H31.3281C31.7595 3.20312 32.1094 3.55297 32.1094 3.98438V5.50961C32.1094 5.94609 32.4469 6.31305 32.8619 6.32758C33.2966 6.34633 33.6719 5.99625 33.6719 5.54688V3.98438C33.6719 3.55297 34.0217 3.20312 34.4531 3.20312H36.7969C38.52 3.20312 39.9219 4.605 39.9219 6.32812V36.7969C39.9219 38.52 38.52 39.9219 36.7969 39.9219ZM3.20312 4.76562C2.34156 4.76562 1.64062 5.46656 1.64062 6.32812V36.7969C1.64062 37.6584 2.34156 38.3594 3.20312 38.3594H36.7969C37.6584 38.3594 38.3594 37.6584 38.3594 36.7969V6.32812C38.3594 5.46656 37.6584 4.76562 36.7969 4.76562H35.2344V5.54688C35.2344 6.87219 34.1403 7.93508 32.8072 7.88914C31.5397 7.84477 30.5469 6.79953 30.5469 5.50961V4.76562H26.6406V5.54688C26.6406 6.87289 25.5458 7.93508 24.2134 7.88914C22.9459 7.84477 21.9531 6.79953 21.9531 5.50961V4.76562H18.0469V5.54688C18.0469 6.87117 16.9537 7.93516 15.6197 7.88914C14.3522 7.84477 13.3594 6.79953 13.3594 5.50961V4.76562H9.45312V5.54688C9.45312 6.86875 8.36258 7.93516 7.02594 7.88914C5.75844 7.84477 4.76562 6.79953 4.76562 5.50961V4.76562H3.20312Z" fill="black"/>
<path d="M39.1406 12.5781H0.859375C0.427891 12.5781 0.078125 12.2284 0.078125 11.7969C0.078125 11.3654 0.427891 11.0156 0.859375 11.0156H39.1406C39.572 11.0156 39.9219 11.3654 39.9219 11.7969C39.9219 12.2284 39.572 12.5781 39.1406 12.5781Z" fill="black"/>
<path d="M32.8906 7.89062C31.5983 7.89062 30.5469 6.83922 30.5469 5.54688V2.42188C30.5469 1.12953 31.5983 0.078125 32.8906 0.078125C34.1856 0.078125 35.2344 1.12695 35.2344 2.42188V5.54688C35.2344 6.83922 34.183 7.89062 32.8906 7.89062ZM32.8906 1.64062C32.4598 1.64062 32.1094 1.99109 32.1094 2.42188V5.54688C32.1094 5.97766 32.4598 6.32812 32.8906 6.32812C33.3214 6.32812 33.6719 5.97766 33.6719 5.54688V2.42188C33.6719 1.9907 33.322 1.64062 32.8906 1.64062Z" fill="black"/>
<path d="M24.2969 7.89062C23.0045 7.89062 21.9531 6.83922 21.9531 5.54688V2.42188C21.9531 1.12953 23.0045 0.078125 24.2969 0.078125C25.5919 0.078125 26.6406 1.12695 26.6406 2.42188V5.54688C26.6406 6.83922 25.5892 7.89062 24.2969 7.89062ZM24.2969 1.64062C23.8661 1.64062 23.5156 1.99109 23.5156 2.42188V5.54688C23.5156 5.97766 23.8661 6.32812 24.2969 6.32812C24.7277 6.32812 25.0781 5.97766 25.0781 5.54688V2.42188C25.0781 1.9907 24.7282 1.64062 24.2969 1.64062Z" fill="black"/>
<path d="M15.7031 7.89062C14.4108 7.89062 13.3594 6.83922 13.3594 5.54688V2.42188C13.3594 1.12953 14.4108 0.078125 15.7031 0.078125C16.9981 0.078125 18.0469 1.12695 18.0469 2.42188V5.54688C18.0469 6.83922 16.9955 7.89062 15.7031 7.89062ZM15.7031 1.64062C15.2723 1.64062 14.9219 1.99109 14.9219 2.42188V5.54688C14.9219 5.97766 15.2723 6.32812 15.7031 6.32812C16.1339 6.32812 16.4844 5.97766 16.4844 5.54688V2.42188C16.4844 1.9907 16.1345 1.64062 15.7031 1.64062Z" fill="black"/>
<path d="M7.10938 7.89062C5.81703 7.89062 4.76562 6.83922 4.76562 5.54688V2.42188C4.76562 1.12953 5.81703 0.078125 7.10938 0.078125C8.4043 0.078125 9.45312 1.12695 9.45312 2.42188V5.54688C9.45312 6.83922 8.40172 7.89062 7.10938 7.89062ZM7.10938 1.64062C6.67859 1.64062 6.32812 1.99109 6.32812 2.42188V5.54688C6.32812 5.97766 6.67859 6.32812 7.10938 6.32812C7.54016 6.32812 7.89062 5.97766 7.89062 5.54688V2.42188C7.89062 1.9907 7.5407 1.64062 7.10938 1.64062Z" fill="black"/>
<path d="M10.2344 20.3906H6.32812C5.89664 20.3906 5.54688 20.0408 5.54688 19.6094V15.7031C5.54688 15.2716 5.89664 14.9219 6.32812 14.9219H10.2344C10.6658 14.9219 11.0156 15.2716 11.0156 15.7031V19.6094C11.0156 20.0408 10.6658 20.3906 10.2344 20.3906ZM7.10938 18.8281H9.45312V16.4844H7.10938V18.8281Z" fill="black"/>
<path d="M18.0469 20.3906H14.1406C13.7091 20.3906 13.3594 20.0408 13.3594 19.6094V15.7031C13.3594 15.2716 13.7091 14.9219 14.1406 14.9219H18.0469C18.4784 14.9219 18.8281 15.2716 18.8281 15.7031V19.6094C18.8281 20.0408 18.4784 20.3906 18.0469 20.3906ZM14.9219 18.8281H17.2656V16.4844H14.9219V18.8281Z" fill="black"/>
<path d="M25.8594 20.3906H21.9531C21.5217 20.3906 21.1719 20.0408 21.1719 19.6094V15.7031C21.1719 15.2716 21.5217 14.9219 21.9531 14.9219H25.8594C26.2908 14.9219 26.6406 15.2716 26.6406 15.7031V19.6094C26.6406 20.0408 26.2908 20.3906 25.8594 20.3906ZM22.7344 18.8281H25.0781V16.4844H22.7344V18.8281Z" fill="black"/>
<path d="M33.6719 20.3906H29.7656C29.3342 20.3906 28.9844 20.0408 28.9844 19.6094V15.7031C28.9844 15.2716 29.3342 14.9219 29.7656 14.9219H33.6719C34.1033 14.9219 34.4531 15.2716 34.4531 15.7031V19.6094C34.4531 20.0408 34.1033 20.3906 33.6719 20.3906ZM30.5469 18.8281H32.8906V16.4844H30.5469V18.8281Z" fill="black"/>
<path d="M25.8594 28.2031H21.9531C21.5217 28.2031 21.1719 27.8533 21.1719 27.4219V23.5156C21.1719 23.0842 21.5217 22.7344 21.9531 22.7344H25.8594C26.2908 22.7344 26.6406 23.0842 26.6406 23.5156V27.4219C26.6406 27.8533 26.2908 28.2031 25.8594 28.2031ZM22.7344 26.6406H25.0781V24.2969H22.7344V26.6406Z" fill="black"/>
<path d="M33.6719 28.2031H29.7656C29.3342 28.2031 28.9844 27.8533 28.9844 27.4219V23.5156C28.9844 23.0842 29.3342 22.7344 29.7656 22.7344H33.6719C34.1033 22.7344 34.4531 23.0842 34.4531 23.5156V27.4219C34.4531 27.8533 34.1033 28.2031 33.6719 28.2031ZM30.5469 26.6406H32.8906V24.2969H30.5469V26.6406Z" fill="black"/>
<path d="M25.8594 36.0156H21.9531C21.5217 36.0156 21.1719 35.6658 21.1719 35.2344V31.3281C21.1719 30.8967 21.5217 30.5469 21.9531 30.5469H25.8594C26.2908 30.5469 26.6406 30.8967 26.6406 31.3281V35.2344C26.6406 35.6658 26.2908 36.0156 25.8594 36.0156ZM22.7344 34.4531H25.0781V32.1094H22.7344V34.4531Z" fill="black"/>
<path d="M33.6719 36.0156H29.7656C29.3342 36.0156 28.9844 35.6658 28.9844 35.2344V31.3281C28.9844 30.8967 29.3342 30.5469 29.7656 30.5469H33.6719C34.1033 30.5469 34.4531 30.8967 34.4531 31.3281V35.2344C34.4531 35.6658 34.1033 36.0156 33.6719 36.0156ZM30.5469 34.4531H32.8906V32.1094H30.5469V34.4531Z" fill="black"/>
<path d="M10.2344 28.2031H6.32812C5.89664 28.2031 5.54688 27.8533 5.54688 27.4219V23.5156C5.54688 23.0842 5.89664 22.7344 6.32812 22.7344H10.2344C10.6658 22.7344 11.0156 23.0842 11.0156 23.5156V27.4219C11.0156 27.8533 10.6658 28.2031 10.2344 28.2031ZM7.10938 26.6406H9.45312V24.2969H7.10938V26.6406Z" fill="black"/>
<path d="M18.0469 28.2031H14.1406C13.7091 28.2031 13.3594 27.8533 13.3594 27.4219V23.5156C13.3594 23.0842 13.7091 22.7344 14.1406 22.7344H18.0469C18.4784 22.7344 18.8281 23.0842 18.8281 23.5156V27.4219C18.8281 27.8533 18.4784 28.2031 18.0469 28.2031ZM14.9219 26.6406H17.2656V24.2969H14.9219V26.6406Z" fill="black"/>
<path d="M10.2344 36.0156H6.32812C5.89664 36.0156 5.54688 35.6658 5.54688 35.2344V31.3281C5.54688 30.8967 5.89664 30.5469 6.32812 30.5469H10.2344C10.6658 30.5469 11.0156 30.8967 11.0156 31.3281V35.2344C11.0156 35.6658 10.6658 36.0156 10.2344 36.0156ZM7.10938 34.4531H9.45312V32.1094H7.10938V34.4531Z" fill="black"/>
<path d="M18.0469 36.0156H14.1406C13.7091 36.0156 13.3594 35.6658 13.3594 35.2344V31.3281C13.3594 30.8967 13.7091 30.5469 14.1406 30.5469H18.0469C18.4784 30.5469 18.8281 30.8967 18.8281 31.3281V35.2344C18.8281 35.6658 18.4784 36.0156 18.0469 36.0156ZM14.9219 34.4531H17.2656V32.1094H14.9219V34.4531Z" fill="black"/>
</g>
<defs>
<clipPath id="clip0_1987_7853">
<rect width="40" height="40" fill="white"/>
</clipPath>
</defs>
</svg>
