<svg width="40" height="40" viewBox="0 0 40 40" fill="none" xmlns="http://www.w3.org/2000/svg">
<g clip-path="url(#clip0_1987_7823)">
<path d="M38.5 21.1586C37.8363 20.7412 37.0493 20.5646 36.2709 20.6587C35.4925 20.7528 34.7701 21.1117 34.225 21.6753L28.4833 27.417C28.2848 26.7228 27.8663 26.1119 27.2907 25.6761C26.7151 25.2403 26.0136 25.0031 25.2917 25.0003C15.5083 25.0003 13.625 24.592 10 26.442V25.0003C10 24.7793 9.9122 24.5673 9.75592 24.411C9.59964 24.2548 9.38768 24.167 9.16667 24.167H0.833333C0.61232 24.167 0.400358 24.2548 0.244078 24.411C0.0877974 24.5673 0 24.7793 0 25.0003L0 39.167C0 39.388 0.0877974 39.5999 0.244078 39.7562C0.400358 39.9125 0.61232 40.0003 0.833333 40.0003H9.16667C9.38768 40.0003 9.59964 39.9125 9.75592 39.7562C9.9122 39.5999 10 39.388 10 39.167V38.3336H23.8917C24.8719 38.3337 25.8426 38.1402 26.7478 37.7641C27.6531 37.388 28.4751 36.8367 29.1667 36.142L39 26.3086C39.3527 25.9604 39.6233 25.5378 39.7921 25.0718C39.9608 24.6058 40.0236 24.108 39.9757 23.6146C39.9278 23.1213 39.7705 22.6448 39.5152 22.22C39.2599 21.7951 38.9131 21.4325 38.5 21.1586ZM8.33333 38.3336H1.66667V25.8336H8.33333V38.3336ZM37.85 25.1253L28.0083 35.0003C27.4658 35.5357 26.8228 35.9585 26.1164 36.2445C25.4099 36.5306 24.6538 36.6741 23.8917 36.667H10V28.3336C11.7738 27.2271 13.8261 26.649 15.9167 26.667C26.2083 26.667 25.8083 26.492 26.475 27.1586C26.7072 27.3922 26.865 27.6893 26.9284 28.0124C26.9919 28.3356 26.9582 28.6703 26.8316 28.9743C26.705 29.2783 26.4912 29.538 26.2171 29.7206C25.943 29.9032 25.621 30.0005 25.2917 30.0003H18C17.779 30.0003 17.567 30.0881 17.4107 30.2444C17.2545 30.4006 17.1667 30.6126 17.1667 30.8336C17.1667 31.0546 17.2545 31.2666 17.4107 31.4229C17.567 31.5792 17.779 31.667 18 31.667H25.2917C25.8748 31.6649 26.4472 31.5099 26.9517 31.2174C27.4562 30.925 27.8751 30.5053 28.1667 30.0003C28.4083 29.9003 27.8 30.467 35.4 22.867C35.6745 22.5776 36.0388 22.3896 36.4338 22.3336C36.8287 22.2777 37.2309 22.3569 37.575 22.5586C37.7819 22.6937 37.9562 22.873 38.0852 23.0837C38.2143 23.2944 38.2949 23.5311 38.3212 23.7767C38.3475 24.0224 38.3189 24.2708 38.2374 24.5041C38.1559 24.7373 38.0236 24.9495 37.85 25.1253Z" fill="black"/>
<path d="M4.16675 23.3334H30.8334C31.2549 23.3322 31.6692 23.2244 32.0379 23.0202C32.4066 22.8159 32.7177 22.5217 32.9422 22.165C33.1667 21.8083 33.2974 21.4006 33.3221 20.9798C33.3467 20.5591 33.2647 20.1389 33.0834 19.7584C34.2918 18.575 32.3667 6.81669 21.6417 3.92503C21.5295 2.90503 21.0448 1.96232 20.2806 1.27755C19.5163 0.592778 18.5262 0.214111 17.5001 0.214111C16.4739 0.214111 15.4839 0.592778 14.7196 1.27755C13.9553 1.96232 13.4707 2.90503 13.3584 3.92503C10.0085 4.83291 7.04961 6.81638 4.93714 9.57028C2.82467 12.3242 1.6756 15.6959 1.66675 19.1667C1.66721 19.2769 1.68954 19.386 1.73245 19.4876C1.77537 19.5891 1.83801 19.6812 1.91675 19.7584C1.73551 20.1389 1.65342 20.5591 1.67811 20.9798C1.7028 21.4006 1.83348 21.8083 2.05799 22.165C2.2825 22.5217 2.59355 22.8159 2.96223 23.0202C3.33092 23.2244 3.74526 23.3322 4.16675 23.3334ZM30.8334 21.6667H4.16675C3.94573 21.6667 3.73377 21.5789 3.57749 21.4226C3.42121 21.2663 3.33341 21.0544 3.33341 20.8334C3.33341 20.6123 3.42121 20.4004 3.57749 20.2441C3.73377 20.0878 3.94573 20 4.16675 20H30.8334C31.0544 20 31.2664 20.0878 31.4227 20.2441C31.579 20.4004 31.6667 20.6123 31.6667 20.8334C31.6667 21.0544 31.579 21.2663 31.4227 21.4226C31.2664 21.5789 31.0544 21.6667 30.8334 21.6667ZM19.9084 3.53336C18.3139 3.26669 16.6862 3.26669 15.0917 3.53336C15.2383 3.00726 15.5531 2.54361 15.988 2.21329C16.4229 1.88296 16.954 1.70413 17.5001 1.70413C18.0462 1.70413 18.5773 1.88296 19.0122 2.21329C19.4471 2.54361 19.7619 3.00726 19.9084 3.53336ZM17.5001 5.00003C21.1173 4.99376 24.5999 6.37139 27.2339 8.85051C29.868 11.3296 31.454 14.7224 31.6667 18.3334H3.33341C3.54619 14.7224 5.13216 11.3296 7.76622 8.85051C10.4003 6.37139 13.8829 4.99376 17.5001 5.00003Z" fill="black"/>
</g>
<defs>
<clipPath id="clip0_1987_7823">
<rect width="40" height="40" fill="white"/>
</clipPath>
</defs>
</svg>
