<svg width="268" height="77" viewBox="0 0 268 77" fill="none" xmlns="http://www.w3.org/2000/svg">
<path d="M82.9325 6.292H85.6825V22H82.9325V6.292ZM88.2636 10.626H90.6396V12.298L90.6836 12.342C91.0649 11.7113 91.5636 11.22 92.1796 10.868C92.7956 10.5013 93.4776 10.318 94.2256 10.318C95.4723 10.318 96.4549 10.6407 97.1736 11.286C97.8923 11.9313 98.2516 12.8993 98.2516 14.19V22H95.7436V14.85C95.7143 13.9553 95.5236 13.31 95.1716 12.914C94.8196 12.5033 94.2696 12.298 93.5216 12.298C93.0963 12.298 92.7149 12.3787 92.3776 12.54C92.0403 12.6867 91.7543 12.8993 91.5196 13.178C91.2849 13.442 91.1016 13.7573 90.9696 14.124C90.8376 14.4907 90.7716 14.8793 90.7716 15.29V22H88.2636V10.626ZM99.3124 10.626H101.204V7.216H103.712V10.626H105.978V12.496H103.712V18.568C103.712 18.832 103.72 19.0593 103.734 19.25C103.764 19.4407 103.815 19.602 103.888 19.734C103.976 19.866 104.101 19.9687 104.262 20.042C104.424 20.1007 104.644 20.13 104.922 20.13C105.098 20.13 105.274 20.13 105.45 20.13C105.626 20.1153 105.802 20.086 105.978 20.042V21.978C105.7 22.0073 105.428 22.0367 105.164 22.066C104.9 22.0953 104.629 22.11 104.35 22.11C103.69 22.11 103.155 22.0513 102.744 21.934C102.348 21.802 102.033 21.6187 101.798 21.384C101.578 21.1347 101.424 20.8267 101.336 20.46C101.263 20.0933 101.219 19.6753 101.204 19.206V12.496H99.3124V10.626ZM115.153 15.312C115.123 14.916 115.035 14.5347 114.889 14.168C114.757 13.8013 114.566 13.486 114.317 13.222C114.082 12.9433 113.789 12.7233 113.437 12.562C113.099 12.386 112.718 12.298 112.293 12.298C111.853 12.298 111.449 12.3787 111.083 12.54C110.731 12.6867 110.423 12.8993 110.159 13.178C109.909 13.442 109.704 13.7573 109.543 14.124C109.396 14.4907 109.315 14.8867 109.301 15.312H115.153ZM109.301 16.962C109.301 17.402 109.359 17.8273 109.477 18.238C109.609 18.6487 109.799 19.008 110.049 19.316C110.298 19.624 110.613 19.8733 110.995 20.064C111.376 20.24 111.831 20.328 112.359 20.328C113.092 20.328 113.679 20.174 114.119 19.866C114.573 19.5433 114.911 19.0667 115.131 18.436H117.507C117.375 19.052 117.147 19.602 116.825 20.086C116.502 20.57 116.113 20.9807 115.659 21.318C115.204 21.6407 114.691 21.8827 114.119 22.044C113.561 22.22 112.975 22.308 112.359 22.308C111.464 22.308 110.672 22.1613 109.983 21.868C109.293 21.5747 108.707 21.164 108.223 20.636C107.753 20.108 107.394 19.4773 107.145 18.744C106.91 18.0107 106.793 17.204 106.793 16.324C106.793 15.5173 106.917 14.7547 107.167 14.036C107.431 13.3027 107.797 12.6647 108.267 12.122C108.751 11.5647 109.33 11.1247 110.005 10.802C110.679 10.4793 111.442 10.318 112.293 10.318C113.187 10.318 113.987 10.5087 114.691 10.89C115.409 11.2567 116.003 11.748 116.473 12.364C116.942 12.98 117.279 13.6913 117.485 14.498C117.705 15.29 117.763 16.1113 117.661 16.962H109.301ZM129.643 21.406C129.643 23.122 129.159 24.398 128.191 25.234C127.238 26.0847 125.859 26.51 124.055 26.51C123.483 26.51 122.904 26.4513 122.317 26.334C121.745 26.2167 121.217 26.0187 120.733 25.74C120.264 25.4613 119.868 25.0947 119.545 24.64C119.223 24.1853 119.032 23.628 118.973 22.968H121.481C121.555 23.32 121.679 23.606 121.855 23.826C122.031 24.046 122.237 24.2147 122.471 24.332C122.721 24.464 122.992 24.5447 123.285 24.574C123.579 24.618 123.887 24.64 124.209 24.64C125.221 24.64 125.962 24.3907 126.431 23.892C126.901 23.3933 127.135 22.6747 127.135 21.736V19.998H127.091C126.739 20.6287 126.255 21.12 125.639 21.472C125.038 21.824 124.385 22 123.681 22C122.772 22 121.995 21.846 121.349 21.538C120.719 21.2153 120.191 20.7827 119.765 20.24C119.355 19.6827 119.054 19.0447 118.863 18.326C118.673 17.6073 118.577 16.8373 118.577 16.016C118.577 15.2533 118.695 14.5273 118.929 13.838C119.164 13.1487 119.501 12.5473 119.941 12.034C120.381 11.506 120.917 11.088 121.547 10.78C122.193 10.472 122.919 10.318 123.725 10.318C124.444 10.318 125.104 10.472 125.705 10.78C126.307 11.0733 126.769 11.5427 127.091 12.188H127.135V10.626H129.643V21.406ZM124.077 20.02C124.635 20.02 125.104 19.91 125.485 19.69C125.881 19.4553 126.197 19.1547 126.431 18.788C126.681 18.4067 126.857 17.9813 126.959 17.512C127.077 17.028 127.135 16.544 127.135 16.06C127.135 15.576 127.077 15.1067 126.959 14.652C126.842 14.1973 126.659 13.794 126.409 13.442C126.175 13.09 125.859 12.8113 125.463 12.606C125.082 12.4007 124.62 12.298 124.077 12.298C123.52 12.298 123.051 12.4153 122.669 12.65C122.288 12.8847 121.98 13.1927 121.745 13.574C121.511 13.9407 121.342 14.366 121.239 14.85C121.137 15.3193 121.085 15.7887 121.085 16.258C121.085 16.7273 121.144 17.1893 121.261 17.644C121.379 18.084 121.555 18.48 121.789 18.832C122.039 19.184 122.347 19.47 122.713 19.69C123.095 19.91 123.549 20.02 124.077 20.02ZM131.728 10.626H134.082V12.826H134.126C134.2 12.518 134.339 12.2173 134.544 11.924C134.764 11.6307 135.021 11.3667 135.314 11.132C135.622 10.8827 135.96 10.6847 136.326 10.538C136.693 10.3913 137.067 10.318 137.448 10.318C137.742 10.318 137.94 10.3253 138.042 10.34C138.16 10.3547 138.277 10.3693 138.394 10.384V12.804C138.218 12.7747 138.035 12.7527 137.844 12.738C137.668 12.7087 137.492 12.694 137.316 12.694C136.891 12.694 136.488 12.782 136.106 12.958C135.74 13.1193 135.417 13.3687 135.138 13.706C134.86 14.0287 134.64 14.432 134.478 14.916C134.317 15.4 134.236 15.9573 134.236 16.588V22H131.728V10.626ZM148.549 19.47C148.549 19.778 148.585 19.998 148.659 20.13C148.747 20.262 148.908 20.328 149.143 20.328C149.216 20.328 149.304 20.328 149.407 20.328C149.509 20.328 149.627 20.3133 149.759 20.284V22.022C149.671 22.0513 149.553 22.0807 149.407 22.11C149.275 22.154 149.135 22.1907 148.989 22.22C148.842 22.2493 148.695 22.2713 148.549 22.286C148.402 22.3007 148.277 22.308 148.175 22.308C147.661 22.308 147.236 22.2053 146.899 22C146.561 21.7947 146.341 21.4353 146.239 20.922C145.74 21.406 145.124 21.758 144.391 21.978C143.672 22.198 142.975 22.308 142.301 22.308C141.787 22.308 141.296 22.2347 140.827 22.088C140.357 21.956 139.939 21.758 139.573 21.494C139.221 21.2153 138.935 20.8707 138.715 20.46C138.509 20.0347 138.407 19.5433 138.407 18.986C138.407 18.282 138.531 17.71 138.781 17.27C139.045 16.83 139.382 16.4853 139.793 16.236C140.218 15.9867 140.687 15.8107 141.201 15.708C141.729 15.5907 142.257 15.5027 142.785 15.444C143.239 15.356 143.672 15.2973 144.083 15.268C144.493 15.224 144.853 15.158 145.161 15.07C145.483 14.982 145.733 14.85 145.909 14.674C146.099 14.4833 146.195 14.2047 146.195 13.838C146.195 13.5153 146.114 13.2513 145.953 13.046C145.806 12.8407 145.615 12.6867 145.381 12.584C145.161 12.4667 144.911 12.3933 144.633 12.364C144.354 12.32 144.09 12.298 143.841 12.298C143.137 12.298 142.557 12.4447 142.103 12.738C141.648 13.0313 141.391 13.486 141.333 14.102H138.825C138.869 13.3687 139.045 12.76 139.353 12.276C139.661 11.792 140.049 11.4033 140.519 11.11C141.003 10.8167 141.545 10.6113 142.147 10.494C142.748 10.3767 143.364 10.318 143.995 10.318C144.552 10.318 145.102 10.3767 145.645 10.494C146.187 10.6113 146.671 10.802 147.097 11.066C147.537 11.33 147.889 11.6747 148.153 12.1C148.417 12.5107 148.549 13.0167 148.549 13.618V19.47ZM146.041 16.302C145.659 16.5513 145.19 16.7053 144.633 16.764C144.075 16.808 143.518 16.8813 142.961 16.984C142.697 17.028 142.44 17.094 142.191 17.182C141.941 17.2553 141.721 17.3653 141.531 17.512C141.34 17.644 141.186 17.8273 141.069 18.062C140.966 18.282 140.915 18.5533 140.915 18.876C140.915 19.1547 140.995 19.3893 141.157 19.58C141.318 19.7707 141.509 19.9247 141.729 20.042C141.963 20.1447 142.213 20.218 142.477 20.262C142.755 20.306 143.005 20.328 143.225 20.328C143.503 20.328 143.804 20.2913 144.127 20.218C144.449 20.1447 144.75 20.02 145.029 19.844C145.322 19.668 145.564 19.448 145.755 19.184C145.945 18.9053 146.041 18.568 146.041 18.172V16.302ZM149.663 10.626H151.555V7.216H154.063V10.626H156.329V12.496H154.063V18.568C154.063 18.832 154.071 19.0593 154.085 19.25C154.115 19.4407 154.166 19.602 154.239 19.734C154.327 19.866 154.452 19.9687 154.613 20.042C154.775 20.1007 154.995 20.13 155.273 20.13C155.449 20.13 155.625 20.13 155.801 20.13C155.977 20.1153 156.153 20.086 156.329 20.042V21.978C156.051 22.0073 155.779 22.0367 155.515 22.066C155.251 22.0953 154.98 22.11 154.701 22.11C154.041 22.11 153.506 22.0513 153.095 21.934C152.699 21.802 152.384 21.6187 152.149 21.384C151.929 21.1347 151.775 20.8267 151.687 20.46C151.614 20.0933 151.57 19.6753 151.555 19.206V12.496H149.663V10.626ZM157.759 6.292H160.267V8.668H157.759V6.292ZM157.759 10.626H160.267V22H157.759V10.626ZM167.774 22.308C166.865 22.308 166.051 22.1613 165.332 21.868C164.628 21.56 164.027 21.142 163.528 20.614C163.044 20.086 162.67 19.4553 162.406 18.722C162.157 17.9887 162.032 17.182 162.032 16.302C162.032 15.4367 162.157 14.6373 162.406 13.904C162.67 13.1707 163.044 12.54 163.528 12.012C164.027 11.484 164.628 11.0733 165.332 10.78C166.051 10.472 166.865 10.318 167.774 10.318C168.683 10.318 169.49 10.472 170.194 10.78C170.913 11.0733 171.514 11.484 171.998 12.012C172.497 12.54 172.871 13.1707 173.12 13.904C173.384 14.6373 173.516 15.4367 173.516 16.302C173.516 17.182 173.384 17.9887 173.12 18.722C172.871 19.4553 172.497 20.086 171.998 20.614C171.514 21.142 170.913 21.56 170.194 21.868C169.49 22.1613 168.683 22.308 167.774 22.308ZM167.774 20.328C168.331 20.328 168.815 20.2107 169.226 19.976C169.637 19.7413 169.974 19.4333 170.238 19.052C170.502 18.6707 170.693 18.2453 170.81 17.776C170.942 17.292 171.008 16.8007 171.008 16.302C171.008 15.818 170.942 15.334 170.81 14.85C170.693 14.366 170.502 13.9407 170.238 13.574C169.974 13.1927 169.637 12.8847 169.226 12.65C168.815 12.4153 168.331 12.298 167.774 12.298C167.217 12.298 166.733 12.4153 166.322 12.65C165.911 12.8847 165.574 13.1927 165.31 13.574C165.046 13.9407 164.848 14.366 164.716 14.85C164.599 15.334 164.54 15.818 164.54 16.302C164.54 16.8007 164.599 17.292 164.716 17.776C164.848 18.2453 165.046 18.6707 165.31 19.052C165.574 19.4333 165.911 19.7413 166.322 19.976C166.733 20.2107 167.217 20.328 167.774 20.328ZM175.161 10.626H177.537V12.298L177.581 12.342C177.962 11.7113 178.461 11.22 179.077 10.868C179.693 10.5013 180.375 10.318 181.123 10.318C182.37 10.318 183.352 10.6407 184.071 11.286C184.79 11.9313 185.149 12.8993 185.149 14.19V22H182.641V14.85C182.612 13.9553 182.421 13.31 182.069 12.914C181.717 12.5033 181.167 12.298 180.419 12.298C179.994 12.298 179.612 12.3787 179.275 12.54C178.938 12.6867 178.652 12.8993 178.417 13.178C178.182 13.442 177.999 13.7573 177.867 14.124C177.735 14.4907 177.669 14.8793 177.669 15.29V22H175.161V10.626Z" fill="black"/>
<path d="M66.4091 67.6411V56.5729L66.0967 50.1908L66.3199 50.1462L68.9084 55.8588L74.9781 66.9716L81.0031 55.8588L83.5916 50.1462L83.8148 50.1908L83.5024 56.5729V67.6411H89.9291V40.3722H82.699L75.0227 55.1447H74.9334L67.2571 40.3722H59.9824V67.6411H66.4091ZM256.354 60.7235C256.354 65.2311 258.808 67.6411 263.405 67.6411H267.377V62.0624H263.048V50.1462H267.734V44.6567H262.513V39.3904H256.354V60.7235ZM254.569 44.7013C254.569 44.7013 254.479 44.7013 253.497 44.7013C249.704 44.7013 247.919 47.2452 247.383 48.9858C247.294 48.9858 247.16 48.9858 247.16 48.9858V44.7013H240.466V67.6857H247.16C247.16 67.6857 247.16 54.9662 247.16 54.6092C247.16 53.2703 247.696 52.2884 248.32 51.7082C249.436 50.6371 251.802 50.3247 254.613 50.3247C254.569 48.004 254.569 44.7013 254.569 44.7013ZM188.561 44.7013C188.561 44.7013 188.472 44.7013 187.49 44.7013C183.696 44.7013 181.911 47.2452 181.376 48.9858C181.286 48.9858 181.152 48.9858 181.152 48.9858V44.7013H174.458V67.6857H181.152C181.152 67.6857 181.152 54.9662 181.152 54.6092C181.152 53.2703 181.688 52.2884 182.313 51.7082C183.429 50.6371 185.794 50.3247 188.606 50.3247C188.561 48.004 188.561 44.7013 188.561 44.7013ZM149.465 56.4836C149.465 48.9858 153.437 44.1211 160.578 44.1211C168.433 44.1211 171.602 49.7891 171.602 56.2158V58.1795H156.383V58.4027C156.383 61.0805 157.811 62.9103 161.605 62.9103C164.416 62.9103 165.934 61.6161 167.406 60.054L170.754 64.2046C168.611 66.6592 165.175 68.132 160.846 68.132C153.571 68.1766 149.465 64.0707 149.465 56.4836ZM156.383 53.9397V54.2968H164.684V53.8951C164.684 50.9942 163.39 49.0751 160.712 49.0751C158.034 49.0751 156.383 50.9941 156.383 53.9397ZM215.428 56.4836C215.428 48.8519 219.579 44.1211 226.541 44.1211C233.503 44.1211 237.654 48.8519 237.654 56.4836C237.654 64.1153 233.503 68.1766 226.541 68.1766C219.534 68.1766 215.428 64.1153 215.428 56.4836ZM230.647 58.2242V54.1182C230.647 51.128 229.13 49.4321 226.496 49.4321C223.863 49.4321 222.346 51.1727 222.346 54.1182V58.2242C222.346 61.2144 223.863 62.9103 226.496 62.9103C229.13 62.9103 230.647 61.2144 230.647 58.2242ZM143.128 39.3904H137.147V42.1574C137.147 43.8087 136.612 44.6567 134.782 44.6567H133.131V50.1462H136.478V60.7235C136.478 65.2311 138.933 67.6411 143.53 67.6411H147.502V62.0624H143.172V50.1462H147.859V44.6567H143.172L143.128 39.3904ZM126.526 39.3904H120.545V42.1574C120.545 43.8087 120.01 44.6567 118.18 44.6567H116.528V50.1462H119.876V60.7235C119.876 65.2311 122.33 67.6411 126.927 67.6411H130.899V62.0624H126.57V50.1462H131.256V44.6567H126.57L126.526 39.3904ZM203.958 44.1211C200.879 44.1211 198.29 45.9956 197.576 48.6288H197.353V44.6567H190.659V74.5587H197.353V63.669H197.576C198.246 66.2576 200.879 68.1766 203.958 68.1766C209.939 68.1766 213.063 64.517 213.063 56.4836C213.063 48.4949 209.939 44.1211 203.958 44.1211ZM206.101 58.5812C206.101 61.5714 204.226 62.7764 201.727 62.7764C199.228 62.7764 197.353 61.4822 197.353 59.2953V53.0025C197.353 50.8156 199.228 49.5214 201.727 49.5214C204.226 49.5214 206.101 51.4851 206.101 54.4306V58.5812ZM112.289 67.6411C109.879 67.6411 108.183 65.9898 107.781 63.4905H107.513C106.799 66.57 104.166 68.1766 100.551 68.1766C95.8202 68.1766 93.187 65.365 93.187 61.259C93.187 56.2605 97.0698 53.8505 103.318 53.8505H107.067V53.1364C107.067 50.8603 105.951 49.3875 103.139 49.3875C100.462 49.3875 99.0782 50.7264 98.0517 52.1991L94.0796 48.6734C95.9541 45.8617 98.6765 44.1658 103.63 44.1658C110.325 44.1658 113.761 47.2452 113.761 52.824V62.0624H115.948V67.6411H112.289ZM107.112 60.5003V57.6886H103.854C101.265 57.6886 99.9261 58.6259 99.9261 60.3664V61.0359C99.9261 62.7764 101.042 63.5351 103.05 63.5351C105.237 63.5351 107.112 62.6425 107.112 60.5003Z" fill="#222222"/>
<path d="M38.5602 31L22.4934 35.5076L6.4267 31L0 32.7852V74.2463L6.4267 76.0315L22.4934 71.5239L38.5602 76.0315L44.9869 74.2463V32.7852L38.5602 31ZM32.1335 61.9285L22.4934 59.2507L12.8534 61.9285V45.103L22.4934 47.7808L32.1335 45.103V61.9285Z" fill="#6D6D6D"/>
<path d="M22.4934 39.078V47.8255L6.4267 43.3179V76.0762L0 74.291V32.8298L22.4934 39.078ZM32.1335 65.5435L22.4934 62.8211V71.5685L38.5602 76.0762V43.3179L32.1335 45.103V65.5435Z" fill="#0E0708"/>
<path d="M38.5602 31L44.9869 32.7852L22.4934 39.078L0 32.7852L6.4267 31L22.4934 35.5076L38.5602 31ZM22.4934 59.2061L32.1335 61.9285V65.5435L22.4934 62.8211L12.8534 65.5435V61.9285L22.4934 59.2061Z" fill="#999999"/>
</svg>
