<svg width="367" height="367" viewBox="0 0 367 367" fill="none" xmlns="http://www.w3.org/2000/svg">
<rect width="367" height="367" fill="#F2DE01"/>
<path d="M225.618 275.998C224.61 275.998 223.099 275.998 222.091 275.495V271.474C223.099 271.977 224.61 271.977 225.618 271.977C227.125 271.977 228.132 271.474 228.132 269.966C228.132 267.452 221.084 268.96 221.084 263.431C221.084 259.912 223.603 257.901 228.132 257.901C229.139 257.901 230.147 257.901 231.154 258.404V261.923C230.147 261.42 229.139 261.42 228.132 261.42C226.117 261.42 225.618 261.923 225.618 262.928C225.618 265.441 232.661 264.436 232.661 269.463C233.165 273.484 230.651 275.998 225.618 275.998Z" fill="#1B1918"/>
<path d="M210.009 276C204.473 276 201.45 272.481 201.45 267.454C201.45 261.925 205.98 258.406 210.513 258.406C215.546 258.406 219.068 261.422 219.068 266.952C219.572 272.481 215.042 276 210.009 276ZM210.513 261.925C207.994 261.925 205.98 263.433 205.98 266.952C205.98 269.968 207.491 271.979 210.513 271.979C213.028 271.979 215.043 270.47 215.043 266.952C215.043 263.433 213.028 261.925 210.513 261.925Z" fill="#1B1918"/>
<path d="M194.905 275.497H189.872L183.328 258.406H187.862L190.88 266.449C191.384 267.957 191.887 269.465 192.391 270.973C192.895 269.465 193.399 267.454 193.902 266.449L196.92 258.406H201.45" fill="#1B1918"/>
<path d="M179.303 275.497L178.296 272.481H171.752L170.744 275.497H166.215L172.759 258.406H177.792L184.336 275.497H179.303ZM175.777 265.444C175.278 264.438 175.278 263.433 174.774 262.93C174.774 263.935 174.27 264.438 173.767 265.444L172.255 269.465H176.785L175.777 265.444Z" fill="#1B1918"/>
<path d="M155.644 275.497C153.126 275.497 151.614 275.497 150.107 275.497V258.406C151.614 258.406 154.637 258.406 156.652 258.406C162.189 258.406 165.71 260.919 165.71 266.952C165.71 272.984 161.181 275.497 155.644 275.497ZM156.148 261.422C155.644 261.422 154.637 261.422 154.133 261.422V271.476C154.637 271.476 155.141 271.476 156.148 271.476C159.166 271.476 161.685 269.968 161.685 266.449C161.181 263.433 159.67 261.422 156.148 261.422Z" fill="#1B1918"/>
<path fill-rule="evenodd" clip-rule="evenodd" d="M223.098 174.456C221.083 174.456 220.075 172.948 220.075 170.937C220.075 168.424 220.579 165.408 220.579 162.392C220.579 156.861 217.561 152.337 215.546 151.332C222.09 149.824 228.635 143.289 228.635 136.754C228.635 129.716 224.105 124.186 214.035 124.186H204.976C202.961 127.202 200.447 129.213 195.913 129.213L194.406 135.748C194.906 135.748 195.41 135.748 195.913 135.748C197.928 135.748 199.439 135.245 201.45 134.24L191.888 170.937H201.45L205.984 152.84C209.002 153.845 212.024 157.364 212.024 161.889C212.024 166.413 211.017 168.926 211.017 173.954C211.017 179.483 215.042 182.499 221.083 182.499C224.609 182.499 226.62 181.494 228.131 179.986L226.62 173.954C225.113 174.456 224.105 174.456 223.098 174.456ZM209.002 145.802H206.991L211.017 130.721H212.528C216.554 130.721 218.065 133.235 218.065 136.754C218.065 141.278 215.042 145.802 209.002 145.802Z" fill="#1B1918"/>
<path fill-rule="evenodd" clip-rule="evenodd" d="M263.365 158.369C263.365 151.331 267.395 146.304 271.421 146.304C273.436 146.304 275.446 147.812 276.454 148.818L278.469 141.78C276.958 140.775 273.939 139.266 270.917 139.266C261.858 139.266 254.307 148.818 254.307 158.369C254.307 165.91 259.34 170.937 265.884 170.937C268.403 170.937 270.413 170.434 271.421 169.931L273.436 162.893C272.428 163.899 270.917 163.899 268.902 163.899C265.38 163.899 263.365 162.391 263.365 158.369Z" fill="#1B1918"/>
<path fill-rule="evenodd" clip-rule="evenodd" d="M240.715 139.266C231.152 139.266 224.104 148.315 224.104 158.872C224.104 165.91 229.138 170.937 235.178 170.937C245.244 170.937 252.292 161.888 252.292 151.834C252.292 144.293 247.259 139.266 240.715 139.266ZM236.186 163.899C234.674 163.899 233.163 161.888 233.163 158.369C233.163 152.337 236.186 145.801 240.211 145.801C242.226 145.801 243.234 148.315 243.234 151.331C243.234 157.364 239.707 163.899 236.186 163.899Z" fill="#1B1918"/>
<path fill-rule="evenodd" clip-rule="evenodd" d="M302.128 173.952C300.113 173.952 299.613 172.946 299.613 170.936C299.613 169.93 299.613 168.925 299.613 167.919C299.613 164.4 298.102 160.882 295.583 159.373C301.12 158.368 307.664 153.844 307.664 146.806C307.664 142.784 304.646 139.266 299.613 139.266C296.591 139.266 293.573 140.773 291.558 142.784L296.591 123.682H287.028L274.947 170.936H284.51L287.028 161.384C289.543 161.887 291.558 163.898 291.558 167.417C291.558 169.93 291.054 171.438 291.054 173.952C291.054 178.476 294.576 181.492 299.613 181.492C302.128 181.492 304.646 180.487 306.153 179.482L304.646 173.449C304.143 173.449 303.135 173.952 302.128 173.952ZM288.535 155.352C289.543 150.828 293.573 145.8 297.094 145.8C298.606 145.8 299.613 146.806 299.613 147.811C299.109 151.833 294.576 155.352 288.535 155.352Z" fill="#1B1918"/>
<path fill-rule="evenodd" clip-rule="evenodd" d="M150.613 139.266C147.59 139.266 145.076 141.78 143.565 144.293L144.572 139.769H135.006L126.95 170.434H136.517L140.542 155.855C141.55 151.834 144.069 147.812 147.59 147.812C148.598 147.812 149.605 148.315 150.109 148.315L152.624 139.266C152.12 139.769 151.117 139.266 150.613 139.266Z" fill="#1B1918"/>
<path fill-rule="evenodd" clip-rule="evenodd" d="M171.751 142.782C170.743 141.274 168.229 139.766 165.71 139.766C157.151 139.766 150.107 149.82 150.107 160.879C150.107 166.912 154.637 171.436 159.166 171.436C162.692 171.436 165.207 169.425 166.718 167.414L165.71 171.436H173.766L185.847 124.685H176.28L171.751 142.782ZM162.692 163.896C160.677 163.896 159.67 161.885 159.67 158.869C159.67 153.339 162.692 146.804 166.718 146.804C168.229 146.804 169.736 148.815 169.736 151.831C169.736 156.858 166.718 163.896 162.692 163.896Z" fill="#1B1918"/>
<path fill-rule="evenodd" clip-rule="evenodd" d="M90.7064 123.682L86.1771 142.282H77.1142L82.1515 123.682H73.5923C71.5773 126.698 69.0629 128.709 64.5293 128.709L63.0224 135.244C63.5261 135.244 64.0298 135.244 64.5293 135.244C66.5443 135.244 68.0555 134.741 70.0704 133.736L60 170.936H69.5667L75.1035 150.325H83.6584L78.6254 170.936H88.192L100.273 124.184" fill="#1B1918"/>
<path fill-rule="evenodd" clip-rule="evenodd" d="M121.915 162.391C121.915 161.888 121.915 161.888 121.915 161.385L127.452 140.272H117.889L116.882 143.288C115.874 141.277 113.864 139.266 110.841 139.266C102.282 139.266 95.2383 148.818 95.2383 160.38C95.2383 166.412 99.7676 170.937 104.297 170.937C108.323 170.937 110.841 168.423 112.352 166.412C112.856 169.428 115.874 170.937 118.393 170.937C120.907 170.937 122.419 170.434 123.426 169.428L124.937 162.893C124.434 162.893 123.93 163.396 122.922 163.396C122.419 163.396 121.915 162.893 121.915 162.391ZM108.323 163.899C106.312 163.899 105.304 161.888 105.304 158.872C105.304 153.342 108.323 146.807 112.352 146.807C113.864 146.807 115.371 148.818 115.371 151.834C115.371 156.861 111.849 163.899 108.323 163.899Z" fill="#1B1918"/>
<path fill-rule="evenodd" clip-rule="evenodd" d="M255.819 171.942C252.292 206.126 223.601 233.272 188.365 233.272C154.133 233.272 125.945 208.136 121.411 175.461C120.908 175.461 119.904 175.461 119.401 175.461C117.386 175.461 115.874 174.958 114.363 173.953C118.897 211.153 150.611 239.807 188.865 239.807C227.123 239.807 258.333 211.656 263.366 174.958C259.844 174.958 257.829 173.45 255.819 171.942Z" fill="#1B1918"/>
<path fill-rule="evenodd" clip-rule="evenodd" d="M127.454 135.243C138.531 112.622 161.686 97.5405 188.367 97.5405C216.051 97.5405 239.709 114.13 250.284 137.757C252.294 139.265 253.805 141.275 254.813 143.286C255.82 141.778 257.327 140.27 258.838 139.265C248.269 110.611 220.58 90 188.367 90C157.661 90 130.98 108.6 119.402 134.74" fill="#1B1918"/>
<path d="M215.042 208.638V193.054H219.072V205.622H224.105V208.638" fill="#1B1918"/>
<path d="M201.953 208.638V193.054H212.024V196.07H205.983V199.59H211.52V202.103H205.983V205.622H212.024V208.638" fill="#1B1918"/>
<path d="M195.914 196.573V208.638H191.889V196.573H187.863V193.054H199.944V196.573" fill="#1B1918"/>
<path d="M178.799 209.141C173.766 209.141 171.247 206.124 171.247 201.097C171.247 196.07 175.273 193.054 179.806 193.054C184.336 193.054 187.857 195.568 187.857 201.097C187.354 206.124 183.328 209.141 178.799 209.141ZM178.799 196.573C176.784 196.573 174.773 198.081 174.773 201.097C174.773 203.611 175.776 205.622 178.799 205.622C180.814 205.622 182.824 204.114 182.824 201.097C182.824 198.081 181.313 196.573 178.799 196.573Z" fill="#1B1918"/>
<path d="M164.704 208.638V202.606H157.656V208.638H154.134V193.054H157.656V199.087H164.704V193.054H168.23V208.638" fill="#1B1918"/>
</svg>
