<svg width="24" height="24" viewBox="0 0 24 24" fill="none" xmlns="http://www.w3.org/2000/svg">
<path d="M-0.00012207 1.71919C-0.00012207 0.77025 0.794315 0 1.77363 0H22.2261C23.2058 0 23.9999 0.77025 23.9999 1.71919V22.2811C23.9999 23.2303 23.2058 24 22.2261 24H1.77363C0.794409 24 -0.00012207 23.2304 -0.00012207 22.2814V1.71891V1.71919Z" fill="white"/>
<path d="M7.29317 20.0847V9.27985H3.7018V20.0847H7.29355H7.29317ZM5.49824 7.80488C6.75036 7.80488 7.52989 6.97519 7.52989 5.93832C7.50646 4.87782 6.75036 4.07129 5.52205 4.07129C4.29289 4.07129 3.49011 4.87782 3.49011 5.93823C3.49011 6.9751 4.26936 7.80479 5.47471 7.80479H5.49796L5.49824 7.80488ZM9.28105 20.0847H12.8721V14.0514C12.8721 13.7289 12.8956 13.4056 12.9905 13.1753C13.25 12.5298 13.8409 11.8616 14.8332 11.8616C16.1324 11.8616 16.6524 12.8524 16.6524 14.305V20.0847H20.2434V13.8895C20.2434 10.5709 18.4719 9.02654 16.1091 9.02654C14.172 9.02654 13.3212 10.1093 12.8485 10.8467H12.8724V9.28023H9.28124C9.32811 10.2939 9.28096 20.0851 9.28096 20.0851L9.28105 20.0847Z" fill="#1B1918"/>
</svg>
