<svg width="24" height="25" viewBox="0 0 24 25" fill="none" xmlns="http://www.w3.org/2000/svg">
<path d="M-9.15527e-05 2.21919C-9.15527e-05 1.27025 0.794346 0.5 1.77366 0.5H22.2262C23.2058 0.5 23.9999 1.27025 23.9999 2.21919V22.7811C23.9999 23.7303 23.2058 24.5 22.2262 24.5H1.77366C0.79444 24.5 -9.15527e-05 23.7304 -9.15527e-05 22.7814V2.21891V2.21919Z" fill="#1B1918"/>
<path d="M7.29324 20.585V9.7801H3.70186V20.585H7.29361H7.29324ZM5.4983 8.30513C6.75042 8.30513 7.52995 7.47544 7.52995 6.43856C7.50652 5.37806 6.75042 4.57153 5.52211 4.57153C4.29295 4.57153 3.49017 5.37806 3.49017 6.43847C3.49017 7.47535 4.26942 8.30503 5.47477 8.30503H5.49802L5.4983 8.30513ZM9.28111 20.585H12.8722V14.5517C12.8722 14.2292 12.8956 13.9058 12.9905 13.6755C13.25 13.03 13.8409 12.3619 14.8333 12.3619C16.1325 12.3619 16.6525 13.3526 16.6525 14.8053V20.585H20.2435V14.3898C20.2435 11.0711 18.472 9.52678 16.1092 9.52678C14.172 9.52678 13.3213 10.6095 12.8486 11.3469H12.8725V9.78047H9.2813C9.32817 10.7941 9.28102 20.5853 9.28102 20.5853L9.28111 20.585Z" fill="white"/>
</svg>
