<svg width="24" height="25" viewBox="0 0 24 25" fill="none" xmlns="http://www.w3.org/2000/svg">
<g clip-path="url(#clip0_2070_12470)">
<path d="M16.8503 0.5H7.14973C3.20735 0.5 0 3.70735 0 7.64973V17.3503C0 21.2926 3.20735 24.5 7.14973 24.5H16.8503C20.7926 24.5 24 21.2926 24 17.3503V7.64973C24 3.70735 20.7926 0.5 16.8503 0.5ZM21.5856 17.3503C21.5856 19.9655 19.4655 22.0856 16.8503 22.0856H7.14973C4.5345 22.0856 2.4144 19.9655 2.4144 17.3503V7.64973C2.4144 5.03446 4.5345 2.9144 7.14973 2.9144H16.8503C19.4655 2.9144 21.5856 5.03446 21.5856 7.64973V17.3503Z" fill="#1B1918"/>
<path d="M12 6.29272C8.57729 6.29272 5.79272 9.07729 5.79272 12.4999C5.79272 15.9226 8.57729 18.7072 12 18.7072C15.4227 18.7072 18.2072 15.9226 18.2072 12.4999C18.2072 9.07725 15.4227 6.29272 12 6.29272ZM12 16.2928C9.90523 16.2928 8.20712 14.5947 8.20712 12.5C8.20712 10.4052 9.90527 8.70712 12 8.70712C14.0947 8.70712 15.7928 10.4052 15.7928 12.5C15.7928 14.5947 14.0947 16.2928 12 16.2928Z" fill="#1B1918"/>
<path d="M18.219 7.82673C19.0405 7.82673 19.7064 7.16083 19.7064 6.33939C19.7064 5.51796 19.0405 4.85205 18.219 4.85205C17.3976 4.85205 16.7317 5.51796 16.7317 6.33939C16.7317 7.16083 17.3976 7.82673 18.219 7.82673Z" fill="#1B1918"/>
</g>
<defs>
<clipPath id="clip0_2070_12470">
<rect width="24" height="24" fill="white" transform="translate(0 0.5)"/>
</clipPath>
</defs>
</svg>
