<svg width="246" height="105" viewBox="0 0 246 105" fill="none" xmlns="http://www.w3.org/2000/svg">
<g clip-path="url(#clip0_1743_1929)">
<path d="M226.375 59.3627C225.726 59.3627 225.199 59.8894 225.199 60.5379C225.199 61.1863 225.726 61.713 226.375 61.713C227.023 61.713 227.55 61.1863 227.55 60.5379C227.55 59.8894 227.023 59.3627 226.375 59.3627ZM226.375 61.5266C225.828 61.5266 225.386 61.0819 225.386 60.5379C225.386 59.9912 225.831 59.5491 226.375 59.5491C226.922 59.5491 227.366 59.9938 227.366 60.5379C227.366 61.0819 226.921 61.5266 226.375 61.5266ZM226.757 60.3366C226.757 60.1229 226.606 59.9962 226.382 59.9962H226.007V61.067H226.191V60.6795H226.392L226.586 61.067H226.785L226.571 60.6398C226.685 60.5875 226.757 60.4831 226.757 60.3366ZM226.375 60.513H226.193V60.1578H226.375C226.499 60.1578 226.574 60.2199 226.574 60.3342C226.573 60.4509 226.497 60.513 226.375 60.513ZM84.7507 47.4699V44.6278H80.3921V61.5365H84.7507V51.3978C84.7507 49.5618 85.9285 48.6599 87.7649 48.6599H90.1505V44.6278H88.1128C86.5175 44.6278 85.1309 45.46 84.7507 47.4699ZM94.2332 37.9398C92.7423 37.9398 91.5992 39.1174 91.5992 40.6081C91.5992 42.0639 92.7423 43.2415 94.2332 43.2415C95.7242 43.2415 96.8673 42.0639 96.8673 40.6081C96.8672 39.1174 95.7242 37.9398 94.2332 37.9398ZM92.0589 61.5366H96.4076V44.6278H92.0589V61.5366ZM117.122 53.0822C117.122 57.9093 113.208 61.8223 108.38 61.8223C106.432 61.8223 104.665 61.1838 103.248 60.1056V66.5004H98.8998V44.6278H103.248V46.0588C104.665 44.9805 106.432 44.3421 108.38 44.3421C113.208 44.3421 117.122 48.255 117.122 53.0822ZM112.746 53.0822C112.746 50.4611 110.619 48.3345 107.997 48.3345C105.376 48.3345 103.249 50.4611 103.249 53.0822C103.249 55.7032 105.376 57.8298 107.997 57.8298C110.619 57.8298 112.746 55.7057 112.746 53.0822ZM192.704 51.599L190.167 50.9034C188.497 50.4686 187.848 49.9568 187.848 49.0749C187.848 48.2152 188.763 47.614 190.07 47.614C191.315 47.614 192.291 48.4289 192.291 49.4723V49.5692H196.3V49.4723C196.3 46.4041 193.797 44.342 190.07 44.342C186.38 44.342 183.698 46.4016 183.698 49.2412C183.698 51.4499 185.162 53.1144 187.717 53.805L190.147 54.4684C191.993 54.9802 192.679 55.5467 192.679 56.5628C192.679 57.6336 191.688 58.354 190.211 58.354C188.673 58.354 187.637 57.3801 187.637 55.9342V55.8373H183.383V55.9342C183.383 59.4024 186.176 61.8272 190.177 61.8272C194.031 61.8272 196.829 59.4596 196.829 56.2C196.829 54.6001 196.113 52.5083 192.704 51.599ZM132.549 44.6278H136.897V61.5365H132.549V60.1055C131.132 61.1838 129.365 61.8223 127.417 61.8223C122.589 61.8223 118.675 57.9093 118.675 53.0821C118.675 48.2549 122.589 44.342 127.417 44.342C129.365 44.342 131.132 44.9805 132.549 46.0587V44.6278ZM132.549 53.0822C132.549 50.4587 130.421 48.3345 127.8 48.3345C125.178 48.3345 123.051 50.4611 123.051 53.0822C123.051 55.7032 125.178 57.8298 127.8 57.8298C130.424 57.8298 132.549 55.7057 132.549 53.0822ZM152.599 38.6106H156.948V61.539H152.599V60.108C151.183 61.1863 149.416 61.8247 147.468 61.8247C142.64 61.8247 138.726 57.9118 138.726 53.0846C138.726 48.2574 142.64 44.3445 147.468 44.3445C149.416 44.3445 151.183 44.983 152.599 46.0612V38.6106ZM152.599 53.0822C152.599 50.4611 150.472 48.3345 147.851 48.3345C145.229 48.3345 143.102 50.4611 143.102 53.0822C143.102 55.7032 145.227 57.8298 147.851 57.8298C150.472 57.8298 152.599 55.7057 152.599 53.0822ZM177.138 61.5366H181.487V44.6278H177.138V61.5366ZM179.312 37.9398C177.822 37.9398 176.678 39.1174 176.678 40.6081C176.678 42.0639 177.822 43.2415 179.312 43.2415C180.803 43.2415 181.947 42.0639 181.947 40.6081C181.947 39.1174 180.803 37.9398 179.312 37.9398ZM215.625 53.0822C215.625 57.9093 211.711 61.8223 206.883 61.8223C202.055 61.8223 198.141 57.9094 198.141 53.0822C198.141 48.2549 202.055 44.3421 206.883 44.3421C211.711 44.3421 215.625 48.255 215.625 53.0822ZM211.632 53.0822C211.632 50.4611 209.504 48.3345 206.883 48.3345C204.261 48.3345 202.134 50.4611 202.134 53.0822C202.134 55.7032 204.259 57.8298 206.883 57.8298C209.504 57.8298 211.632 55.7057 211.632 53.0822ZM82.5241 38.6106H65.8428V42.4887H72.0179V61.5365H76.3516V42.4887H82.5267V38.6106H82.5241ZM166.885 56.9056L163.016 44.6278H158.449L164.251 61.5366H169.485L175.322 44.6278H170.754L166.885 56.9056ZM221.996 47.4699V44.6278H217.638V61.5365H221.996V51.3978C221.996 49.5618 223.174 48.6599 225.01 48.6599H227.396V44.6278H225.358C223.763 44.6278 222.379 45.46 221.996 47.4699Z" fill="black"/>
<path d="M40.6904 74.1177C52.9733 74.1177 62.9305 64.1626 62.9305 51.8824C62.9305 39.6022 52.9733 29.6471 40.6904 29.6471C28.4075 29.6471 18.4502 39.6022 18.4502 51.8824C18.4502 64.1626 28.4075 74.1177 40.6904 74.1177Z" fill="#34E0A1"/>
<path d="M54.427 47.5445L57.1107 44.6253H51.1593C48.1798 42.5906 44.5816 41.4055 40.6902 41.4055C36.8037 41.4055 33.2155 42.5931 30.241 44.6253H24.2747L26.9585 47.5445C25.3135 49.045 24.2822 51.2065 24.2822 53.6064C24.2822 58.1355 27.955 61.8074 32.485 61.8074C34.637 61.8074 36.5976 60.9776 38.0612 59.6211L40.6903 62.4831L43.3193 59.6236C44.783 60.9801 46.7411 61.8074 48.893 61.8074C53.4231 61.8074 57.1008 58.1355 57.1008 53.6064C57.1032 51.204 56.072 49.0426 54.427 47.5445ZM32.4875 59.1565C29.421 59.1565 26.9361 56.6722 26.9361 53.6064C26.9361 50.5406 29.4211 48.0563 32.4875 48.0563C35.5538 48.0563 38.0388 50.5406 38.0388 53.6064C38.0388 56.6722 35.5538 59.1565 32.4875 59.1565ZM40.6927 53.4449C40.6927 49.7928 38.0363 46.6576 34.5301 45.3185C36.4261 44.5259 38.506 44.0862 40.6902 44.0862C42.8745 44.0862 44.9568 44.5259 46.8528 45.3185C43.3491 46.6601 40.6927 49.7929 40.6927 53.4449ZM48.8955 59.1565C45.8291 59.1565 43.3441 56.6722 43.3441 53.6064C43.3441 50.5406 45.8291 48.0563 48.8955 48.0563C51.962 48.0563 54.4468 50.5406 54.4468 53.6064C54.4468 56.6722 51.9619 59.1565 48.8955 59.1565ZM48.8955 50.6947C47.2877 50.6947 45.9856 51.9965 45.9856 53.6039C45.9856 55.2113 47.2877 56.5131 48.8955 56.5131C50.5032 56.5131 51.8054 55.2113 51.8054 53.6039C51.8053 51.999 50.5032 50.6947 48.8955 50.6947ZM35.3973 53.6064C35.3973 55.2138 34.0952 56.5156 32.4875 56.5156C30.8797 56.5156 29.5776 55.2138 29.5776 53.6064C29.5776 51.999 30.8797 50.6972 32.4875 50.6972C34.0952 50.6947 35.3973 51.999 35.3973 53.6064Z" fill="black"/>
</g>
<defs>
<clipPath id="clip0_1743_1929">
<rect width="209.1" height="44.4706" fill="white" transform="translate(18.45 29.6471)"/>
</clipPath>
</defs>
</svg>
