<svg width="247" height="105" viewBox="0 0 247 105" fill="none" xmlns="http://www.w3.org/2000/svg">
<g clip-path="url(#clip0_1743_1951)">
<path d="M103.534 39.8794C103.536 39.3215 103.704 38.7768 104.015 38.3141C104.327 37.8514 104.768 37.4915 105.284 37.2799C105.8 37.0683 106.368 37.0145 106.914 37.1253C107.461 37.2361 107.962 37.5066 108.355 37.9025C108.748 38.2984 109.015 38.802 109.122 39.3495C109.229 39.897 109.171 40.464 108.955 40.9786C108.74 41.4932 108.377 41.9324 107.912 42.2406C107.447 42.5488 106.902 42.7123 106.344 42.7102C105.974 42.7089 105.607 42.6346 105.265 42.4916C104.924 42.3486 104.614 42.1397 104.353 41.8768C104.092 41.614 103.885 41.3023 103.745 40.9595C103.604 40.6168 103.533 40.2498 103.534 39.8794ZM150.773 61.5279C151.333 61.53 151.881 61.3657 152.349 61.0558C152.815 60.746 153.179 60.3046 153.395 59.7875C153.61 59.2704 153.668 58.7009 153.56 58.1511C153.452 57.6012 153.183 57.0959 152.788 56.6989C152.393 56.302 151.889 56.0314 151.339 55.9213C150.789 55.8113 150.22 55.8667 149.703 56.0807C149.185 56.2946 148.742 56.6574 148.431 57.1232C148.12 57.589 147.953 58.1367 147.953 58.697C147.953 59.446 148.249 60.1646 148.778 60.6951C149.306 61.2257 150.024 61.5251 150.773 61.5279ZM57.3246 43.9867C55.5883 44.005 53.8962 44.5367 52.4614 45.5149C51.0266 46.493 49.9131 47.8739 49.2614 49.4837C48.6095 51.0935 48.4484 52.8602 48.7983 54.5614C49.1483 56.2626 49.9935 57.8221 51.2278 59.0438C52.462 60.2654 54.03 61.0945 55.7343 61.4267C57.4386 61.7589 59.2031 61.5793 60.8056 60.9105C62.4082 60.2417 63.7769 59.1136 64.7398 57.6682C65.7026 56.2229 66.2165 54.525 66.2166 52.7882C66.2545 51.6143 66.0497 50.4451 65.615 49.3539C65.1803 48.2628 64.5252 47.2731 63.6905 46.4469C62.8557 45.6207 61.8595 44.9758 60.7642 44.5524C59.6688 44.1291 58.4978 43.9365 57.3246 43.9867ZM57.3246 57.472C54.906 57.472 53.2079 55.547 53.2079 52.7882C53.2079 50.0294 54.8958 48.1044 57.3246 48.1044C59.7534 48.1044 61.4413 50.0294 61.4413 52.7882C61.4413 55.547 59.8049 57.472 57.3246 57.472ZM98.0796 53.2308C97.9068 52.8825 97.6811 52.5631 97.4106 52.2838L97.2562 52.1191L97.4209 51.9647C97.6799 51.6845 97.9173 51.3851 98.131 51.0691L102.649 44.3264H97.1636L93.7571 49.6073C93.6116 49.7661 93.4298 49.8874 93.2273 49.9608C93.0248 50.0343 92.8076 50.0579 92.5941 50.0294H91.8223V40.0544C91.8223 38.0676 90.577 37.7897 89.239 37.7897H86.944V61.3323H91.812V54.2706H92.2648C92.8205 54.2706 93.2013 54.3323 93.3763 54.6411L96.0727 59.675C96.3066 60.2297 96.7195 60.6903 97.2454 60.9831C97.7715 61.276 98.3803 61.3844 98.975 61.2911H102.711L99.9218 56.6897L98.0796 53.2308ZM121.72 43.9455C120.798 43.9251 119.883 44.0977 119.032 44.4523C118.181 44.8069 117.414 45.3355 116.78 46.0044L116.481 46.3029L116.378 45.8911C116.22 45.3847 115.886 44.9512 115.438 44.6683C114.989 44.3853 114.454 44.2715 113.929 44.347H111.737V61.322H116.594V53.4985C116.579 52.8005 116.68 52.1046 116.893 51.4397C117.117 50.5752 117.626 49.8115 118.337 49.2716C119.049 48.7319 119.921 48.4476 120.814 48.4647C122.316 48.4647 122.872 49.2573 122.872 51.3264V58.7279C122.816 59.0801 122.843 59.4407 122.953 59.78C123.063 60.1194 123.252 60.4278 123.504 60.68C123.756 60.9323 124.064 61.121 124.404 61.2308C124.743 61.3407 125.103 61.3683 125.455 61.3117H127.74V50.5132C127.771 46.2205 125.682 43.9455 121.72 43.9455ZM106.406 44.3264H104.121V61.3323H108.958V46.9205C109.013 46.571 108.985 46.2134 108.877 45.8765C108.769 45.5396 108.583 45.2327 108.335 44.9805C108.087 44.7283 107.783 44.5377 107.448 44.4242C107.113 44.3106 106.756 44.2771 106.406 44.3264ZM76.323 43.9867C74.5867 44.005 72.8946 44.5367 71.4598 45.5149C70.025 46.493 68.9116 47.8739 68.2598 49.4837C67.6079 51.0935 67.4468 52.8602 67.7968 54.5614C68.1467 56.2626 68.9919 57.8221 70.2262 59.0438C71.4604 60.2654 73.0284 61.0945 74.7327 61.4267C76.437 61.7589 78.2015 61.5793 79.8041 60.9105C81.4066 60.2417 82.7754 59.1136 83.7383 57.6682C84.701 56.2229 85.2149 54.525 85.215 52.7882C85.2529 51.6143 85.0481 50.4451 84.6135 49.3539C84.1787 48.2628 83.5236 47.2731 82.6889 46.4469C81.8542 45.6207 80.8579 44.9758 79.7626 44.5524C78.6672 44.1291 77.4963 43.9365 76.323 43.9867ZM76.323 57.472C73.9045 57.472 72.2063 55.547 72.2063 52.7882C72.2063 50.0294 73.8942 48.1044 76.323 48.1044C78.7518 48.1044 80.4397 50.0294 80.4397 52.7882C80.4397 55.547 78.8033 57.472 76.323 57.472ZM179.991 43.9867C178.255 44.005 176.563 44.5367 175.128 45.5149C173.692 46.493 172.58 47.8739 171.927 49.4837C171.276 51.0935 171.114 52.8602 171.464 54.5614C171.814 56.2626 172.66 57.8221 173.894 59.0438C175.128 60.2654 176.697 61.0945 178.401 61.4267C180.105 61.7589 181.869 61.5793 183.472 60.9105C185.074 60.2417 186.444 59.1136 187.406 57.6682C188.369 56.2229 188.883 54.525 188.883 52.7882C188.921 51.6143 188.716 50.4451 188.281 49.3539C187.847 48.2628 187.192 47.2731 186.356 46.4469C185.522 45.6207 184.525 44.9758 183.43 44.5524C182.335 44.1291 181.164 43.9365 179.991 43.9867ZM179.991 57.472C177.572 57.472 175.874 55.547 175.874 52.7882C175.874 50.0294 177.562 48.1044 179.991 48.1044C182.42 48.1044 184.108 50.0294 184.108 52.7882C184.108 55.547 182.471 57.472 179.991 57.472ZM143.816 44.2852C143.421 44.247 143.023 44.3239 142.67 44.5065C142.318 44.6891 142.026 44.9698 141.829 45.3147L141.706 45.572L141.48 45.3764C140.227 44.3506 138.64 43.8228 137.023 43.8941C132.505 43.8941 129.449 47.3014 129.449 52.3661C129.449 57.4308 132.608 60.9617 137.116 60.9617C138.445 61.0226 139.756 60.6386 140.841 59.8706L141.212 59.5823V60.0558C141.212 62.3308 139.74 63.5867 137.095 63.5867C135.985 63.5713 134.885 63.3659 133.843 62.9794C133.644 62.8778 133.423 62.8244 133.199 62.8236C132.975 62.8228 132.755 62.8746 132.554 62.9746C132.354 63.0748 132.18 63.2206 132.047 63.4001C131.913 63.5797 131.823 63.7882 131.785 64.0088L130.848 66.3558L131.188 66.5308C133.029 67.4465 135.06 67.9188 137.116 67.9103C141.233 67.9103 146.039 65.7897 146.039 59.85V44.2852H143.816ZM137.97 56.7308C135.335 56.7308 134.389 54.4147 134.389 52.2529C134.389 51.2956 134.625 48.1353 137.713 48.1353C139.246 48.1353 141.305 48.5676 141.305 52.3558C141.305 55.9794 139.493 56.7308 137.97 56.7308ZM44.3468 49.2573L43.6367 48.8661L44.2542 48.3514C44.8823 47.7991 45.3812 47.1153 45.7156 46.3486C46.05 45.5818 46.2115 44.7509 46.189 43.9147C46.189 40.2088 43.3176 37.8205 38.8922 37.8205H33.2524C32.6205 37.8442 32.0218 38.1093 31.5795 38.5612C31.1373 39.0132 30.8851 39.6176 30.875 40.25V61.25H38.9848C43.9145 61.25 47.105 58.5632 47.105 54.3941C47.1465 53.3694 46.9125 52.3523 46.4274 51.4488C45.9423 50.5453 45.2237 49.7886 44.3468 49.2573ZM35.3725 43.3176C35.3725 42.2264 35.8356 41.7117 36.8442 41.65H38.9025C39.274 41.6166 39.6482 41.6654 39.9987 41.793C40.3491 41.9205 40.6673 42.1236 40.9305 42.3879C41.1937 42.6521 41.3956 42.9711 41.5217 43.3221C41.6479 43.6731 41.6953 44.0477 41.6607 44.4191C41.7012 44.7961 41.6597 45.1775 41.5388 45.537C41.418 45.8965 41.2206 46.2255 40.9605 46.5013C40.7003 46.7772 40.3835 46.9935 40.0317 47.1351C39.68 47.2768 39.3018 47.3406 38.9231 47.322H35.3725V43.3176ZM39.3142 57.2764H35.3725V52.5617C35.3725 51.5323 35.7738 51.0279 36.628 50.9044H39.3142C40.1277 50.9506 40.8926 51.3065 41.4522 51.8989C42.0117 52.4913 42.3235 53.2754 42.3235 54.0904C42.3235 54.9054 42.0117 55.6895 41.4522 56.2819C40.8926 56.8743 40.1277 57.2301 39.3142 57.2764ZM210.495 43.997C209.495 44.0008 208.509 44.2294 207.61 44.666C206.71 45.1025 205.92 45.7359 205.298 46.5191L204.948 46.972L204.67 46.4676C204.225 45.6595 203.556 44.9969 202.744 44.5588C201.932 44.1207 201.011 43.9257 200.091 43.997C199.251 44.0107 198.421 44.1958 197.656 44.5409C196.889 44.8861 196.201 45.3841 195.634 46.0044L195.181 46.4985L195.007 45.85C194.845 45.3677 194.521 44.9573 194.087 44.6902C193.655 44.4231 193.143 44.3162 192.639 44.3882H190.581V61.322H195.171V53.8485C195.177 53.1824 195.261 52.5192 195.418 51.872C195.861 50.0603 197.075 48.1147 199.113 48.3103C200.368 48.4338 200.986 49.4014 200.986 51.2853V61.322H205.638V53.8485C205.618 53.1531 205.705 52.4589 205.895 51.7897C206.266 50.0706 207.531 48.3 209.497 48.3C210.917 48.3 211.442 49.1029 211.442 51.275V58.8514C211.442 60.5603 212.204 61.322 213.912 61.322H216.125V50.5132C216.125 46.1897 214.221 43.997 210.495 43.997ZM168.464 55.4441C167.25 56.7154 165.606 57.4896 163.854 57.6161C163.219 57.6545 162.582 57.5585 161.986 57.3343C161.39 57.1101 160.848 56.7628 160.396 56.315C159.943 55.8672 159.59 55.329 159.359 54.7354C159.129 54.142 159.026 53.5065 159.058 52.8706C159.004 52.243 159.083 51.6111 159.29 51.0164C159.498 50.4216 159.829 49.8774 160.261 49.4196C160.694 48.9618 161.218 48.6006 161.8 48.3597C162.382 48.1188 163.008 48.0037 163.637 48.022C164.502 48.022 165.49 48.3308 165.644 48.8558V48.9485C165.745 49.3073 165.961 49.6234 166.259 49.8482C166.555 50.0731 166.918 50.1946 167.291 50.1941H169.812V47.9808C169.812 45.0573 166.097 43.997 163.637 43.997C158.296 43.997 154.375 47.7338 154.375 52.8603C154.375 57.9867 158.214 61.7338 163.493 61.7338C164.85 61.7196 166.189 61.4272 167.428 60.8747C168.667 60.3224 169.781 59.5216 170.698 58.522L168.783 55.1558L168.464 55.4441Z" fill="#123D8F"/>
</g>
<defs>
<clipPath id="clip0_1743_1951">
<rect width="185.25" height="30.8824" fill="white" transform="translate(30.875 37.0588)"/>
</clipPath>
</defs>
</svg>
