<svg width="246" height="105" viewBox="0 0 246 105" fill="none" xmlns="http://www.w3.org/2000/svg">
<g clip-path="url(#clip0_1743_1970)">
<path fill-rule="evenodd" clip-rule="evenodd" d="M95.1179 66.5555C89.5603 66.5555 85.0389 71.0957 85.0389 76.6773C85.0389 82.2582 89.5603 86.799 95.1179 86.799C100.676 86.799 105.196 82.2582 105.196 76.6773C105.196 71.0957 100.676 66.5555 95.1179 66.5555Z" fill="#FCB716"/>
<path fill-rule="evenodd" clip-rule="evenodd" d="M66.9532 66.5555C61.3955 66.5555 56.8748 71.0957 56.8748 76.6773C56.8748 82.2582 61.3955 86.799 66.9532 86.799C72.5102 86.799 77.0322 82.2582 77.0322 76.6773C77.0322 71.0957 72.5102 66.5555 66.9532 66.5555Z" fill="#EE363F"/>
<path fill-rule="evenodd" clip-rule="evenodd" d="M123.283 66.5555C117.724 66.5555 113.204 71.0957 113.204 76.6773C113.204 82.2582 117.724 86.799 123.283 86.799C128.84 86.799 133.361 82.2582 133.361 76.6773C133.361 71.0957 128.84 66.5555 123.283 66.5555Z" fill="#07AF56"/>
<path fill-rule="evenodd" clip-rule="evenodd" d="M179.611 66.5555C174.053 66.5555 169.532 71.0957 169.532 76.6773C169.532 82.2582 174.053 86.799 179.611 86.799C185.168 86.799 189.689 82.2582 189.689 76.6773C189.689 71.0957 185.168 66.5555 179.611 66.5555Z" fill="#04A9DF"/>
<path fill-rule="evenodd" clip-rule="evenodd" d="M151.447 66.5563C145.889 66.5563 141.367 71.0964 141.367 76.6774C141.367 82.259 145.888 86.7985 151.446 86.7985C157.004 86.7985 161.525 82.259 161.525 76.6774C161.525 71.0964 157.004 66.5563 151.447 66.5563Z" fill="#A1479A"/>
<path fill-rule="evenodd" clip-rule="evenodd" d="M55.3502 37.8751C55.3502 31.3117 60.5958 26.357 67.0858 26.357C73.6197 26.357 78.8207 31.2676 78.8207 37.8303V47.9196C78.8207 48.9461 78.11 49.6605 77.0427 49.6605C75.9314 49.6605 75.2646 48.9461 75.2646 47.9196V44.9731H75.0869C73.7088 47.3389 70.9526 49.3925 66.8629 49.3925C60.5512 49.3925 55.3502 44.4819 55.3502 37.8751ZM75.3538 37.8751C75.3538 33.1429 71.7971 29.5715 67.0858 29.5715C62.3732 29.5715 58.8171 33.1429 58.8171 37.8751C58.8171 42.6066 62.3732 46.1787 67.0858 46.1787C71.7971 46.1787 75.3538 42.6066 75.3538 37.8751ZM87.9796 56.8485C87.046 56.4021 86.6008 55.5981 86.9568 54.6612C87.3128 53.6781 88.2019 53.2771 89.1348 53.7236C90.7358 54.4821 92.7355 55.0181 94.8689 55.0181C100.16 55.0181 103.36 51.8483 103.36 46.4465V44.9729H103.181C101.803 47.3393 99.0484 49.3923 94.958 49.3923C88.6457 49.3923 83.4447 44.4817 83.4447 37.8749C83.4447 31.3122 88.6903 26.3568 95.1809 26.3568C101.715 26.3568 106.917 31.2681 106.917 37.8301V46.2233C106.917 53.4556 102.292 58.3215 94.7358 58.3215C92.4247 58.3215 90.113 57.875 87.9796 56.8485ZM103.448 37.8749C103.448 33.1427 99.8922 29.5706 95.1809 29.5706C90.469 29.5706 86.9129 33.1427 86.9129 37.8749C86.9129 42.6071 90.469 46.1785 95.1809 46.1785C99.8922 46.1785 103.448 42.6071 103.448 37.8749ZM111.54 37.8751C111.54 31.3117 116.741 26.357 123.276 26.357C129.81 26.357 135.011 31.3117 135.011 37.8751C135.011 44.4371 129.81 49.3925 123.276 49.3925C116.741 49.3925 111.54 44.4371 111.54 37.8751ZM131.544 37.8751C131.544 33.1429 127.987 29.5715 123.276 29.5715C118.563 29.5715 115.007 33.1429 115.007 37.8751C115.007 42.6066 118.563 46.1787 123.276 46.1787C127.987 46.1787 131.544 42.6066 131.544 37.8751ZM139.635 37.8751C139.635 31.3117 144.791 26.357 151.148 26.357C155.238 26.357 157.994 28.4106 159.372 30.7764H159.55V19.0351C159.55 18.0086 160.261 17.2942 161.328 17.2942C162.44 17.2942 163.106 18.0086 163.106 19.0351V37.9192C163.106 44.4819 157.905 49.3925 151.371 49.3925C144.881 49.3925 139.635 44.4371 139.635 37.8751ZM159.639 37.8751C159.639 33.1429 156.082 29.5715 151.371 29.5715C146.658 29.5715 143.102 33.1429 143.102 37.8751C143.102 42.6066 146.658 46.1787 151.371 46.1787C156.082 46.1787 159.639 42.6066 159.639 37.8751ZM167.73 37.8751C167.73 31.3117 172.976 26.357 179.466 26.357C186 26.357 191.201 31.2676 191.201 37.8303V47.9196C191.201 48.9461 190.49 49.6605 189.423 49.6605C188.311 49.6605 187.645 48.9461 187.645 47.9196V44.9731H187.467C186.089 47.3389 183.333 49.3925 179.243 49.3925C172.931 49.3925 167.73 44.4819 167.73 37.8751ZM187.734 37.8751C187.734 33.1429 184.178 29.5715 179.466 29.5715C174.754 29.5715 171.198 33.1429 171.198 37.8751C171.198 42.6066 174.754 46.1787 179.466 46.1787C184.178 46.1787 187.734 42.6066 187.734 37.8751Z" fill="#5A5B5B"/>
</g>
<defs>
<clipPath id="clip0_1743_1970">
<rect width="136.325" height="70.4118" fill="white" transform="translate(55.35 17.2942)"/>
</clipPath>
</defs>
</svg>
