<svg width="247" height="105" viewBox="0 0 247 105" fill="none" xmlns="http://www.w3.org/2000/svg">
<g clip-path="url(#clip0_1743_1995)">
<mask id="mask0_1743_1995" style="mask-type:luminance" maskUnits="userSpaceOnUse" x="23" y="34" width="199" height="36">
<path d="M221.638 34.0945H23.6183V69.8355H221.638V34.0945Z" fill="white"/>
</mask>
<g mask="url(#mask0_1743_1995)">
<path d="M51.9941 69.8355H30.9594C26.9124 69.8355 23.6183 66.5407 23.6183 62.477V41.4372C23.6183 37.3893 26.9124 34.0945 30.9594 34.0945H51.9941C56.0568 34.0945 59.3351 37.3893 59.3351 41.4372V62.477C59.3508 66.5407 56.0568 69.8355 51.9941 69.8355Z" fill="#EF3346"/>
<path d="M36.3557 49.9255C36.3557 49.6274 36.1519 49.4235 35.8538 49.4235H32.3715C32.0735 49.4235 31.8696 49.6274 31.8696 49.9255V53.3929C31.8696 53.691 32.0735 53.895 32.3715 53.895H35.8381C36.1362 53.895 36.34 53.691 36.34 53.3929V49.9255H36.3557Z" fill="#191E3B"/>
<path d="M44.0261 57.6131C44.0261 57.315 43.8065 57.1111 43.5241 57.1111H40.0576C39.7595 57.1111 39.5557 57.315 39.5557 57.6131V61.0805C39.5557 61.3787 39.7595 61.5826 40.0576 61.5826H43.5241C43.8222 61.5826 44.0261 61.3787 44.0261 61.0805V57.6131Z" fill="#191E3B"/>
<path d="M44.0261 49.9255C44.0261 49.6274 43.8222 49.4235 43.5241 49.4235H40.0576C39.7595 49.4235 39.5557 49.6274 39.5557 49.9255V53.3929C39.5557 53.691 39.7595 53.895 40.0576 53.895H43.5241C43.8222 53.895 44.0261 53.691 44.0261 53.3929V49.9255Z" fill="#FDDB32"/>
<path d="M143.772 53.8634C144.274 50.3331 146.125 48.0268 149.795 48.0268C153.56 48.0268 155.552 50.192 155.834 53.8634H143.772ZM149.89 44.5594C144.008 44.5594 139.318 48.7956 139.318 55.8089C139.318 62.9948 143.458 67.4035 150.438 67.4035C154.454 67.4035 157.795 65.6306 159.866 63.1674C159.992 63.0418 160.038 62.9162 160.038 62.7908C160.038 62.6652 159.992 62.5398 159.866 62.4142L157.921 60.5158C157.795 60.3902 157.67 60.3432 157.544 60.3432C157.419 60.3432 157.294 60.4216 157.168 60.5628C155.568 62.3043 153.481 63.7793 150.486 63.7793C146.11 63.7793 144.008 61.0806 143.678 57.1739H159.913C160.211 57.1739 160.414 56.9543 160.414 56.6718V55.8246C160.414 49.3918 156.525 44.5594 149.89 44.5594Z" fill="#191E3B"/>
<path d="M93.7634 37.1539H90.2498C89.9518 37.1539 89.7478 37.3736 89.7478 37.656V49.5017H75.4893V37.6717C75.4893 37.3736 75.2855 37.1696 74.9874 37.1696H71.4737C71.1757 37.1696 70.9718 37.3893 70.9718 37.6717V66.2582C70.9718 66.5563 71.1757 66.7603 71.4737 66.7603H74.9874C75.2855 66.7603 75.4893 66.5407 75.4893 66.2582V53.4869H89.7478V66.2582C89.7478 66.5563 89.9518 66.7603 90.2498 66.7603H93.7634C94.0615 66.7603 94.2653 66.5407 94.2653 66.2582V37.6717C94.281 37.3736 94.0615 37.1539 93.7634 37.1539Z" fill="#191E3B"/>
<path d="M168.116 37.1538H164.728C164.43 37.1538 164.226 37.3735 164.226 37.6559V66.2581C164.226 66.5562 164.43 66.7602 164.728 66.7602H168.116C168.414 66.7602 168.618 66.5405 168.618 66.2581V37.6716C168.618 37.3735 168.398 37.1538 168.116 37.1538Z" fill="#191E3B"/>
<path d="M109.767 63.6851C105.077 63.6851 102.583 60.1706 102.583 55.9815C102.583 51.7924 105.077 48.2779 109.767 48.2779C114.457 48.2779 116.951 51.7924 116.951 55.9815C116.951 60.1706 114.457 63.6851 109.767 63.6851ZM109.767 44.5594C103.461 44.5594 98.1753 49.2192 98.1753 55.9815C98.1753 62.7437 103.461 67.4035 109.767 67.4035C116.073 67.4035 121.359 62.7437 121.359 55.9815C121.359 49.2192 116.057 44.5594 109.767 44.5594Z" fill="#191E3B"/>
<path d="M136.73 45.2342H131.24V38.0797C131.24 37.7032 130.864 37.5306 130.613 37.7816L127.193 41.2019C126.99 41.4059 126.848 41.6256 126.848 41.9551V45.2342H123.084C122.786 45.2342 122.582 45.4382 122.582 45.7362V48.1054C122.582 48.4035 122.786 48.6075 123.084 48.6075H126.848V60.155C126.848 64.1717 128.746 66.7604 132.762 66.7604H136.73C137.028 66.7604 137.233 66.5564 137.233 66.2584V63.5598C137.233 63.2616 137.028 63.0576 136.73 63.0576H133.939C131.947 63.0576 131.24 62.2889 131.24 60.312V48.6231H136.73C137.028 48.6231 137.233 48.4192 137.233 48.1211V45.752C137.248 45.4539 137.028 45.2342 136.73 45.2342Z" fill="#191E3B"/>
<path d="M193.812 64.9247H192.354C192.212 64.9247 192.102 65.0188 192.102 65.1757V66.5407C192.102 66.6819 192.197 66.7918 192.354 66.7918H193.812C193.953 66.7918 194.063 66.6976 194.063 66.5407V65.1757C194.063 65.0345 193.969 64.9247 193.812 64.9247Z" fill="#191E3B"/>
<path d="M206.972 65.6152C205.607 65.6152 204.916 64.6895 204.916 63.4657C204.916 62.2889 205.591 61.3163 206.972 61.3163C208.336 61.3163 209.026 62.2889 209.026 63.4657C209.01 64.6895 208.336 65.6152 206.972 65.6152ZM206.972 60.014C205.073 60.014 203.457 61.426 203.457 63.4814C203.457 65.5838 205.073 66.9488 206.972 66.9488C208.869 66.9488 210.485 65.5838 210.485 63.4814C210.485 61.426 208.869 60.014 206.972 60.014Z" fill="#191E3B"/>
<path d="M182.108 53.8634C178.641 53.1103 176.947 52.5141 176.947 50.7254C176.947 49.0309 178.469 48.0268 181.182 48.0268C183.598 48.0268 185.496 49.1251 186.72 50.8666C186.892 51.1176 187.19 51.1648 187.441 50.9922L189.731 49.5174C189.982 49.3448 190.076 49.0937 189.904 48.7956C188.037 45.9558 185.088 44.5594 181.229 44.5594C176.916 44.5594 173.072 46.6775 173.072 50.9922C173.072 55.5265 176.665 56.7032 181.402 57.723C184.743 58.4448 186.217 58.9938 186.217 60.9865C186.217 62.932 184.476 63.9518 181.559 63.9518C178.515 63.9518 176.571 62.7594 175.222 60.7825C175.049 60.4844 174.751 60.4059 174.453 60.6099L172.163 62.1946C171.912 62.3672 171.865 62.6182 171.99 62.8692C173.716 65.7875 176.932 67.4349 181.511 67.4349C187.221 67.4349 190.516 64.5951 190.516 60.7982C190.516 56.3581 186.845 54.9303 182.108 53.8634Z" fill="#191E3B"/>
<path d="M219.191 60.014C218.219 60.014 217.576 60.4062 217.042 61.0338C216.697 60.4533 215.975 60.014 215.097 60.014C214.171 60.014 213.591 60.4533 213.246 60.9397V60.4533C213.246 60.3121 213.152 60.2022 212.995 60.2022H212.023C211.881 60.2022 211.771 60.2964 211.771 60.4533V66.5566C211.771 66.6978 211.866 66.8076 212.023 66.8076H213.042C213.184 66.8076 213.293 66.7135 213.293 66.5566V63.3873C213.293 62.1635 213.639 61.3319 214.705 61.3319C215.631 61.3319 215.929 61.8653 215.929 62.744V66.5409C215.929 66.6821 216.022 66.7919 216.18 66.7919H217.199C217.34 66.7919 217.45 66.6978 217.45 66.5409V63.3716C217.45 62.1478 217.843 61.3163 218.909 61.3163C219.787 61.3163 220.133 61.8496 220.133 62.7283V66.5252C220.133 66.6664 220.226 66.7762 220.383 66.7762H221.403C221.544 66.7762 221.654 66.6821 221.654 66.5252V62.5244C221.623 61.0338 220.697 60.014 219.191 60.014Z" fill="#191E3B"/>
<path d="M201.841 64.5954C201.7 64.4541 201.543 64.5013 201.449 64.5954C200.775 65.3328 200.32 65.6152 199.598 65.6152C198.375 65.6152 197.747 64.6896 197.747 63.4658C197.747 62.289 198.28 61.3162 199.551 61.3162C200.382 61.3162 200.821 61.6614 201.261 62.1478C201.355 62.242 201.512 62.289 201.653 62.1949L202.233 61.7085C202.374 61.6144 202.484 61.4575 202.327 61.2692C201.794 60.5317 200.868 59.9983 199.551 59.9983C197.543 59.9983 196.241 61.3633 196.241 63.4658C196.241 65.5682 197.559 66.9803 199.503 66.9803C200.868 66.9803 201.841 66.3997 202.484 65.5211C202.579 65.3799 202.579 65.27 202.484 65.1759L201.841 64.5954Z" fill="#191E3B"/>
<path d="M52.9211 42.8179C52.9211 41.5471 51.9015 40.5272 50.6309 40.5272H33.549C33.2039 40.5272 33 40.6528 32.7961 40.8724L29.3608 44.2927C29.1099 44.5438 29.2824 44.9361 29.6589 44.9361H48.5134V63.795C48.5134 64.1716 48.8898 64.3442 49.1564 64.0931L52.5917 60.6728C52.8113 60.4531 52.9211 60.2492 52.9211 59.904V42.8179Z" fill="#191E3B"/>
</g>
</g>
<defs>
<clipPath id="clip0_1743_1995">
<rect width="198.959" height="44.4706" fill="white" transform="translate(23.465 29.6471)"/>
</clipPath>
</defs>
</svg>
