<svg width="246" height="105" viewBox="0 0 246 105" fill="none" xmlns="http://www.w3.org/2000/svg">
<g clip-path="url(#clip0_1743_2032)">
<mask id="mask0_1743_2032" style="mask-type:luminance" maskUnits="userSpaceOnUse" x="75" y="3" width="98" height="99">
<path d="M172.2 3.70581H75.03V101.294H172.2V3.70581Z" fill="white"/>
</mask>
<g mask="url(#mask0_1743_2032)">
<path d="M172.2 52.4999C172.2 79.4465 150.446 101.294 123.615 101.294C96.784 101.294 75.03 79.4465 75.03 52.4999C75.03 25.5534 96.784 3.70581 123.615 3.70581C150.446 3.70581 172.2 25.5534 172.2 52.4999Z" fill="#EB004B"/>
<path d="M106.885 62.328V54.529H96.2043V62.328H91.2244V42.6354H96.2043V50.3815H106.885V42.6354H111.837V62.328H106.885ZM120.015 51.7314V46.6773H127.06C129.279 46.6773 130.105 47.6856 130.105 49.1373C130.105 50.5889 129.254 51.7274 127.189 51.7274H120.019L120.015 51.7314ZM130.825 55.1511C133.51 54.3216 135.109 52.3008 135.109 49.0112C135.109 44.3717 132.141 42.6354 127.291 42.6354H115.035V62.328H120.015V55.7733H125.744L129.975 62.328H135.599L130.825 55.1511ZM151.077 56.5499C151.077 58.1317 148.911 58.5464 145.996 58.5464C142.125 58.5464 138.745 57.7169 137.251 57.0175V61.3968C139.445 62.0718 142.154 62.5881 145.996 62.5881C152.522 62.5881 156.004 60.9291 156.004 56.3181C156.004 52.2764 153.656 50.9304 146.457 50.4872C143.105 50.2798 142.02 50.0724 142.02 48.5192C142.02 46.9659 144.085 46.4211 146.818 46.4211C150.405 46.4211 153.603 47.2506 154.919 47.9255V43.5462C153.267 42.9241 150.583 42.3793 147.049 42.3793C139.749 42.3793 137.089 44.6319 137.089 48.751C137.089 52.87 139.409 54.1387 146.66 54.5819C149.988 54.7893 151.073 54.9967 151.073 56.5499" fill="white"/>
</g>
</g>
<defs>
<clipPath id="clip0_1743_2032">
<rect width="97.17" height="97.5882" fill="white" transform="translate(75.03 3.70581)"/>
</clipPath>
</defs>
</svg>
