<svg width="250" height="65" viewBox="0 0 250 65" fill="none" xmlns="http://www.w3.org/2000/svg">
<g clip-path="url(#clip0_3389_2559)">
<path d="M198.96 41.4596V39.3516H196.497V41.4596H195.267V36.0137H196.497V38.1217H198.96V36.0137H200.193V41.4596" fill="#1B1918"/>
<path d="M203.886 41.6353C202.127 41.6353 201.247 40.5812 201.247 38.8245C201.247 37.0677 202.654 36.0137 204.238 36.0137C205.821 36.0137 207.052 36.8921 207.052 38.8245C206.876 40.5812 205.469 41.6353 203.886 41.6353ZM203.886 37.2435C203.182 37.2435 202.479 37.7704 202.479 38.8245C202.479 39.7029 202.83 40.4056 203.886 40.4056C204.59 40.4056 205.293 39.8785 205.293 38.8245C205.293 37.7704 204.765 37.2435 203.886 37.2435Z" fill="#1B1918"/>
<path d="M209.867 37.2435V41.4596H208.461V37.2435H207.054V36.0137H211.276V37.2435" fill="#1B1918"/>
<path d="M211.978 41.4596V36.0137H215.497V37.0677H213.386V38.2975H215.321V39.1759H213.386V40.4056H215.497V41.4596" fill="#1B1918"/>
<path d="M216.552 41.4596V36.0137H217.96V40.4056H219.719V41.4596" fill="#1B1918"/>
<path fill-rule="evenodd" clip-rule="evenodd" d="M185.943 15.8108C189.814 7.9054 197.906 2.63513 207.23 2.63513C216.904 2.63513 225.172 8.43244 228.867 16.6892C229.57 17.2163 230.098 17.9189 230.45 18.6216C230.802 18.0945 231.329 17.5676 231.857 17.2163C228.163 7.20271 218.487 0 207.23 0C196.499 0 187.175 6.5 183.129 15.6352" fill="#1B1918"/>
<path fill-rule="evenodd" clip-rule="evenodd" d="M230.802 28.6357C229.569 40.5817 219.543 50.0682 207.229 50.0682C195.266 50.0682 185.415 41.2843 183.831 29.8654C183.655 29.8654 183.305 29.8654 183.129 29.8654C182.424 29.8654 181.896 29.6898 181.368 29.3385C182.952 42.3385 194.035 52.3519 207.404 52.3519C220.773 52.3519 231.68 42.5141 233.439 29.6898C232.208 29.6898 231.504 29.1627 230.802 28.6357Z" fill="#1B1918"/>
<path fill-rule="evenodd" clip-rule="evenodd" d="M184.007 25.2979C184.007 25.1221 184.007 25.1221 184.007 24.9465L185.942 17.5681H182.6L182.248 18.6221C181.896 17.9195 181.193 17.2168 180.137 17.2168C177.146 17.2168 174.685 20.5547 174.685 24.5952C174.685 26.7032 176.267 28.2844 177.85 28.2844C179.257 28.2844 180.137 27.406 180.665 26.7032C180.841 27.7573 181.896 28.2844 182.776 28.2844C183.655 28.2844 184.183 28.1087 184.535 27.7573L185.063 25.4736C184.887 25.4736 184.711 25.6492 184.359 25.6492C184.183 25.6492 184.007 25.4736 184.007 25.2979ZM179.257 25.8249C178.554 25.8249 178.202 25.1221 178.202 24.0681C178.202 22.1357 179.257 19.852 180.665 19.852C181.193 19.852 181.72 20.5547 181.72 21.6087C181.72 23.3655 180.489 25.8249 179.257 25.8249Z" fill="#1B1918"/>
<path fill-rule="evenodd" clip-rule="evenodd" d="M173.101 11.7705L171.518 18.2706H168.351L170.111 11.7705H167.12C166.416 12.8246 165.537 13.5273 163.953 13.5273L163.426 15.811C163.602 15.811 163.778 15.811 163.953 15.811C164.657 15.811 165.185 15.6354 165.889 15.2841L162.37 28.2841H165.713L167.648 21.0814H170.638L168.879 28.2841H172.222L176.444 11.9462" fill="#1B1918"/>
<path fill-rule="evenodd" clip-rule="evenodd" d="M201.423 18.4455C201.071 17.9184 200.192 17.3913 199.312 17.3913C196.321 17.3913 193.859 20.9048 193.859 24.7697C193.859 26.8779 195.442 28.4589 197.025 28.4589C198.257 28.4589 199.136 27.7563 199.664 27.0535L199.312 28.4589H202.127L206.349 12.1211H203.006L201.423 18.4455ZM198.257 25.8239C197.553 25.8239 197.201 25.1211 197.201 24.0671C197.201 22.1347 198.257 19.8508 199.664 19.8508C200.192 19.8508 200.719 20.5535 200.719 21.6076C200.719 23.3644 199.664 25.8239 198.257 25.8239Z" fill="#1B1918"/>
<path fill-rule="evenodd" clip-rule="evenodd" d="M194.036 17.2168C192.98 17.2168 192.101 18.0952 191.573 18.9736L191.925 17.3924H188.582L185.767 28.1087H189.11L190.517 23.0141C190.869 21.6087 191.749 20.2033 192.98 20.2033C193.332 20.2033 193.684 20.3789 193.86 20.3789L194.738 17.2168C194.562 17.3924 194.212 17.2168 194.036 17.2168Z" fill="#1B1918"/>
<path fill-rule="evenodd" clip-rule="evenodd" d="M246.985 29.3381C246.281 29.3381 246.106 28.9867 246.106 28.2841C246.106 27.9327 246.106 27.5814 246.106 27.2299C246.106 26.0002 245.578 24.7706 244.698 24.2435C246.633 23.8922 248.92 22.311 248.92 19.8515C248.92 18.4462 247.865 17.2165 246.106 17.2165C245.05 17.2165 243.995 17.7435 243.291 18.4462L245.05 11.7705H241.708L237.486 28.2841H240.828L241.708 24.9462C242.587 25.1218 243.291 25.8246 243.291 27.0543C243.291 27.9327 243.115 28.4597 243.115 29.3381C243.115 30.9191 244.346 31.9731 246.106 31.9731C246.985 31.9731 247.865 31.6219 248.392 31.2706L247.865 29.1623C247.689 29.1623 247.337 29.3381 246.985 29.3381ZM242.235 22.8381C242.587 21.257 243.995 19.5002 245.226 19.5002C245.754 19.5002 246.106 19.8515 246.106 20.203C245.93 21.6083 244.346 22.8381 242.235 22.8381Z" fill="#1B1918"/>
<path fill-rule="evenodd" clip-rule="evenodd" d="M225.523 17.2168C222.182 17.2168 219.719 20.3789 219.719 24.0681C219.719 26.5276 221.478 28.2844 223.589 28.2844C227.106 28.2844 229.569 25.1221 229.569 21.6087C229.569 18.9736 227.81 17.2168 225.523 17.2168ZM223.941 25.8249C223.413 25.8249 222.884 25.1221 222.884 23.8924C222.884 21.7844 223.941 19.5005 225.347 19.5005C226.052 19.5005 226.404 20.3789 226.404 21.4331C226.404 23.5411 225.171 25.8249 223.941 25.8249Z" fill="#1B1918"/>
<path fill-rule="evenodd" clip-rule="evenodd" d="M233.439 23.8924C233.439 21.4331 234.847 19.6763 236.254 19.6763C236.958 19.6763 237.661 20.2033 238.013 20.5547L238.717 18.0952C238.189 17.7439 237.134 17.2168 236.078 17.2168C232.913 17.2168 230.273 20.5547 230.273 23.8924C230.273 26.5276 232.032 28.2844 234.319 28.2844C235.199 28.2844 235.902 28.1087 236.254 27.9331L236.958 25.4736C236.606 25.8249 236.078 25.8249 235.374 25.8249C234.143 25.8249 233.439 25.2979 233.439 23.8924Z" fill="#1B1918"/>
<path fill-rule="evenodd" clip-rule="evenodd" d="M219.367 29.5143C218.663 29.5143 218.311 28.9873 218.311 28.2847C218.311 27.4063 218.487 26.3522 218.487 25.2982C218.487 23.3656 217.432 21.7847 216.728 21.4332C219.015 20.9063 221.302 18.6224 221.302 16.3387C221.302 13.8792 219.719 11.9468 216.2 11.9468H213.034C212.33 13.0008 211.451 13.7035 209.867 13.7035L209.34 15.9872C209.515 15.9872 209.691 15.9872 209.867 15.9872C210.571 15.9872 211.099 15.8116 211.802 15.4603L208.46 28.2847H211.802L213.386 21.9603C214.441 22.3116 215.497 23.5414 215.497 25.1224C215.497 26.7035 215.145 27.5819 215.145 29.3387C215.145 31.2711 216.552 32.3251 218.663 32.3251C219.895 32.3251 220.598 31.9739 221.126 31.4468L220.598 29.3387C220.071 29.5143 219.719 29.5143 219.367 29.5143ZM214.441 19.5008H213.738L215.145 14.2306H215.673C217.08 14.2306 217.608 15.109 217.608 16.3387C217.608 17.9198 216.552 19.5008 214.441 19.5008Z" fill="#1B1918"/>
<path d="M236.079 31.2705C236.255 31.0948 236.431 30.9192 236.431 30.7435C236.431 30.5679 236.255 30.3921 235.903 30.3921C235.727 30.3921 235.551 30.3921 235.551 30.3921V31.7976H235.727V31.2705L236.255 31.7976H236.431L236.079 31.2705ZM235.727 31.0948V30.7435C235.727 30.7435 235.727 30.7435 235.903 30.7435C236.079 30.7435 236.255 30.7435 236.255 30.9192C236.255 30.9192 236.079 31.0948 235.727 31.0948Z" fill="#1B1918"/>
<path d="M235.903 29.8652C235.199 29.8652 234.672 30.3923 234.672 31.0949C234.672 31.7977 235.199 32.3247 235.903 32.3247C236.607 32.3247 237.135 31.7977 237.135 31.0949C237.135 30.3923 236.607 29.8652 235.903 29.8652ZM235.903 32.1491C235.375 32.1491 234.848 31.622 234.848 31.0949C234.848 30.568 235.375 30.0409 235.903 30.0409C236.431 30.0409 236.959 30.568 236.959 31.0949C236.959 31.7977 236.607 32.1491 235.903 32.1491Z" fill="#1B1918"/>
<path d="M8.44395 33.378L2.99056 25.824H2.81465V33.378H0V15.8104C1.23141 15.8104 2.81465 15.6348 4.74972 15.6348C8.44395 15.6348 10.9068 16.8644 10.9068 20.378C10.9068 23.1888 8.79578 24.9456 5.98112 25.2969C6.50888 25.9996 7.03663 26.5267 7.38845 27.2293L11.9623 33.378H8.44395ZM4.39788 17.9185C3.87015 17.9185 3.3424 17.9185 2.99056 17.9185V23.5401C3.16648 23.5401 3.69423 23.5401 4.39788 23.5401C6.68479 23.5401 8.09212 22.3104 8.09212 20.5536C7.9162 18.7969 6.68479 17.9185 4.39788 17.9185Z" fill="#1B1918"/>
<path d="M14.7764 33.3781V15.8105H24.0999V18.0944H17.7669V23.1889H23.7481V25.4728H17.7669V30.9188H24.0999V33.3781" fill="#1B1918"/>
<path d="M30.9609 33.5536C29.7294 33.5536 28.4981 33.378 27.4426 33.2023L27.6185 30.5672C28.674 30.9185 30.0814 31.2699 31.3127 31.2699C33.2478 31.2699 34.8311 30.3915 34.8311 28.6348C34.8311 24.9456 27.0908 26.5267 27.0908 20.7293C27.0908 17.7428 29.5535 15.6348 33.5997 15.6348C34.6552 15.6348 35.7106 15.8104 36.7661 15.9861L36.5902 18.4456C35.5348 18.0943 34.4791 17.9185 33.4237 17.9185C31.3127 17.9185 30.0814 18.9727 30.0814 20.378C30.0814 23.8915 37.8216 22.6619 37.8216 28.1077C37.6457 31.2699 35.1828 33.5536 30.9609 33.5536Z" fill="#1B1918"/>
<path d="M43.8029 15.8105H40.9883V33.3781H43.8029V15.8105Z" fill="#1B1918"/>
<path d="M53.1267 33.379C51.3675 33.379 49.7842 33.379 48.377 33.2032V15.6358C49.7842 15.6358 51.7193 15.46 53.8302 15.46C59.4596 15.46 62.802 17.9195 62.802 24.0682C62.802 30.3924 58.9318 33.379 53.1267 33.379ZM53.6543 17.9195C52.7747 17.9195 51.8951 17.9195 51.1916 17.9195V30.7438C51.7193 30.7438 52.5988 30.9195 53.3025 30.9195C57.1727 30.9195 59.8114 28.9871 59.8114 24.4195C59.8114 20.379 58.0522 17.9195 53.6543 17.9195Z" fill="#1B1918"/>
<path d="M65.9688 33.3781V15.8105H75.2923V18.0944H68.7834V23.1889H74.9405V25.4728H68.7834V30.9188H75.2923V33.3781" fill="#1B1918"/>
<path d="M89.7171 33.3781L83.7359 23.3647C83.0324 22.1349 82.3287 20.9052 81.8009 19.6755C81.9769 21.4322 81.9769 24.9457 81.9769 27.4052V33.3781H79.1621V15.8105H82.6805L88.4858 25.4728C89.1893 26.7025 89.893 28.108 90.5967 29.5133C90.4208 27.5809 90.4208 23.716 90.4208 21.0809V15.8105H93.2355V33.3781" fill="#1B1918"/>
<path d="M104.494 33.5536C98.5123 33.5536 96.4014 29.6888 96.4014 25.1212C96.4014 19.6753 99.216 15.6348 105.021 15.6348C106.253 15.6348 107.66 15.8104 108.891 16.1619L108.54 18.7969C107.308 18.4456 106.077 18.2699 104.669 18.2699C100.975 18.2699 99.3919 21.0807 99.3919 24.7699C99.3919 28.8104 101.151 31.2699 105.021 31.2699C106.253 31.2699 107.836 30.9185 108.715 30.3915L109.067 32.851C107.836 33.2023 106.253 33.5536 104.494 33.5536Z" fill="#1B1918"/>
<path d="M112.762 33.3781V15.8105H121.909V18.0944H115.576V23.1889H121.733V25.4728H115.576V30.9188H121.909V33.3781" fill="#1B1918"/>
<path d="M128.771 33.5536C127.539 33.5536 126.308 33.378 125.252 33.2023L125.428 30.5672C126.484 30.9185 127.891 31.2699 129.122 31.2699C131.057 31.2699 132.641 30.3915 132.641 28.6348C132.641 24.9456 124.9 26.5267 124.9 20.7293C124.9 17.7428 127.363 15.6348 131.409 15.6348C132.465 15.6348 133.52 15.8104 134.576 15.9861L134.4 18.4456C133.344 18.0943 132.289 17.9185 131.233 17.9185C129.122 17.9185 127.891 18.9727 127.891 20.378C127.891 23.8915 135.631 22.6619 135.631 28.1077C135.631 31.2699 132.992 33.5536 128.771 33.5536Z" fill="#1B1918"/>
<path d="M99.7436 49.8924L99.0399 47.7844H94.9939L94.2902 49.8924H92.707L96.2252 40.0547H97.9844L101.503 49.8924H99.7436ZM97.4567 43.3924C97.2808 42.8655 97.1048 42.3384 96.9289 41.8115C96.753 42.3384 96.5772 42.8655 96.4013 43.3924L95.3456 46.3789H98.5122L97.4567 43.3924Z" fill="#1B1918"/>
<path d="M105.022 41.2844V49.8924H103.439V41.2844H100.8V40.0547H107.836V41.2844" fill="#1B1918"/>
<path d="M115.401 41.2844V49.8924H113.818V41.2844H111.003V40.0547H118.039V41.2844" fill="#1B1918"/>
<path d="M125.604 49.8924V45.5007H120.854V49.8924H119.271V40.0547H120.854V44.0952H125.604V40.0547H127.187V49.8924" fill="#1B1918"/>
<path d="M129.826 49.8924V40.0547H135.104V41.2844H131.409V44.0952H134.928V45.5007H131.409V48.4871H135.104V49.8924" fill="#1B1918"/>
<path opacity="0.2" d="M149.352 0.352051H148.472V64.825H149.352V0.352051Z" fill="#1B1918"/>
<path d="M195.794 64.8245C194.914 64.8245 194.386 64.8245 193.859 64.8245V58.8516C194.386 58.8516 195.442 58.8516 196.146 58.8516C198.081 58.8516 199.312 59.73 199.312 61.838C199.312 63.9461 197.729 64.8245 195.794 64.8245ZM195.97 59.9056C195.794 59.9056 195.442 59.9056 195.266 59.9056V63.4191C195.442 63.4191 195.618 63.4191 195.97 63.4191C197.025 63.4191 197.905 62.8921 197.905 61.6624C197.729 60.6083 197.201 59.9056 195.97 59.9056Z" fill="#1B1918"/>
<path d="M204.062 64.8245L203.71 63.7704H201.423L201.071 64.8245H199.488L201.775 58.8516H203.534L205.821 64.8245H204.062ZM202.83 61.3111C202.655 60.9596 202.655 60.6083 202.479 60.4327C202.479 60.784 202.303 60.9596 202.127 61.3111L201.599 62.7164H203.182L202.83 61.3111Z" fill="#1B1918"/>
<path d="M209.515 64.8245H207.756L205.469 58.8516H207.053L208.108 61.6624C208.284 62.1893 208.46 62.7164 208.636 63.2435C208.812 62.7164 208.988 62.0137 209.164 61.6624L210.219 58.8516H211.802" fill="#1B1918"/>
<path d="M214.793 65.0003C212.858 65.0003 211.802 63.7704 211.802 62.0137C211.802 60.0812 213.385 58.8516 214.969 58.8516C216.728 58.8516 217.959 59.9056 217.959 61.838C218.135 63.7704 216.552 65.0003 214.793 65.0003ZM214.969 60.0812C214.089 60.0812 213.385 60.6083 213.385 61.838C213.385 62.8921 213.913 63.5948 214.969 63.5948C215.848 63.5948 216.552 63.0677 216.552 61.838C216.552 60.6083 215.848 60.0812 214.969 60.0812Z" fill="#1B1918"/>
<path d="M220.247 64.9995C219.895 64.9995 219.367 64.9995 219.015 64.8239V63.4185C219.367 63.5942 219.895 63.5942 220.247 63.5942C220.774 63.5942 221.126 63.4185 221.126 62.8914C221.126 62.013 218.663 62.5401 218.663 60.6077C218.663 59.3779 219.543 58.6753 221.126 58.6753C221.478 58.6753 221.83 58.6753 222.182 58.8509V60.0806C221.83 59.905 221.478 59.905 221.126 59.905C220.422 59.905 220.247 60.0806 220.247 60.4319C220.247 61.3103 222.709 60.959 222.709 62.7158C222.885 64.1211 222.006 64.9995 220.247 64.9995Z" fill="#1B1918"/>
</g>
<defs>
<clipPath id="clip0_3389_2559">
<rect width="250" height="65" fill="white"/>
</clipPath>
</defs>
</svg>
