<svg width="140" height="146" viewBox="0 0 140 146" fill="none" xmlns="http://www.w3.org/2000/svg">
<rect width="140" height="140" rx="70" fill="#EDCD51"/>
<path d="M63.1619 79.9244V77.5893H60.4584V79.9244H59.1074V73.892H60.4584V76.227H63.1619V73.892H64.5144V79.9244" fill="#1B1918"/>
<path d="M68.5705 80.119C66.6399 80.119 65.6738 78.9514 65.6738 77.0055C65.6738 75.0595 67.218 73.892 68.957 73.892C70.6944 73.892 72.0453 74.8649 72.0453 77.0055C71.8521 78.9514 70.3079 80.119 68.5705 80.119ZM68.5705 75.2542C67.7977 75.2542 67.0264 75.8379 67.0264 77.0055C67.0264 77.9784 67.4112 78.7569 68.5705 78.7569C69.3434 78.7569 70.1147 78.173 70.1147 77.0055C70.1147 75.8379 69.535 75.2542 68.5705 75.2542Z" fill="#1B1918"/>
<path d="M75.1352 75.2542V79.9244H73.591V75.2542H72.0469V73.892H76.681V75.2542" fill="#1B1918"/>
<path d="M77.4512 79.9244V73.892H81.314V75.0595H78.997V76.4218H81.1208V77.3948H78.997V78.7569H81.314V79.9244" fill="#1B1918"/>
<path d="M82.4707 79.9244V73.892H84.0165V78.7569H85.9471V79.9244" fill="#1B1918"/>
<path fill-rule="evenodd" clip-rule="evenodd" d="M48.8735 51.5134C53.1228 42.7567 62.0045 36.9189 72.2389 36.9189C82.858 36.9189 91.933 43.3405 95.9891 52.4864C96.7603 53.0703 97.34 53.8485 97.7265 54.6269C98.1129 54.0431 98.691 53.4594 99.2706 53.0703C95.2162 41.9784 84.5954 34 72.2389 34C60.4604 34 50.226 41.2 45.7852 51.3189" fill="#1B1918"/>
<path fill-rule="evenodd" clip-rule="evenodd" d="M98.1135 65.7194C96.7609 78.9518 85.7553 89.4598 72.2395 89.4598C59.1084 89.4598 48.296 79.73 46.557 67.0815C46.3638 67.0815 45.979 67.0815 45.7857 67.0815C45.0128 67.0815 44.4332 66.8869 43.8535 66.4978C45.5925 80.8977 57.7575 91.9894 72.431 91.9894C87.1063 91.9894 99.078 81.0923 101.009 66.8869C99.6576 66.8869 98.8848 66.303 98.1135 65.7194Z" fill="#1B1918"/>
<path fill-rule="evenodd" clip-rule="evenodd" d="M46.7503 62.0219C46.7503 61.8272 46.7503 61.8272 46.7503 61.6326L48.8741 53.4597H45.2061L44.8197 54.6272C44.4332 53.849 43.662 53.0706 42.5026 53.0706C39.2195 53.0706 36.5176 56.7679 36.5176 61.2435C36.5176 63.5786 38.255 65.33 39.9923 65.33C41.5365 65.33 42.5026 64.357 43.0823 63.5786C43.2755 64.7461 44.4332 65.33 45.3993 65.33C46.3638 65.33 46.9435 65.1354 47.33 64.7461L47.9096 62.2165C47.7164 62.2165 47.5232 62.411 47.1367 62.411C46.9435 62.411 46.7503 62.2165 46.7503 62.0219ZM41.5365 62.6056C40.7652 62.6056 40.3788 61.8272 40.3788 60.6597C40.3788 58.5191 41.5365 55.9895 43.0823 55.9895C43.662 55.9895 44.24 56.7679 44.24 57.9354C44.24 59.8814 42.8891 62.6056 41.5365 62.6056Z" fill="#1B1918"/>
<path fill-rule="evenodd" clip-rule="evenodd" d="M34.7785 47.0378L33.0411 54.2379H29.5647L31.4969 47.0378H28.2138C27.4409 48.2054 26.4764 48.9838 24.7374 48.9838L24.1593 51.5135C24.3526 51.5135 24.5458 51.5135 24.7374 51.5135C25.5103 51.5135 26.0899 51.3189 26.8628 50.9298L23 65.3297H26.6696L28.7934 57.3514H32.075L30.1444 65.3297H33.814L38.4481 47.2324" fill="#1B1918"/>
<path fill-rule="evenodd" clip-rule="evenodd" d="M65.8666 54.4318C65.4801 53.848 64.5156 53.2641 63.5495 53.2641C60.2663 53.2641 57.5645 57.156 57.5645 61.4371C57.5645 63.7723 59.3018 65.5236 61.0392 65.5236C62.3918 65.5236 63.3563 64.7453 63.936 63.9669L63.5495 65.5236H66.6395L71.2736 47.4264H67.6039L65.8666 54.4318ZM62.3918 62.6048C61.6189 62.6048 61.2324 61.8264 61.2324 60.6588C61.2324 58.5183 62.3918 55.9885 63.936 55.9885C64.5156 55.9885 65.0937 56.7669 65.0937 57.9345C65.0937 59.8804 63.936 62.6048 62.3918 62.6048Z" fill="#1B1918"/>
<path fill-rule="evenodd" clip-rule="evenodd" d="M57.7582 53.0706C56.5989 53.0706 55.6344 54.0435 55.0548 55.0165L55.4412 53.2651H51.7716L48.6816 65.1354H52.3512L53.8954 59.4921C54.2819 57.9354 55.248 56.3786 56.5989 56.3786C56.9853 56.3786 57.3718 56.5732 57.565 56.5732L58.5295 53.0706C58.3363 53.2651 57.9515 53.0706 57.7582 53.0706Z" fill="#1B1918"/>
<path fill-rule="evenodd" clip-rule="evenodd" d="M115.875 66.4973C115.102 66.4973 114.911 66.108 114.911 65.3297C114.911 64.9405 114.911 64.5513 114.911 64.162C114.911 62.7999 114.331 61.4378 113.365 60.854C115.489 60.4649 117.999 58.7135 117.999 55.9891C117.999 54.4324 116.841 53.0703 114.911 53.0703C113.751 53.0703 112.594 53.654 111.821 54.4324L113.751 47.0378H110.083L105.449 65.3297H109.117L110.083 61.6324C111.048 61.827 111.821 62.6054 111.821 63.9675C111.821 64.9405 111.627 65.5243 111.627 66.4973C111.627 68.2485 112.978 69.4161 114.911 69.4161C115.875 69.4161 116.841 69.0269 117.419 68.6378L116.841 66.3026C116.648 66.3026 116.262 66.4973 115.875 66.4973ZM110.661 59.2973C111.048 57.5459 112.594 55.6 113.945 55.6C114.524 55.6 114.911 55.9891 114.911 56.3784C114.717 57.935 112.978 59.2973 110.661 59.2973Z" fill="#1B1918"/>
<path fill-rule="evenodd" clip-rule="evenodd" d="M92.3187 53.0706C88.6508 53.0706 85.9473 56.5732 85.9473 60.6597C85.9473 63.384 87.8779 65.33 90.1949 65.33C94.0561 65.33 96.7596 61.8272 96.7596 57.9354C96.7596 55.0165 94.829 53.0706 92.3187 53.0706ZM90.5814 62.6056C90.0017 62.6056 89.422 61.8272 89.422 60.4651C89.422 58.13 90.5814 55.6002 92.1255 55.6002C92.8984 55.6002 93.2849 56.5732 93.2849 57.7409C93.2849 60.076 91.9323 62.6056 90.5814 62.6056Z" fill="#1B1918"/>
<path fill-rule="evenodd" clip-rule="evenodd" d="M101.01 60.4651C101.01 57.7409 102.556 55.7949 104.1 55.7949C104.873 55.7949 105.644 56.3786 106.03 56.7679L106.803 54.0435C106.224 53.6544 105.066 53.0706 103.907 53.0706C100.432 53.0706 97.5352 56.7679 97.5352 60.4651C97.5352 63.384 99.4658 65.33 101.976 65.33C102.942 65.33 103.713 65.1354 104.1 64.9409L104.873 62.2165C104.486 62.6056 103.907 62.6056 103.134 62.6056C101.783 62.6056 101.01 62.0219 101.01 60.4651Z" fill="#1B1918"/>
<path fill-rule="evenodd" clip-rule="evenodd" d="M85.5616 66.6924C84.7887 66.6924 84.4022 66.1086 84.4022 65.3303C84.4022 64.3573 84.5954 63.1898 84.5954 62.0222C84.5954 59.8816 83.4377 58.1303 82.6648 57.741C85.1751 57.1574 87.6854 54.6275 87.6854 52.0979C87.6854 49.3736 85.948 47.233 82.0852 47.233H78.6104C77.8375 48.4006 76.873 49.179 75.134 49.179L74.556 51.7086C74.7476 51.7086 74.9408 51.7086 75.134 51.7086C75.9069 51.7086 76.4865 51.5141 77.2578 51.1249L73.5898 65.3303H77.2578L78.9968 58.3249C80.1545 58.714 81.3139 60.0763 81.3139 61.8275C81.3139 63.5789 80.9274 64.5519 80.9274 66.4978C80.9274 68.6384 82.4716 69.8059 84.7886 69.8059C86.1412 69.8059 86.9125 69.4168 87.4922 68.8329L86.9125 66.4978C86.3344 66.6924 85.948 66.6924 85.5616 66.6924ZM80.1546 55.6005H79.3833L80.9274 49.7628H81.5071C83.0513 49.7628 83.6309 50.7358 83.6309 52.0979C83.6309 53.8493 82.4716 55.6005 80.1546 55.6005Z" fill="#1B1918"/>
<path d="M103.906 68.6379C104.099 68.4433 104.292 68.2488 104.292 68.0542C104.292 67.8596 104.099 67.6649 103.713 67.6649C103.519 67.6649 103.326 67.6649 103.326 67.6649V69.2217H103.519V68.6379L104.099 69.2217H104.292L103.906 68.6379ZM103.519 68.4433V68.0542C103.519 68.0542 103.519 68.0542 103.713 68.0542C103.906 68.0542 104.099 68.0542 104.099 68.2488C104.099 68.2488 103.906 68.4433 103.519 68.4433Z" fill="#1B1918"/>
<path d="M103.712 67.0812C102.939 67.0812 102.361 67.665 102.361 68.4433C102.361 69.2217 102.939 69.8056 103.712 69.8056C104.485 69.8056 105.065 69.2217 105.065 68.4433C105.065 67.665 104.485 67.0812 103.712 67.0812ZM103.712 69.611C103.133 69.611 102.555 69.0271 102.555 68.4433C102.555 67.8596 103.133 67.2757 103.712 67.2757C104.292 67.2757 104.872 67.8596 104.872 68.4433C104.872 69.2217 104.485 69.611 103.712 69.611Z" fill="#1B1918"/>
<path d="M59.6883 105.805C58.7222 105.805 58.1425 105.805 57.5645 105.805V99.1891C58.1425 99.1891 59.3018 99.1891 60.0747 99.1891C62.1986 99.1891 63.5495 100.162 63.5495 102.497C63.5495 104.832 61.8121 105.805 59.6883 105.805ZM59.8815 100.357C59.6883 100.357 59.3018 100.357 59.1086 100.357V104.249C59.3018 104.249 59.4951 104.249 59.8815 104.249C61.0392 104.249 62.0053 103.665 62.0053 102.303C61.8121 101.135 61.2324 100.357 59.8815 100.357Z" fill="#1B1918"/>
<path d="M68.7627 105.805L68.3763 104.638H65.866L65.4796 105.805H63.7422L66.2524 99.1891H68.1831L70.6933 105.805H68.7627ZM67.4102 101.913C67.2186 101.524 67.2186 101.135 67.0254 100.94C67.0254 101.33 66.8321 101.524 66.6389 101.913L66.0592 103.47H67.7966L67.4102 101.913Z" fill="#1B1918"/>
<path d="M74.7475 105.805H72.8169L70.3066 99.1891H72.0456L73.2034 102.303C73.3966 102.886 73.5898 103.47 73.783 104.054C73.9762 103.47 74.1695 102.692 74.3627 102.303L75.5204 99.1891H77.2578" fill="#1B1918"/>
<path d="M80.541 106C78.4172 106 77.2578 104.638 77.2578 102.692C77.2578 100.551 78.9952 99.1891 80.7342 99.1891C82.6648 99.1891 84.0158 100.357 84.0158 102.497C84.209 104.638 82.4716 106 80.541 106ZM80.7342 100.551C79.7681 100.551 78.9952 101.135 78.9952 102.497C78.9952 103.665 79.5749 104.443 80.7342 104.443C81.6987 104.443 82.4716 103.859 82.4716 102.497C82.4716 101.135 81.6987 100.551 80.7342 100.551Z" fill="#1B1918"/>
<path d="M86.5281 105.999C86.1416 105.999 85.562 105.999 85.1755 105.805V104.248C85.562 104.442 86.1416 104.442 86.5281 104.442C87.1061 104.442 87.4926 104.248 87.4926 103.664C87.4926 102.691 84.7891 103.275 84.7891 101.134C84.7891 99.7722 85.7552 98.9939 87.4926 98.9939C87.879 98.9939 88.2655 98.9939 88.6519 99.1885V100.551C88.2655 100.356 87.879 100.356 87.4926 100.356C86.7197 100.356 86.5281 100.551 86.5281 100.94C86.5281 101.913 89.2299 101.524 89.2299 103.469C89.4232 105.026 88.4587 105.999 86.5281 105.999Z" fill="#1B1918"/>
<path d="M70 146L63.9378 135.5L76.0622 135.5L70 146Z" fill="#EDCD51"/>
</svg>
