<svg width="60" height="60" viewBox="0 0 60 60" fill="none" xmlns="http://www.w3.org/2000/svg">
<rect x="1" y="1" width="58" height="58" rx="29" fill="#EDCD51"/>
<rect x="1" y="1" width="58" height="58" rx="29" stroke="white" stroke-width="2"/>
<path d="M23.4354 35.6895H36.5656C37.5504 35.6895 38.3506 34.8915 38.3506 33.9052V23.121C38.3506 20.6557 36.3526 18.6577 33.8881 18.6577H26.1121C23.6484 18.6577 21.6504 20.6557 21.6504 23.121V33.9052C21.6504 34.8907 22.4499 35.6895 23.4354 35.6895ZM34.8346 33.2355C34.1776 33.2355 33.6444 32.7022 33.6444 32.0445C33.6444 31.3882 34.1776 30.855 34.8346 30.855C35.4924 30.855 36.0249 31.3882 36.0249 32.0445C36.0249 32.703 35.4924 33.2355 34.8346 33.2355ZM36.0241 23.2687V28.1775H30.9376V23.2687H36.0241ZM23.9761 23.2687H29.0619V28.1775H23.9761V23.2687ZM25.1664 30.8557C25.8234 30.8557 26.3559 31.389 26.3559 32.0452C26.3559 32.703 25.8234 33.2362 25.1664 33.2362C24.5086 33.2362 23.9761 32.703 23.9761 32.0452C23.9761 31.389 24.5086 30.8557 25.1664 30.8557Z" fill="#1B1918"/>
<path d="M36.9407 41.0035H39.1839L35.8877 36.6895H33.6437L34.5392 37.8617H25.4604L26.3559 36.6895H24.1127L20.8164 41.0035H23.0589L24.2184 39.4862H35.7819L36.9407 41.0035Z" fill="#1B1918"/>
</svg>
