<svg width="60" height="60" viewBox="0 0 60 60" fill="none" xmlns="http://www.w3.org/2000/svg">
<rect x="1" y="1" width="58" height="58" rx="29" fill="#C6CCFF"/>
<rect x="1" y="1" width="58" height="58" rx="29" stroke="white" stroke-width="2"/>
<path d="M23.4351 35.6895H36.5654C37.5501 35.6895 38.3504 34.8915 38.3504 33.9052V23.121C38.3504 20.6557 36.3524 18.6577 33.8879 18.6577H26.1119C23.6481 18.6577 21.6501 20.6557 21.6501 23.121V33.9052C21.6501 34.8907 22.4496 35.6895 23.4351 35.6895ZM34.8344 33.2355C34.1774 33.2355 33.6441 32.7022 33.6441 32.0445C33.6441 31.3882 34.1774 30.855 34.8344 30.855C35.4921 30.855 36.0246 31.3882 36.0246 32.0445C36.0246 32.703 35.4921 33.2355 34.8344 33.2355ZM36.0239 23.2687V28.1775H30.9374V23.2687H36.0239ZM23.9759 23.2687H29.0616V28.1775H23.9759V23.2687ZM25.1661 30.8557C25.8231 30.8557 26.3556 31.389 26.3556 32.0452C26.3556 32.703 25.8231 33.2362 25.1661 33.2362C24.5084 33.2362 23.9759 32.703 23.9759 32.0452C23.9759 31.389 24.5084 30.8557 25.1661 30.8557Z" fill="black"/>
<path d="M36.9404 41.0035H39.1837L35.8874 36.6895H33.6434L34.5389 37.8617H25.4602L26.3557 36.6895H24.1124L20.8162 41.0035H23.0587L24.2182 39.4862H35.7817L36.9404 41.0035Z" fill="black"/>
</svg>
