<svg width="60" height="60" viewBox="0 0 60 60" fill="none" xmlns="http://www.w3.org/2000/svg">
<rect x="1" y="1" width="58" height="58" rx="29" fill="#C6CCFF"/>
<rect x="1" y="1" width="58" height="58" rx="29" stroke="white" stroke-width="2"/>
<g clip-path="url(#clip0_3355_6275)">
<path d="M41.322 18.6776C40.4047 17.7603 38.9128 17.7756 38.0146 18.7116L33.0981 23.8349L21.0999 19.8643L18.5812 22.3829L28.5821 28.5407L23.5217 33.8138L20.2765 33.2811L18 35.5575L22.7709 37.2286L24.442 41.9995L26.7185 39.723L26.1857 36.4778L31.4588 31.4174L37.6166 41.4183L40.1353 38.8996L36.1647 26.9014L41.2879 21.9849C42.2239 21.0867 42.2392 19.5949 41.322 18.6776Z" fill="black"/>
</g>
<defs>
<clipPath id="clip0_3355_6275">
<rect width="24" height="24" fill="white" transform="translate(18 18)"/>
</clipPath>
</defs>
</svg>
