<svg width="60" height="60" viewBox="0 0 60 60" fill="none" xmlns="http://www.w3.org/2000/svg">
<rect x="1" y="1" width="58" height="58" rx="29" fill="#E58E8E"/>
<rect x="1" y="1" width="58" height="58" rx="29" stroke="white" stroke-width="2"/>
<g clip-path="url(#clip0_3355_6282)">
<path d="M40.9171 28.2485C39.0328 29.6969 34.8234 30.7095 30 30.7095C25.1766 30.7095 20.9672 29.6969 19.0829 28.2485C18.3797 27.7142 18 27.1235 18 26.4907V30.0063C18 32.3407 23.4047 34.2251 30 34.2251C36.5953 34.2251 42 32.3407 42 30.0063V26.4907C42 27.1236 41.6203 27.7142 40.9171 28.2485Z" fill="white"/>
<path d="M29.2969 35.6187C28.3249 35.5987 27.3807 35.5425 26.4844 35.4453V38.9317C27.4068 39.0441 28.3519 39.1111 29.2969 39.1338V35.6187Z" fill="white"/>
<path d="M33.5156 35.4453C32.6193 35.5425 31.6751 35.5987 30.7031 35.6187V39.1338C31.6481 39.1112 32.5932 39.0441 33.5156 38.9318V35.4453Z" fill="white"/>
<path d="M34.9219 35.2543V38.7209C38.8185 38.0285 42 36.5008 42 34.2251V31.4126C42 33.1254 39.0632 34.5927 34.9219 35.2543Z" fill="white"/>
<path d="M25.0781 38.7209V35.2543C20.9368 34.5926 18 33.1254 18 31.4126V34.2251C18 36.5008 21.1815 38.0285 25.0781 38.7209Z" fill="white"/>
<path d="M29.2978 20.8657C26.8513 20.9161 24.6067 21.2371 22.7734 21.7299L26.7823 26.2669C27.5394 26.0256 28.3902 25.8694 29.2978 25.8159V20.8657Z" fill="white"/>
<path d="M18 25.0846C18 26.6091 20.3458 27.9407 23.779 28.6819C23.8578 28.4209 23.9709 28.1643 24.1498 27.9204C24.448 27.5132 24.8913 27.1581 25.4234 26.8532L21.3073 22.1948C19.2911 22.9501 18 23.965 18 25.0846Z" fill="white"/>
<path d="M30.7031 20.8657V25.8154C31.5859 25.868 32.4174 26.019 33.1618 26.2508L37.0386 21.68C35.2407 21.2162 33.0661 20.9144 30.7031 20.8657Z" fill="white"/>
<path d="M25.1738 28.9423C26.6506 29.1727 28.2807 29.3032 29.9992 29.3032C31.7115 29.3032 33.3362 29.1739 34.8087 28.9451C34.7716 28.8681 34.7474 28.7916 34.6863 28.7134C34.115 27.9814 32.4039 27.1938 29.9992 27.1938C27.5431 27.1938 25.8327 28.0014 25.2834 28.7512C25.2336 28.819 25.2037 28.8807 25.1738 28.9423Z" fill="white"/>
<path d="M38.506 22.1226L34.5195 26.8227C35.0464 27.1159 35.4894 27.4569 35.7944 27.8475C36.0014 28.1124 36.1371 28.3934 36.2239 28.681C39.6552 27.9396 41.9992 26.6084 41.9992 25.0844C41.9992 23.9297 40.6354 22.8843 38.506 22.1226Z" fill="white"/>
</g>
<defs>
<clipPath id="clip0_3355_6282">
<rect width="24" height="24" fill="white" transform="translate(18 18)"/>
</clipPath>
</defs>
</svg>
