<svg width="60" height="60" viewBox="0 0 60 60" fill="none" xmlns="http://www.w3.org/2000/svg">
<rect x="1" y="1" width="58" height="58" rx="29" fill="#EDCD51"/>
<rect x="1" y="1" width="58" height="58" rx="29" stroke="white" stroke-width="2"/>
<g clip-path="url(#clip0_2070_7440)">
<path d="M41.5913 23.2225L41.5325 23.1637C40.9807 22.6119 40.0814 22.6106 39.5262 23.1653L37.3664 25.3479C37.2527 25.462 37.0706 25.4666 36.9519 25.3574L33.9239 22.5618C33.6298 22.29 33.2471 22.1406 32.8462 22.1406H28.3417C28.2354 22.1406 28.1337 22.1812 28.0567 22.254L24.2389 25.879C23.6796 26.4387 23.6412 27.3409 24.1537 27.8903C24.4276 28.184 24.7974 28.3457 25.1949 28.3457H25.202C25.5962 28.3437 25.9751 28.1761 26.237 27.8899L28.9333 25.0363H29.8984L23.606 32.0689H19.725C18.8049 32.0689 18.0484 32.7568 18.0024 33.635C17.978 34.0938 18.1385 34.5298 18.4542 34.8624C18.7652 35.1904 19.2025 35.3782 19.6547 35.3782H25.4461C25.5602 35.3782 25.6695 35.3311 25.748 35.2471L28.7153 32.0796L31.2106 34.689L30.4573 39.5033C30.2674 40.3009 30.6501 41.1133 31.367 41.4339C31.5879 41.5332 31.8224 41.5828 32.0557 41.5828C32.3068 41.5828 32.5567 41.5253 32.7867 41.4116C33.231 41.1915 33.5503 40.789 33.6665 40.2884L34.9535 33.3855C34.9783 33.2515 34.9357 33.1133 34.8389 33.0169L31.4042 29.5868L34.1328 26.8623L36.0349 28.764C36.566 29.2951 37.4918 29.2951 38.0226 28.764L41.5914 25.1956C41.8549 24.9321 42.0001 24.5813 42.0001 24.209C42 23.8364 41.8548 23.486 41.5913 23.2225Z" fill="#1B1918"/>
<path d="M37.0289 23.3816C38.3978 23.3816 39.511 22.2684 39.511 20.8995C39.511 19.5307 38.3978 18.4175 37.0289 18.4175C35.6601 18.4175 34.5469 19.5307 34.5469 20.8995C34.5469 22.2684 35.6601 23.3816 37.0289 23.3816Z" fill="#1B1918"/>
</g>
<defs>
<clipPath id="clip0_2070_7440">
<rect width="24" height="24" fill="white" transform="translate(18 18)"/>
</clipPath>
</defs>
</svg>
