<svg width="60" height="60" viewBox="0 0 60 60" fill="none" xmlns="http://www.w3.org/2000/svg">
<rect x="1" y="1" width="58" height="58" rx="29" fill="#EDCD51"/>
<rect x="1" y="1" width="58" height="58" rx="29" stroke="white" stroke-width="2"/>
<g clip-path="url(#clip0_2070_7472)">
<path d="M34.2497 42H25.7497C25.3797 42 25.0647 41.73 25.0087 41.364L24.0087 34.864C23.9757 34.648 24.0377 34.427 24.1807 34.261C24.3237 34.095 24.5307 34 24.7497 34H35.2497C35.4687 34 35.6767 34.096 35.8187 34.262C35.9607 34.428 36.0237 34.648 35.9907 34.865L34.9907 41.365C34.9347 41.73 34.6197 42 34.2497 42Z" fill="#1B1918"/>
<path d="M30 26C32.2091 26 34 24.2091 34 22C34 19.7909 32.2091 18 30 18C27.7909 18 26 19.7909 26 22C26 24.2091 27.7909 26 30 26Z" fill="#1B1918"/>
<path d="M41.2163 31C41.0573 28.783 39.8653 26.731 37.9983 25.49C37.9933 24.666 37.3243 24 36.4993 24C35.6713 24 34.9993 24.672 34.9993 25.5C34.9993 26.328 35.6713 27 36.4993 27C36.7733 27 37.0263 26.921 37.2473 26.793C38.6543 27.762 39.5633 29.315 39.7163 31H37.9393C37.5793 28.74 35.6193 27 33.2493 27H26.7493C24.3793 27 22.4193 28.74 22.0593 31H18.7493C18.2183 31 17.8753 31.538 18.0393 32.01L20.0393 37.51C20.1493 37.8 20.4293 38 20.7493 38H22.4693L22.0293 35.17C21.9093 34.37 22.1393 33.57 22.6593 32.96C23.1053 32.425 23.8943 32 24.7493 32H35.2493C36.0043 32 36.7663 32.311 37.3393 32.96C37.8593 33.57 38.0893 34.37 37.9693 35.17L37.5293 38H39.2493C39.5693 38 39.8493 37.8 39.9593 37.51L41.9593 32.01C42.1173 31.555 41.8153 31 41.2163 31Z" fill="#1B1918"/>
</g>
<defs>
<clipPath id="clip0_2070_7472">
<rect width="24" height="24" fill="white" transform="translate(18 18)"/>
</clipPath>
</defs>
</svg>
