<svg width="60" height="60" viewBox="0 0 60 60" fill="none" xmlns="http://www.w3.org/2000/svg">
<rect x="1" y="1" width="58" height="58" rx="29" fill="#9AE58E"/>
<rect x="1" y="1" width="58" height="58" rx="29" stroke="white" stroke-width="2"/>
<path d="M37.5 39C38.3284 39 39 38.3284 39 37.5C39 36.6716 38.3284 36 37.5 36C36.6716 36 36 36.6716 36 37.5C36 38.3284 36.6716 39 37.5 39Z" fill="black"/>
<path d="M35 23.92L27 20V38H25V36.27C23.21 36.62 22 37.26 22 38C22 39.1 24.69 40 28 40C31.31 40 34 39.1 34 38C34 37.01 31.84 36.19 29 36.03V26.98L35 23.92Z" fill="black"/>
</svg>
