<svg width="60" height="60" viewBox="0 0 60 60" fill="none" xmlns="http://www.w3.org/2000/svg">
<rect x="1" y="1" width="58" height="58" rx="29" fill="#EDCD51"/>
<rect x="1" y="1" width="58" height="58" rx="29" stroke="white" stroke-width="2"/>
<path d="M41.2969 26.4844H38.8223L33.4084 19.717C33.1659 19.4139 32.7234 19.3646 32.4202 19.6072C32.1169 19.8498 32.0677 20.2923 32.3104 20.5955L37.0215 26.4844H22.9785L27.6897 20.5955C27.9323 20.2923 27.8831 19.8498 27.5799 19.6072C27.2766 19.3646 26.8342 19.4138 26.5916 19.717L21.1777 26.4844H18.7031C18.3148 26.4844 18 26.7992 18 27.1875V28.5937C18 28.9821 18.3148 29.2969 18.7031 29.2969H41.2969C41.6852 29.2969 42 28.9821 42 28.5937V27.1875C42 26.7992 41.6852 26.4844 41.2969 26.4844Z" fill="#1B1918"/>
<path d="M22.2449 40.0369C22.3311 40.3388 22.607 40.5469 22.921 40.5469H37.0772C37.3911 40.5469 37.667 40.3388 37.7533 40.0369L40.4201 30.7031H19.5781L22.2449 40.0369ZM33.2196 36.9157L33.9227 32.697C33.9866 32.3139 34.3488 32.055 34.7319 32.119C35.1149 32.1828 35.3737 32.5451 35.3098 32.9281L34.6067 37.1469C34.5494 37.4908 34.2515 37.7346 33.914 37.7346C33.8756 37.7346 33.8367 37.7314 33.7976 37.7249C33.4145 37.661 33.1558 37.2987 33.2196 36.9157ZM29.296 32.8125C29.296 32.4242 29.6108 32.1094 29.9991 32.1094C30.3874 32.1094 30.7022 32.4242 30.7022 32.8125V37.0312C30.7022 37.4196 30.3874 37.7344 29.9991 37.7344C29.6108 37.7344 29.296 37.4196 29.296 37.0312V32.8125ZM25.3132 32.119C25.6963 32.0552 26.0585 32.3139 26.1223 32.697L26.8255 36.9157C26.8893 37.2987 26.6306 37.661 26.2475 37.7249C26.2084 37.7314 26.1695 37.7346 26.1311 37.7346C25.7935 37.7346 25.4957 37.4909 25.4383 37.1469L24.7352 32.9281C24.6714 32.5451 24.9301 32.1828 25.3132 32.119Z" fill="#1B1918"/>
</svg>
