<svg width="60" height="60" viewBox="0 0 60 60" fill="none" xmlns="http://www.w3.org/2000/svg">
<rect x="1" y="1" width="58" height="58" rx="29" fill="#9AE58E"/>
<rect x="1" y="1" width="58" height="58" rx="29" stroke="white" stroke-width="2"/>
<g clip-path="url(#clip0_3355_6320)">
<path d="M40.5092 24.7017C41.6554 24.1393 42.1292 22.7548 41.5668 21.6091C41.0057 20.4624 39.6208 19.9891 38.4746 20.551C37.3289 21.1126 36.8554 22.4971 37.417 23.6428C37.9786 24.789 39.363 25.2628 40.5092 24.7017Z" fill="black"/>
<path d="M34.2376 27.681C34.0531 28.5799 34.1341 29.3847 35.0297 29.6311C35.0297 29.6311 39.1497 30.7627 39.1514 30.7632L39.1537 30.7637C39.8229 30.9469 40.5079 30.553 40.6901 29.8893C40.8723 29.2246 40.4826 28.5373 39.8179 28.3538C39.8171 28.3533 39.8166 28.3533 39.8157 28.3528L37.7145 27.7758L36.8839 27.2215C37.1354 25.9985 37.0459 26.4326 37.2696 25.3451C37.3876 24.7723 36.9486 24.0398 36.6913 23.5145C36.2071 22.5274 35.0152 22.1196 34.0287 22.6034L32.6488 23.2799L34.8498 24.7497C34.7992 24.9243 34.6798 25.5283 34.6401 25.7228L24.9198 19.2332C24.4957 18.9483 23.9201 19.0632 23.6358 19.4891C23.3518 19.9141 23.4662 20.4892 23.8916 20.7731L34.2376 27.681Z" fill="black"/>
<path d="M41.8684 38.5376C41.6067 38.0991 41.0392 37.9567 40.5983 38.2189L39.3233 38.9817L30.8891 36.0789L34.8661 32.7285C35.6221 32.0924 35.5832 30.91 34.7816 30.3254L32.5562 28.7035L33.3551 28.312L33.4473 28.2668L28.8025 25.1655L28.8016 25.166C28.0261 25.5462 27.5328 26.267 27.4035 27.059C27.243 28.0366 27.6517 28.8871 28.5759 29.5838L31.4068 31.647L27.5523 34.9304L19.2278 32.0652C18.7431 31.8975 18.2168 32.1551 18.0508 32.639C17.884 33.1228 18.1413 33.6496 18.6246 33.8164L39.1274 40.8729C39.2256 40.9069 39.3278 40.9236 39.4291 40.9236C39.5946 40.9236 39.7592 40.8793 39.9048 40.792L41.5497 39.8077C41.9883 39.5454 42.1311 38.9766 41.8684 38.5376Z" fill="black"/>
</g>
<defs>
<clipPath id="clip0_3355_6320">
<rect width="24" height="24" fill="white" transform="translate(18 18)"/>
</clipPath>
</defs>
</svg>
