<svg width="60" height="60" viewBox="0 0 60 60" fill="none" xmlns="http://www.w3.org/2000/svg">
<rect x="1" y="1" width="58" height="58" rx="29" fill="#EDCD51"/>
<rect x="1" y="1" width="58" height="58" rx="29" stroke="white" stroke-width="2"/>
<path d="M41.2144 34.0388C40.3662 34.0388 39.5612 33.6694 39.0056 33.0251C38.8565 32.8521 38.6392 32.7525 38.4107 32.7525C38.1822 32.7525 37.965 32.852 37.8158 33.0251C37.2604 33.6693 36.4554 34.0387 35.6071 34.0387C34.7589 34.0387 33.954 33.6693 33.3984 33.025C33.2492 32.852 33.032 32.7524 32.8035 32.7524C32.575 32.7524 32.3578 32.8519 32.2086 33.025C31.6532 33.6692 30.8481 34.0387 29.9999 34.0387C29.1517 34.0387 28.3468 33.6692 27.7913 33.025C27.642 32.8519 27.4249 32.7524 27.1963 32.7524C26.9678 32.7524 26.7507 32.8519 26.6014 33.025C26.0459 33.6693 25.2409 34.0387 24.3927 34.0387C23.5445 34.0387 22.7395 33.6693 22.1841 33.0251C22.0348 32.852 21.8176 32.7525 21.5891 32.7525C21.3606 32.7525 21.1435 32.852 20.9942 33.0251C20.4387 33.6694 19.6337 34.0388 18.7856 34.0388C18.3517 34.0388 18 34.3905 18 34.8244C18 35.2583 18.3517 35.6099 18.7856 35.6099C19.6993 35.6099 20.5799 35.3311 21.3193 34.8244C21.4114 34.7613 21.5018 34.6952 21.5892 34.6251C21.6767 34.6952 21.767 34.7613 21.8591 34.8244C22.5984 35.3311 23.4791 35.6099 24.3928 35.6099C25.3065 35.6099 26.1872 35.3311 26.9265 34.8244C27.0186 34.7613 27.109 34.6952 27.1964 34.6251C27.2839 34.6952 27.3742 34.7613 27.4663 34.8244C28.2056 35.3311 29.0863 35.6099 30 35.6099C30.9137 35.6099 31.7944 35.3311 32.5337 34.8244C32.6258 34.7613 32.716 34.6952 32.8036 34.6251C32.891 34.6952 32.9814 34.7613 33.0735 34.8244C33.8127 35.3311 34.6934 35.6099 35.6072 35.6099C36.521 35.6099 37.4016 35.3311 38.1409 34.8244C38.233 34.7613 38.3232 34.6952 38.4108 34.6251C38.4982 34.6952 38.5886 34.7613 38.6807 34.8244C39.42 35.3311 40.3007 35.6099 41.2144 35.6099C41.6483 35.6099 42 35.2583 42 34.8244C42 34.3905 41.6482 34.0388 41.2144 34.0388Z" fill="#1B1918"/>
<path d="M41.2144 29.8577C40.3662 29.8577 39.5612 29.4882 39.0056 28.844C38.8565 28.671 38.6392 28.5714 38.4107 28.5714C38.1822 28.5714 37.965 28.6709 37.8158 28.844C37.2604 29.4881 36.4554 29.8576 35.6071 29.8576C34.7589 29.8576 33.954 29.4881 33.3984 28.8439C33.2492 28.6709 33.032 28.5713 32.8035 28.5713C32.575 28.5713 32.3578 28.6708 32.2086 28.8439C31.6532 29.488 30.8481 29.8575 29.9999 29.8575C29.1517 29.8575 28.3468 29.488 27.7913 28.8439C27.642 28.6708 27.4249 28.5713 27.1963 28.5713C26.9678 28.5713 26.7507 28.6708 26.6014 28.8439C26.0459 29.4881 25.2409 29.8576 24.3927 29.8576C23.5445 29.8576 22.7395 29.4881 22.1841 28.844C22.0348 28.6709 21.8176 28.5714 21.5891 28.5714C21.3606 28.5714 21.1435 28.6709 20.9942 28.844C20.4387 29.4882 19.6337 29.8577 18.7856 29.8577C18.3517 29.8577 18 30.2094 18 30.6432C18 31.0771 18.3517 31.4288 18.7856 31.4288C19.6993 31.4288 20.5799 31.1499 21.3193 30.6432C21.4114 30.5801 21.5017 30.5141 21.5892 30.444C21.6767 30.5141 21.767 30.5801 21.8591 30.6432C22.5984 31.1499 23.4791 31.4288 24.3928 31.4288C25.3065 31.4288 26.1872 31.1499 26.9265 30.6432C27.0186 30.5801 27.1089 30.5141 27.1964 30.444C27.2839 30.5141 27.3742 30.5801 27.4663 30.6432C28.2056 31.1499 29.0863 31.4288 30 31.4288C30.9137 31.4288 31.7944 31.1499 32.5337 30.6432C32.6258 30.5801 32.716 30.5141 32.8036 30.444C32.891 30.5141 32.9814 30.5801 33.0735 30.6432C33.8128 31.1499 34.6934 31.4288 35.6072 31.4288C36.521 31.4288 37.4016 31.1499 38.1409 30.6432C38.233 30.5801 38.3232 30.5141 38.4108 30.444C38.4982 30.5141 38.5886 30.5801 38.6807 30.6432C39.4201 31.1499 40.3007 31.4288 41.2144 31.4288C41.6483 31.4288 42 31.0771 42 30.6432C42 30.2094 41.6482 29.8577 41.2144 29.8577Z" fill="#1B1918"/>
<path d="M18.7856 27.2476C19.6993 27.2476 20.5799 26.9688 21.3193 26.4621C21.4114 26.399 21.5017 26.3329 21.5892 26.2628C21.6767 26.3329 21.767 26.399 21.8591 26.4621C22.5984 26.9688 23.4791 27.2476 24.3928 27.2476C25.3065 27.2476 26.1872 26.9688 26.9265 26.4621C27.0186 26.399 27.1089 26.3329 27.1964 26.2628C27.2839 26.3329 27.3742 26.399 27.4663 26.4621C28.2056 26.9688 29.0863 27.2476 30 27.2476C30.9137 27.2476 31.7944 26.9688 32.5337 26.4621C32.6258 26.399 32.716 26.3329 32.8036 26.2628C32.891 26.3329 32.9814 26.399 33.0735 26.4621C33.8128 26.9688 34.6934 27.2476 35.6072 27.2476C36.521 27.2476 37.4016 26.9688 38.1409 26.4621C38.233 26.399 38.3232 26.3329 38.4108 26.2628C38.4982 26.3329 38.5886 26.399 38.6807 26.4621C39.4201 26.9688 40.3007 27.2476 41.2144 27.2476C41.6483 27.2476 42 26.896 42 26.4621C42 26.0282 41.6483 25.6765 41.2144 25.6765C40.3663 25.6765 39.5613 25.3071 39.0057 24.6628C38.8565 24.4898 38.6393 24.3902 38.4108 24.3902C38.1823 24.3902 37.9651 24.4897 37.8159 24.6628C37.2605 25.307 36.4555 25.6764 35.6072 25.6764C34.759 25.6764 33.9541 25.307 33.3985 24.6627C33.2493 24.4897 33.0321 24.3901 32.8036 24.3901C32.5751 24.3901 32.3579 24.4896 32.2086 24.6627C31.6532 25.3069 30.8482 25.6764 30 25.6764C29.1518 25.6764 28.3468 25.3069 27.7914 24.6627C27.6421 24.4896 27.4249 24.3901 27.1964 24.3901C26.9679 24.3901 26.7508 24.4896 26.6015 24.6627C26.046 25.307 25.241 25.6764 24.3928 25.6764C23.5446 25.6764 22.7395 25.3071 22.1841 24.6629C22.0349 24.4898 21.8177 24.3903 21.5892 24.3903C21.3607 24.3903 21.1435 24.4898 20.9943 24.6629C20.4387 25.3071 19.6337 25.6765 18.7856 25.6765C18.3517 25.6765 18 26.0282 18 26.4621C18 26.896 18.3517 27.2476 18.7856 27.2476Z" fill="#1B1918"/>
</svg>
