<svg width="76" height="80" viewBox="0 0 76 80" fill="none" xmlns="http://www.w3.org/2000/svg">
<path d="M14 39H21V46H14V39Z" fill="#EDCD51"/>
<path d="M35.4999 39.9999H40.4999V44.9998H35.4999V39.9999Z" fill="#EDCD51"/>
<path d="M55.4999 39.9999H60.4999V44.9998H55.4999V39.9999Z" fill="#EDCD51"/>
<path d="M55.4999 59.9999H60.4999V64.9999H55.4999V59.9999Z" fill="#EDCD51"/>
<path d="M35.4999 59.9999H40.4999V64.9999H35.4999V59.9999Z" fill="#EDCD51"/>
<path d="M15.5 59.9999H20.5V64.9999H15.5V59.9999Z" fill="#EDCD51"/>
<path fill-rule="evenodd" clip-rule="evenodd" d="M65.5 4.99999H55.4999V2.5C55.4999 1.11997 54.3799 0 53 0C51.6201 0 50.5 1.11997 50.5 2.5V4.99999H25.5001V2.5C25.5 1.11997 24.38 0 23 0C21.6199 0 20.5 1.11997 20.5 2.5V4.99999H10.5C4.97757 4.99999 0.5 9.47756 0.5 15V69.9998C0.5 75.5223 4.97757 80 10.5 80H65.4999C71.0223 80 75.4999 75.5224 75.4999 69.9998V15C75.4999 9.47744 71.0224 4.99999 65.5 4.99999ZM70.5 69.9998C70.5 72.7624 68.2625 74.9999 65.5 74.9999H10.5C7.73749 74.9999 5.49999 72.7598 5.49999 69.9998V25H70.4999L70.5 69.9998ZM70.5 20H5.49999V15C5.49999 12.2375 7.73749 9.99998 10.5 9.99998H20.5V12.5C20.5 13.88 21.6199 15 23 15C24.38 15 25.5 13.88 25.5 12.5V9.99998H50.4999V12.5C50.4999 13.88 51.62 15 52.9999 15C54.3798 15 55.4999 13.88 55.4999 12.5V9.99998H65.5C68.2625 9.99998 70.5 12.2375 70.5 15V20Z" fill="#EDCD51"/>
<path d="M34.5 39H41.5V46H34.5V39Z" fill="#EDCD51"/>
<path d="M55 39H62V46H55V39Z" fill="#EDCD51"/>
<path d="M55 59H62V66H55V59Z" fill="#EDCD51"/>
<path d="M34.5 59H41.5V66H34.5V59Z" fill="#EDCD51"/>
<path d="M14 59H21V66H14V59Z" fill="#EDCD51"/>
</svg>
