<svg width="81" height="80" viewBox="0 0 81 80" fill="none" xmlns="http://www.w3.org/2000/svg">
<g clip-path="url(#clip0_1859_615)">
<path d="M19.8128 43.8432C16.9562 41.1365 5.53323 40.26 2.10004 40.0566C1.62006 40.0498 1.19007 40.1933 0.856797 40.5065C0.523369 40.82 0.333374 41.26 0.333374 41.72V71.7191C0.333374 72.6391 1.08007 73.3858 2.00005 73.3858H11.9998C12.7198 73.3858 13.3597 72.9191 13.583 72.2358C13.8263 71.4891 19.5696 53.8631 20.3261 45.1966C20.3695 44.6899 20.1828 44.1899 19.8128 43.8432ZM10.7831 70.0525H3.66656V43.5066C9.02314 43.9299 14.803 44.8499 16.9029 45.8698C16.0197 53.1696 12.0231 66.1393 10.7831 70.0525Z" fill="#EDCD51"/>
<path d="M80.1579 64.3026C77.8413 59.6728 72.7181 57.3161 67.6983 58.5728L54.9286 61.766C54.0353 61.9893 53.4919 62.8927 53.7154 63.7859C53.9386 64.6792 54.842 65.2259 55.7353 64.9992L68.5049 61.8125C71.4182 61.0858 74.3848 62.1058 76.2215 64.3325L59.6986 71.8456C45.6857 77.5887 45.2023 77.4054 39.1925 75.1387L14.1932 66.8057C13.3165 66.5157 12.3765 66.9857 12.0865 67.8589C11.7965 68.7322 12.2665 69.6756 13.1397 69.9656L38.0758 78.2754C40.879 79.3321 42.8124 79.9453 44.9856 79.9453C48.3655 79.9453 52.3254 78.4686 61.0252 74.8987L79.3579 66.5657C79.7679 66.379 80.0879 66.0324 80.2379 65.6057C80.3879 65.176 80.3612 64.7093 80.1579 64.3026Z" fill="#EDCD51"/>
<path d="M49.0253 53.4264L19.0262 46.7598C18.1362 46.5765 17.2362 47.1298 17.0362 48.0265C16.8395 48.9265 17.4029 49.8165 18.3029 50.0165L48.2588 56.673C51.952 57.5962 53.4354 59.0496 53.6386 62.0928L50.4387 62.8928C49.252 63.1895 47.9921 63.2228 46.7856 62.9795L32.3259 60.0863C31.4093 59.8963 30.546 60.4896 30.366 61.393C30.186 62.2963 30.7693 63.173 31.6727 63.353L46.1356 66.2462C46.8855 66.3962 47.6555 66.4694 48.4222 66.4694C49.3755 66.4694 50.3322 66.3527 51.2489 66.1227L55.7355 65.0028C56.4787 64.816 56.9987 64.1495 56.9987 63.3861V62.8594C56.9986 57.7128 54.5552 54.8063 49.0253 53.4264Z" fill="#EDCD51"/>
<path d="M56.6151 20.6573C56.2984 20.274 55.8284 20.054 55.3319 20.054H41.999C41.509 20.054 41.0457 20.2707 40.729 20.644C40.1157 21.3672 25.6761 38.4835 22.1128 47.7365C21.7828 48.5932 22.2095 49.5565 23.0695 49.8897C23.9194 50.2197 24.8894 49.793 25.2227 48.933C28.2293 41.12 40.1923 26.4969 42.7789 23.387H54.5453C60.3152 30.4535 73.6648 48.2363 73.6648 55.0529C73.6648 56.6695 73.4915 58.2661 73.1515 59.796C72.9548 60.696 73.5182 61.586 74.4182 61.786C74.5382 61.8127 74.6615 61.826 74.7815 61.826C75.5448 61.826 76.2315 61.2993 76.4047 60.5227C76.798 58.7561 76.998 56.9161 76.998 55.0529C76.998 45.5699 58.7018 23.1805 56.6151 20.6573Z" fill="#EDCD51"/>
<path d="M61.9984 20.0538H35.3324C34.4124 20.0538 33.6657 20.8005 33.6657 21.7205C33.6657 22.6405 34.4124 23.3872 35.3324 23.3872H61.9984C62.9184 23.3872 63.6651 22.6405 63.6651 21.7205C63.6651 20.8005 62.9184 20.0538 61.9984 20.0538Z" fill="#EDCD51"/>
<path d="M69.9148 2.28432C69.4448 1.75105 68.5581 1.11435 67.0248 1.11435C63.6749 1.11435 58.3484 4.35427 55.7751 6.06094C53.8752 3.36101 51.0586 0.0543823 48.6653 0.0543823C46.2721 0.0543823 43.4555 3.36101 41.5555 6.06422C38.9823 4.35755 33.6557 1.11763 30.3058 1.11763C28.7692 1.11763 27.8859 1.75434 27.4159 2.2876C26.6592 3.1443 26.3159 4.25755 26.4259 5.50751C26.9626 11.6773 39.5289 21.8803 40.9588 23.0238C41.2521 23.257 41.6221 23.387 41.9988 23.387H55.3319C55.7086 23.387 56.0786 23.257 56.3718 23.0203C57.8018 21.8803 70.3682 11.6773 70.9047 5.50408C71.0147 4.25427 70.6715 3.14102 69.9148 2.28432ZM67.5815 5.21768C67.2783 8.6943 59.735 15.9907 54.7419 20.054H42.5855C37.5956 15.9908 30.0491 8.69102 29.7459 5.2144C29.7059 4.72769 29.8526 4.56113 29.8859 4.5077C29.9126 4.49098 30.0391 4.4477 30.2958 4.4477C32.7291 4.4477 38.1656 7.69433 41.0188 9.74084C41.3955 10.0075 41.8521 10.1041 42.3021 10.0241C42.7521 9.93739 43.1453 9.67412 43.392 9.29085C45.282 6.36421 47.8152 3.54772 48.6152 3.38429C49.4984 3.54757 52.0318 6.36421 53.925 9.29085C54.175 9.67412 54.5683 9.94083 55.015 10.0241C55.4683 10.1041 55.9283 10.0074 56.2983 9.74084C59.1549 7.69417 64.5913 4.4477 67.0212 4.4477C67.2712 4.4477 67.4012 4.49098 67.4112 4.49098C67.4748 4.56426 67.6248 4.73097 67.5815 5.21768Z" fill="#EDCD51"/>
<path d="M56.4256 33.4753H46.9744V37.5144H55.0961V41.0886H46.9744V44.1397H51.3387V47.3071H46.9744V50.1549H43.0148V47.3071H40.6448V44.1397H43.0148V29.8429H56.4256V33.4753Z" fill="#EDCD51"/>
</g>
<defs>
<clipPath id="clip0_1859_615">
<rect width="80" height="80" fill="white" transform="translate(0.333374)"/>
</clipPath>
</defs>
</svg>
