<svg width="81" height="102" viewBox="0 0 81 102" fill="none" xmlns="http://www.w3.org/2000/svg">
<path d="M69.0551 59.5722L80.6666 47.9607L58.8946 26.1887L55.3117 29.7716L43.8071 29.7824L41.1435 32.446H29.9418L24.5412 27.0454L0.666748 50.9198L14.2929 64.5039C13.5936 64.8384 12.9381 65.2932 12.3597 65.8717L9.92835 68.3032C6.1535 72.0042 7.86212 78.6105 12.9263 80.0249C11.6814 85.1051 16.3371 89.7589 21.4154 88.514C22.4856 92.3522 26.8012 94.5531 30.5531 93.1571C32.729 99.0981 40.8741 99.4194 43.5917 93.7287C47.3336 96.7743 53.123 95.1096 54.6557 90.5132C58.3701 91.7687 62.5421 89.5518 63.5866 85.7972C68.6672 87.0547 73.3249 82.3538 72.0714 77.3123C74.9768 76.5218 77.1936 73.6106 77.1328 70.5629C77.1328 68.6844 76.4011 66.9181 75.0728 65.5897L69.0551 59.5722ZM57.2556 34.4588L58.8946 32.8199L74.0356 47.9608L65.7398 56.2568L49.4935 40.0106L44.6419 44.8621C41.7364 47.7677 37.3091 48.247 33.9014 46.3004L45.751 34.4696L57.2556 34.4588ZM13.2438 71.6185L15.6752 69.187C16.5894 68.273 18.0767 68.273 18.9907 69.187L18.9908 69.1872C19.9048 70.1013 19.9048 71.5886 18.9908 72.5027L16.5593 74.9342C14.2695 77.042 11.1356 73.9085 13.2438 71.6185ZM18.1065 83.3336C17.1973 82.4607 17.1969 80.8909 18.1065 80.018L22.3062 75.8183C22.749 75.3755 23.3377 75.1316 23.9638 75.1316C26.0279 75.1144 27.0927 77.6804 25.6226 79.1329C25.6223 79.1332 25.622 79.1335 25.6217 79.1338C25.6173 79.1385 21.422 83.3336 21.422 83.3336C20.5494 84.2431 18.9791 84.2431 18.1065 83.3336ZM26.5058 88.1963C25.5917 87.2821 25.5917 85.7948 26.5058 84.8808L28.9373 82.4493C29.8515 81.5353 31.3388 81.5353 32.2528 82.4493C33.1668 83.3635 33.1668 84.8506 32.2528 85.7648L29.8215 88.1963C28.9073 89.1105 27.42 89.1105 26.5058 88.1963ZM38.8851 92.3947C38.0209 93.3501 36.409 93.3791 35.5166 92.4475C34.0168 90.9587 35.163 88.3878 37.226 88.3948C39.2849 88.3809 40.3594 90.9266 38.8851 92.3947ZM71.7573 72.2209C70.8844 73.1304 69.3145 73.1304 68.4418 72.2209L62.6453 66.4243L59.3298 69.7398L66.8946 77.3045C67.8088 78.2187 67.8088 79.706 66.8946 80.6202C65.9804 81.5342 64.4931 81.5344 63.5791 80.6202L56.0144 73.0553C55.1881 73.8817 53.5251 75.5446 52.6989 76.3708L58.4955 82.1675C59.9659 83.619 58.9032 86.187 56.8376 86.1696C56.2114 86.1696 55.6227 85.9258 55.1798 85.483L49.3834 79.6865C48.5571 80.5128 46.8941 82.1758 46.0679 83.002L49.6541 86.5882C50.0969 87.031 50.3407 87.6199 50.3407 88.2458C50.3578 90.3111 47.7906 91.3744 46.3385 89.9035L42.1998 85.7648C40.963 84.528 39.3466 83.8094 37.6134 83.7159C37.4917 80.2349 34.4628 77.2086 30.9828 77.0887C30.8743 73.6524 27.8539 70.567 24.3513 70.4539C24.2591 68.7844 23.5773 67.1409 22.3038 65.8693L22.304 65.8692L7.3029 50.9147L24.541 33.6765L27.9994 37.135H36.4476L27.0454 46.5182L28.7049 48.1776C34.0127 53.4856 42.6494 53.4856 47.9575 48.1776L49.4935 46.6415L71.7571 68.9052C72.6713 69.8194 72.6713 71.3067 71.7573 72.2209Z" fill="#EDCD51"/>
<path d="M47.0847 18.1696C47.0847 18.5285 47.0961 18.9435 47.1188 19.4145C47.1416 19.8856 47.2212 20.3342 47.3576 20.7604C47.4941 21.1642 47.7102 21.5119 48.0059 21.8035C48.3016 22.0951 48.7224 22.2409 49.2682 22.2409C49.7914 22.2409 50.2008 22.0951 50.4965 21.8035C50.8149 21.5119 51.0424 21.1642 51.1788 20.7604C51.338 20.3342 51.429 19.8968 51.4518 19.4482C51.4973 18.9771 51.52 18.5621 51.52 18.2032C51.52 17.8668 51.4973 17.4742 51.4518 17.0256C51.429 16.5545 51.3494 16.1171 51.2129 15.7133C51.0765 15.2871 50.8604 14.9282 50.5647 14.6366C50.2918 14.3226 49.9051 14.1655 49.4047 14.1655C48.8588 14.1655 48.4267 14.3001 48.1082 14.5693C47.8125 14.8385 47.5851 15.175 47.4259 15.5787C47.2667 15.9825 47.1643 16.4199 47.1188 16.891C47.0961 17.362 47.0847 17.7882 47.0847 18.1696ZM43.6047 18.1359C43.6047 17.2162 43.7184 16.3638 43.9459 15.5787C44.1733 14.7936 44.5259 14.1095 45.0035 13.5262C45.4812 12.943 46.0839 12.4832 46.8118 12.1467C47.5396 11.8102 48.4039 11.642 49.4047 11.642C50.4737 11.642 51.3608 11.8214 52.0659 12.1804C52.771 12.5168 53.3396 12.9879 53.7718 13.5935C54.2267 14.1768 54.5451 14.8721 54.7271 15.6797C54.909 16.4872 55 17.3508 55 18.2705C55 19.1902 54.8863 20.0426 54.6588 20.8277C54.4314 21.6128 54.0788 22.297 53.6012 22.8802C53.1463 23.4634 52.5549 23.9233 51.8271 24.2598C51.0992 24.5738 50.2349 24.7308 49.2341 24.7308C48.1878 24.7308 47.3008 24.5626 46.5729 24.2261C45.8678 23.8896 45.2878 23.4298 44.8329 22.8466C44.4008 22.2409 44.0824 21.5343 43.8776 20.7268C43.6957 19.9192 43.6047 19.0556 43.6047 18.1359ZM46.2318 0H49.1318L35.0753 25H32.1071L46.2318 0ZM29.48 6.99866C29.48 7.35756 29.4914 7.76133 29.5141 8.20996C29.5369 8.65859 29.6165 9.08479 29.7529 9.48856C29.8894 9.8699 30.1055 10.1952 30.4012 10.4643C30.6969 10.7335 31.1176 10.8681 31.6635 10.8681C32.1867 10.8681 32.5961 10.7335 32.8918 10.4643C33.2102 10.1952 33.4376 9.8699 33.5741 9.48856C33.7333 9.08479 33.8243 8.66981 33.8471 8.24361C33.8925 7.79498 33.9153 7.39121 33.9153 7.0323C33.9153 6.69583 33.8925 6.29206 33.8471 5.821C33.8243 5.3275 33.7447 4.85644 33.6082 4.40781C33.4718 3.95918 33.2557 3.57784 32.96 3.2638C32.6871 2.94975 32.3004 2.79273 31.8 2.79273C31.2541 2.79273 30.822 2.93854 30.5035 3.23015C30.2078 3.52176 29.9804 3.88066 29.8212 4.30686C29.662 4.73306 29.5596 5.19291 29.5141 5.68641C29.4914 6.1799 29.48 6.61732 29.48 6.99866ZM26 6.93136C26 6.01167 26.1137 5.14805 26.3412 4.34051C26.5686 3.53298 26.9212 2.82638 27.3988 2.22073C27.8765 1.61507 28.4792 1.14401 29.2071 0.807539C29.9349 0.448633 30.7992 0.26918 31.8 0.26918C32.869 0.26918 33.7561 0.448633 34.4612 0.807539C35.1663 1.16644 35.7349 1.65994 36.1671 2.28802C36.622 2.89368 36.9404 3.61149 37.1224 4.44145C37.3043 5.27142 37.3953 6.14625 37.3953 7.06595C37.3953 7.98564 37.2816 8.83805 37.0541 9.62315C36.8267 10.3858 36.4741 11.0476 35.9965 11.6083C35.5416 12.1691 34.9502 12.6066 34.2224 12.9206C33.4945 13.2346 32.6302 13.3917 31.6294 13.3917C30.5831 13.3917 29.6961 13.2346 28.9682 12.9206C28.2631 12.5841 27.6831 12.1355 27.2282 11.5747C26.7961 10.9915 26.4776 10.3073 26.2729 9.52221C26.091 8.71467 26 7.85106 26 6.93136Z" fill="#EDCD51"/>
</svg>
