<svg width="32" height="32" viewBox="0 0 32 32" fill="none" xmlns="http://www.w3.org/2000/svg">
<path d="M16 5C15.7348 5 15.4804 4.89464 15.2929 4.70711C15.1054 4.51957 15 4.26522 15 4V2C15 1.73478 15.1054 1.48043 15.2929 1.29289C15.4804 1.10536 15.7348 1 16 1C16.2652 1 16.5196 1.10536 16.7071 1.29289C16.8946 1.48043 17 1.73478 17 2V4C17 4.26522 16.8946 4.51957 16.7071 4.70711C16.5196 4.89464 16.2652 5 16 5Z" fill="#FFC166"/>
<path d="M24.49 8.51004C24.3584 8.5108 24.2279 8.48558 24.1061 8.43581C23.9842 8.38605 23.8734 8.31272 23.78 8.22004C23.5937 8.03268 23.4892 7.77923 23.4892 7.51504C23.4892 7.25085 23.5937 6.9974 23.78 6.81004L25.19 5.39004C25.3783 5.20174 25.6337 5.09595 25.9 5.09595C26.1663 5.09595 26.4217 5.20174 26.61 5.39004C26.7983 5.57834 26.9041 5.83374 26.9041 6.10004C26.9041 6.36634 26.7983 6.62174 26.61 6.81004L25.19 8.22004C25.0037 8.40478 24.7523 8.50894 24.49 8.51004Z" fill="#FFC166"/>
<path d="M30 17H28C27.7348 17 27.4804 16.8946 27.2929 16.7071C27.1054 16.5196 27 16.2652 27 16C27 15.7348 27.1054 15.4804 27.2929 15.2929C27.4804 15.1054 27.7348 15 28 15H30C30.2652 15 30.5196 15.1054 30.7071 15.2929C30.8946 15.4804 31 15.7348 31 16C31 16.2652 30.8946 16.5196 30.7071 16.7071C30.5196 16.8946 30.2652 17 30 17Z" fill="#FFC166"/>
<path d="M25.9 26.9C25.7684 26.9007 25.6379 26.8755 25.5161 26.8257C25.3943 26.776 25.2834 26.7026 25.19 26.61L23.78 25.19C23.6753 25.1003 23.5903 24.99 23.5303 24.8659C23.4702 24.7419 23.4365 24.6067 23.4312 24.469C23.4259 24.3313 23.4491 24.194 23.4994 24.0656C23.5496 23.9373 23.6259 23.8208 23.7233 23.7233C23.8208 23.6259 23.9373 23.5496 24.0657 23.4993C24.194 23.4491 24.3313 23.4258 24.469 23.4312C24.6068 23.4365 24.7419 23.4702 24.866 23.5302C24.99 23.5903 25.1003 23.6753 25.19 23.78L26.61 25.19C26.7037 25.2829 26.7781 25.3935 26.8289 25.5154C26.8797 25.6372 26.9058 25.768 26.9058 25.9C26.9058 26.032 26.8797 26.1627 26.8289 26.2845C26.7781 26.4064 26.7037 26.517 26.61 26.61C26.5166 26.7026 26.4057 26.776 26.2839 26.8257C26.1621 26.8755 26.0316 26.9007 25.9 26.9Z" fill="#FFC166"/>
<path d="M16 31C15.7348 31 15.4804 30.8946 15.2929 30.7071C15.1054 30.5196 15 30.2652 15 30V28C15 27.7348 15.1054 27.4804 15.2929 27.2929C15.4804 27.1054 15.7348 27 16 27C16.2652 27 16.5196 27.1054 16.7071 27.2929C16.8946 27.4804 17 27.7348 17 28V30C17 30.2652 16.8946 30.5196 16.7071 30.7071C16.5196 30.8946 16.2652 31 16 31Z" fill="#FFC166"/>
<path d="M6.10001 26.9C5.9684 26.9007 5.83794 26.8755 5.7161 26.8257C5.59426 26.776 5.48345 26.7026 5.39001 26.61C5.29628 26.517 5.22188 26.4064 5.17111 26.2845C5.12035 26.1627 5.09421 26.032 5.09421 25.9C5.09421 25.768 5.12035 25.6372 5.17111 25.5154C5.22188 25.3935 5.29628 25.2829 5.39001 25.19L6.81001 23.78C6.89965 23.6753 7.00997 23.5903 7.13404 23.5302C7.2581 23.4702 7.39323 23.4365 7.53095 23.4312C7.66867 23.4258 7.806 23.4491 7.93433 23.4993C8.06265 23.5496 8.1792 23.6259 8.27666 23.7233C8.37411 23.8208 8.45037 23.9373 8.50064 24.0656C8.55092 24.194 8.57412 24.3313 8.5688 24.469C8.56348 24.6067 8.52976 24.7419 8.46973 24.8659C8.40971 24.99 8.32469 25.1003 8.22001 25.19L6.81001 26.61C6.71657 26.7026 6.60575 26.776 6.48391 26.8257C6.36208 26.8755 6.23161 26.9007 6.10001 26.9Z" fill="#FFC166"/>
<path d="M4 17H2C1.73478 17 1.48043 16.8946 1.29289 16.7071C1.10536 16.5196 1 16.2652 1 16C1 15.7348 1.10536 15.4804 1.29289 15.2929C1.48043 15.1054 1.73478 15 2 15H4C4.26522 15 4.51957 15.1054 4.70711 15.2929C4.89464 15.4804 5 15.7348 5 16C5 16.2652 4.89464 16.5196 4.70711 16.7071C4.51957 16.8946 4.26522 17 4 17Z" fill="#FFC166"/>
<path d="M7.51001 8.51004C7.24767 8.50894 6.99627 8.40478 6.81001 8.22004L5.39001 6.81004C5.2017 6.62174 5.09592 6.36634 5.09592 6.10004C5.09592 5.83374 5.2017 5.57834 5.39001 5.39004C5.57831 5.20174 5.83371 5.09595 6.10001 5.09595C6.36631 5.09595 6.6217 5.20174 6.81001 5.39004L8.22001 6.81004C8.40626 6.9974 8.5108 7.25085 8.5108 7.51504C8.5108 7.77923 8.40626 8.03268 8.22001 8.22004C8.12657 8.31272 8.01575 8.38605 7.89392 8.43581C7.77208 8.48558 7.64162 8.5108 7.51001 8.51004Z" fill="#FFC166"/>
<path d="M25 16C24.9975 17.8994 24.3942 19.7494 23.2763 21.2851C22.1584 22.8207 20.5833 23.9634 18.7765 24.5493C16.9697 25.1353 15.0239 25.1347 13.2175 24.5474C11.4111 23.9601 9.83679 22.8164 8.71999 21.28C8.57999 21.09 8.44999 20.89 8.32999 20.69C7.28738 18.9678 6.85231 16.9457 7.09434 14.9471C7.33638 12.9484 8.24154 11.0887 9.6651 9.6651C11.0887 8.24154 12.9484 7.33638 14.9471 7.09434C16.9457 6.85231 18.9678 7.28738 20.69 8.32999C20.89 8.44999 21.09 8.57999 21.28 8.71999C22.4343 9.55019 23.3739 10.6437 24.0209 11.9099C24.6679 13.176 25.0035 14.5781 25 16Z" fill="#FFC166"/>
<path d="M22 13C21.9994 14.5963 21.5742 16.1637 20.7681 17.5414C19.9619 18.9192 18.8039 20.0578 17.4126 20.8404C16.0214 21.6231 14.447 22.0216 12.8509 21.9952C11.2549 21.9687 9.69455 21.5183 8.32999 20.69C7.28738 18.9678 6.85231 16.9457 7.09434 14.9471C7.33638 12.9484 8.24154 11.0887 9.66511 9.6651C11.0887 8.24154 12.9484 7.33638 14.9471 7.09434C16.9457 6.85231 18.9678 7.28738 20.69 8.32999C21.5487 9.7362 22.002 11.3523 22 13Z" fill="#FFD64F"/>
</svg>
