<svg width="32" height="32" viewBox="0 0 32 32" fill="none" xmlns="http://www.w3.org/2000/svg">
<g clip-path="url(#clip0_3205_4964)">
<path d="M22.5625 6.5625C22.5625 6.79688 22.5332 7.1045 22.3977 7.23906C22.1194 7.51737 21.1379 7.51375 20.2535 7.50275L13.1875 7.5V9.375L15.0625 9.37569V12.1875H16.9375V9.3765C22.0816 9.38094 20.3074 9.37956 20.6912 9.37956C22.8361 9.37956 24.4375 8.887 24.4375 6.5625V4.6875H22.5625V6.5625Z" fill="#ECF2FF"/>
<path d="M0 1.875H21.625V3.75H0V1.875Z" fill="#ECF2FF"/>
<path d="M25.375 1.875H32V3.75H25.375V1.875Z" fill="#D9E5FF"/>
<path d="M16 1.875H21.625V3.75H16V1.875Z" fill="#D9E5FF"/>
<path d="M22.5625 6.5625C22.5625 6.79688 22.5332 7.1045 22.3977 7.23906C22.1194 7.51737 21.1379 7.51375 20.2535 7.50275L16 7.50112V12.1875H16.9375V9.3765C19.7182 9.37888 20.4717 9.37956 20.643 9.37969C20.6231 9.37969 20.6192 9.37956 20.6912 9.37956C22.8361 9.37956 24.4375 8.887 24.4375 6.5625V4.6875H22.5625V6.5625Z" fill="#D9E5FF"/>
<path d="M23.5 5.625C21.9491 5.625 20.6875 4.36337 20.6875 2.8125C20.6875 1.26163 21.9491 0 23.5 0C25.0509 0 26.3125 1.26163 26.3125 2.8125C26.3125 4.36337 25.0509 5.625 23.5 5.625Z" fill="#4D7F99"/>
<path d="M27.3125 11.25H21.625H4.6875C2.10206 11.25 0 13.3529 0 15.9375V28.125H4.6875V26.25H1.875V15.9375C1.875 14.3866 3.13663 13.125 4.6875 13.125H21.625H27.3125C28.8634 13.125 30.125 14.3866 30.125 15.9375V26.25H27.3125V28.125H32V15.9375C32 13.3529 29.8979 11.25 27.3125 11.25Z" fill="#D9E5FF"/>
<path d="M27.3125 11.25H21.625H16V13.125H21.625H27.3125C28.8634 13.125 30.125 14.3866 30.125 15.9375V26.25H27.3125V28.125H32V15.9375C32 13.3529 29.8979 11.25 27.3125 11.25Z" fill="#BFD6FF"/>
<path d="M26.375 28.125H5.625C4.58944 28.125 3.75 27.2856 3.75 26.25V21.5625C3.75 20.0092 5.00919 18.75 6.5625 18.75H10.375C11.0946 18.75 11.7519 19.0219 12.25 19.4678C12.7481 19.0219 13.4054 18.75 14.125 18.75H17.875C18.5946 18.75 19.2519 19.0219 19.75 19.4678C20.2481 19.0219 20.9054 18.75 21.625 18.75H25.4375C26.9908 18.75 28.25 20.0092 28.25 21.5625V26.25C28.25 27.2856 27.4106 28.125 26.375 28.125Z" fill="#406080"/>
<path d="M25.4375 18.75H21.625C20.9054 18.75 20.2481 19.0219 19.75 19.4678C19.2519 19.0219 18.5946 18.75 17.875 18.75H16V28.125H26.375C27.4106 28.125 28.25 27.2856 28.25 26.25V21.5625C28.25 20.0092 26.9908 18.75 25.4375 18.75Z" fill="#334D66"/>
<path d="M28.25 32H3.75V28.125C3.75 27.6072 4.16975 27.1875 4.6875 27.1875H27.3125C27.8302 27.1875 28.25 27.6072 28.25 28.125V32Z" fill="#4D7F99"/>
<path d="M16 32H28.25V28.125C28.25 27.6072 27.8302 27.1875 27.3125 27.1875H16V32Z" fill="#406080"/>
<path d="M28.25 28.125H3.75V26.25H28.25V28.125Z" fill="#ECF2FF"/>
<path d="M16 26.25H28.25V28.125H16V26.25Z" fill="#D9E5FF"/>
</g>
<defs>
<clipPath id="clip0_3205_4964">
<rect width="32" height="32" fill="white"/>
</clipPath>
</defs>
</svg>
