<svg width="32" height="32" viewBox="0 0 32 32" fill="none" xmlns="http://www.w3.org/2000/svg">
<path d="M15.4667 12.8H1.59999C1.31709 12.8 1.04578 12.6876 0.845745 12.4876C0.645706 12.2875 0.533325 12.0162 0.533325 11.7333C0.533325 11.4504 0.645706 11.1791 0.845745 10.9791C1.04578 10.779 1.31709 10.6666 1.59999 10.6666H15.4667C16.0996 10.6666 16.7182 10.479 17.2445 10.1273C17.7707 9.77572 18.1809 9.27595 18.4231 8.69122C18.6653 8.1065 18.7286 7.46309 18.6052 6.84235C18.4817 6.22161 18.1769 5.65142 17.7294 5.20389C17.2819 4.75637 16.7117 4.4516 16.0909 4.32812C15.4702 4.20465 14.8268 4.26802 14.2421 4.51022C13.6573 4.75242 13.1576 5.16257 12.806 5.68881C12.4543 6.21505 12.2667 6.83374 12.2667 7.46664C12.2667 7.74953 12.1543 8.02085 11.9542 8.22088C11.7542 8.42092 11.4829 8.5333 11.2 8.5333C10.9171 8.5333 10.6458 8.42092 10.4457 8.22088C10.2457 8.02085 10.1333 7.74953 10.1333 7.46664C10.1333 6.4118 10.4461 5.38066 11.0322 4.5036C11.6182 3.62653 12.4511 2.94295 13.4257 2.53928C14.4002 2.13561 15.4726 2.02999 16.5071 2.23578C17.5417 2.44157 18.492 2.94952 19.2379 3.6954C19.9838 4.44128 20.4917 5.39159 20.6975 6.42616C20.9033 7.46072 20.7977 8.53308 20.394 9.50762C19.9904 10.4822 19.3068 11.3151 18.4297 11.9011C17.5526 12.4872 16.5215 12.8 15.4667 12.8Z" fill="#BFD6FF"/>
<path d="M11.2 29.8666C9.78598 29.8651 8.43033 29.3027 7.43047 28.3028C6.43061 27.3029 5.86821 25.9473 5.86666 24.5333C5.86666 24.2504 5.97904 23.9791 6.17908 23.779C6.37912 23.579 6.65043 23.4666 6.93333 23.4666C7.21622 23.4666 7.48753 23.579 7.68757 23.779C7.88761 23.9791 7.99999 24.2504 7.99999 24.5333C7.99999 25.1662 8.18767 25.7849 8.53929 26.3111C8.89091 26.8373 9.39068 27.2475 9.97541 27.4897C10.5601 27.7319 11.2035 27.7953 11.8243 27.6718C12.445 27.5483 13.0152 27.2436 13.4627 26.796C13.9103 26.3485 14.215 25.7783 14.3385 25.1576C14.462 24.5368 14.3986 23.8934 14.1564 23.3087C13.9142 22.724 13.5041 22.2242 12.9778 21.8726C12.4516 21.521 11.8329 21.3333 11.2 21.3333H1.59999C1.31709 21.3333 1.04578 21.2209 0.845745 21.0209C0.645706 20.8208 0.533325 20.5495 0.533325 20.2666C0.533325 19.9837 0.645706 19.7124 0.845745 19.5124C1.04578 19.3123 1.31709 19.2 1.59999 19.2H11.2C12.6145 19.2 13.971 19.7619 14.9712 20.762C15.9714 21.7622 16.5333 23.1188 16.5333 24.5333C16.5333 25.9478 15.9714 27.3043 14.9712 28.3045C13.971 29.3047 12.6145 29.8666 11.2 29.8666Z" fill="#BFD6FF"/>
<path d="M25.6 26.6667C24.0446 26.6648 22.5535 26.0462 21.4537 24.9464C20.3538 23.8465 19.7352 22.3554 19.7333 20.8C19.7333 20.5171 19.8457 20.2458 20.0457 20.0458C20.2458 19.8457 20.5171 19.7333 20.8 19.7333C21.0829 19.7333 21.3542 19.8457 21.5542 20.0458C21.7543 20.2458 21.8667 20.5171 21.8667 20.8C21.8667 21.5384 22.0856 22.2602 22.4958 22.8741C22.9061 23.4881 23.4891 23.9666 24.1713 24.2492C24.8535 24.5317 25.6041 24.6057 26.3283 24.4616C27.0525 24.3176 27.7177 23.962 28.2399 23.4399C28.762 22.9178 29.1175 22.2525 29.2616 21.5284C29.4056 20.8042 29.3317 20.0535 29.0491 19.3713C28.7666 18.6892 28.2881 18.1061 27.6741 17.6959C27.0602 17.2856 26.3384 17.0667 25.6 17.0667H1.59999C1.31709 17.0667 1.04578 16.9543 0.845745 16.7543C0.645706 16.5542 0.533325 16.2829 0.533325 16C0.533325 15.7171 0.645706 15.4458 0.845745 15.2458C1.04578 15.0457 1.31709 14.9333 1.59999 14.9333H25.6C27.1559 14.9333 28.6481 15.5514 29.7484 16.6517C30.8486 17.7519 31.4667 19.2441 31.4667 20.8C31.4667 22.356 30.8486 23.8482 29.7484 24.9484C28.6481 26.0486 27.1559 26.6667 25.6 26.6667Z" fill="#A3B9DF"/>
</svg>
