<svg width="32" height="32" viewBox="0 0 32 32" fill="none" xmlns="http://www.w3.org/2000/svg">
<g clip-path="url(#clip0_3205_4994)">
<mask id="mask0_3205_4994" style="mask-type:luminance" maskUnits="userSpaceOnUse" x="0" y="0" width="32" height="32">
<path d="M0 1.90735e-06H32V32H0V1.90735e-06Z" fill="white"/>
</mask>
<g mask="url(#mask0_3205_4994)">
<path d="M31.0342 15.0342H28.8625L29.9455 13.9513C30.3226 13.5741 30.3226 12.9626 29.9455 12.5854C29.5683 12.2082 28.9568 12.2082 28.5796 12.5854L26.1308 15.0342H23.3991L24.4821 13.9513C24.8593 13.5741 24.8593 12.9626 24.4821 12.5854C24.105 12.2082 23.4935 12.2082 23.1163 12.5854L20.6675 15.0342H18.3316L23.8465 9.51931H24.4123H27.3096C27.843 9.51931 28.2755 9.08694 28.2755 8.55356V8.5535C28.2755 8.02013 27.843 7.58775 27.3096 7.58775H25.7781L27.3137 6.05213C27.6909 5.67494 27.6909 5.06344 27.3137 4.68625C26.9365 4.30913 26.325 4.30913 25.9479 4.68625L24.4123 6.22188V4.69038C24.4123 4.15694 23.9798 3.72457 23.4465 3.72457C22.9131 3.72457 22.4806 4.15694 22.4806 4.69038V7.58775V8.1535L16.9658 13.6684V11.3325L17.3658 10.9325L19.4146 8.88369C19.7918 8.50657 19.7918 7.89507 19.4146 7.51788C19.0375 7.14069 18.426 7.14069 18.0488 7.51788L16.9658 8.60081V5.86913L17.3658 5.46913L19.4146 3.42038C19.7918 3.04319 19.7918 2.43169 19.4146 2.0545C19.0375 1.67731 18.426 1.67731 18.0488 2.0545L16.9658 3.1375V0.965752C16.9658 0.432377 16.5334 1.90735e-06 16 1.90735e-06C15.4666 1.90735e-06 15.0342 0.432377 15.0342 0.965752V3.1375L13.9513 2.0545C13.5741 1.67731 12.9626 1.67731 12.5854 2.0545C12.2082 2.43169 12.2082 3.04319 12.5854 3.42038L14.6341 5.46913L15.0342 5.86913V8.60081L13.9513 7.51788C13.5741 7.14069 12.9626 7.14069 12.5854 7.51788C12.2082 7.89507 12.2082 8.50657 12.5854 8.88369L14.6341 10.9325L15.0342 11.3325V13.6684L9.51933 8.1535V7.58775V4.69038C9.51933 4.15694 9.08696 3.72457 8.55352 3.72457C8.02014 3.72457 7.58777 4.15694 7.58777 4.69038V6.22188L6.05214 4.68625C5.67496 4.30913 5.06346 4.30913 4.68627 4.68625C4.30915 5.06344 4.30915 5.67494 4.68627 6.05213L6.22189 7.58775H4.69039C4.15696 7.58775 3.72458 8.02013 3.72458 8.5535V8.55356C3.72458 9.08694 4.15696 9.51931 4.69039 9.51931H7.58777H8.15352L13.6684 15.0342H11.3325L8.88371 12.5854C8.50658 12.2082 7.89508 12.2082 7.5179 12.5854C7.14071 12.9626 7.14071 13.5741 7.5179 13.9513L8.60083 15.0342H5.86914L3.42039 12.5854C3.04321 12.2082 2.43171 12.2082 2.05452 12.5854C1.67733 12.9626 1.67733 13.5741 2.05452 13.9513L3.13752 15.0342H0.96577C0.432395 15.0342 2.00272e-05 15.4666 2.00272e-05 16C2.00272e-05 16.5334 0.432395 16.9658 0.96577 16.9658H3.13752L2.05452 18.0488C1.67733 18.4259 1.67733 19.0374 2.05452 19.4146C2.43171 19.7918 3.04321 19.7918 3.42039 19.4146L5.86914 16.9658H8.60083L7.5179 18.0488C7.14071 18.4259 7.14071 19.0374 7.5179 19.4146C7.89508 19.7918 8.50658 19.7918 8.88371 19.4146L10.9325 17.3658L11.3325 16.9658H13.6684L8.15352 22.4806H7.58777H4.69039C4.15696 22.4806 3.72458 22.9131 3.72458 23.4464C3.72458 23.9798 4.15696 24.4123 4.69039 24.4123H6.22189L4.68627 25.9479C4.30915 26.325 4.30915 26.9365 4.68627 27.3137C5.06346 27.6909 5.67496 27.6909 6.05214 27.3137L7.58777 25.7781V27.3096C7.58777 27.843 8.02014 28.2754 8.55352 28.2754C9.08696 28.2754 9.51933 27.843 9.51933 27.3096V24.4123V23.8465L15.0342 18.3316V20.6674L14.6341 21.0675L12.5854 23.1163C12.2082 23.4934 12.2082 24.1049 12.5854 24.4821V24.4821C12.9626 24.8593 13.5741 24.8593 13.9513 24.4821L15.0342 23.3991V26.1308L14.6341 26.5309L12.5854 28.5796C12.2082 28.9568 12.2082 29.5683 12.5854 29.9454C12.9626 30.3226 13.5741 30.3226 13.9513 29.9454L15.0342 28.8625V31.0342C15.0342 31.5676 15.4666 32 16 32C16.5334 32 16.9658 31.5676 16.9658 31.0342V28.8625L18.0488 29.9454C18.426 30.3226 19.0375 30.3226 19.4146 29.9454C19.7918 29.5683 19.7918 28.9568 19.4146 28.5796L17.3658 26.5309L16.9658 26.1308V23.3991L18.0488 24.4821C18.426 24.8593 19.0375 24.8593 19.4146 24.4821V24.4821C19.7918 24.1049 19.7918 23.4934 19.4146 23.1163L17.3658 21.0675L16.9658 20.6674V18.3316L22.4806 23.8465V24.4123V27.3096C22.4806 27.843 22.9131 28.2754 23.4465 28.2754C23.9798 28.2754 24.4123 27.843 24.4123 27.3096V25.7781L25.9479 27.3137C26.325 27.6909 26.9365 27.6909 27.3137 27.3137C27.6909 26.9365 27.6909 26.325 27.3137 25.9479L25.7781 24.4123H27.3096C27.843 24.4123 28.2755 23.9798 28.2755 23.4464C28.2755 22.9131 27.843 22.4806 27.3096 22.4806H24.4123H23.8465L18.3316 16.9658H20.6675L21.0675 17.3658L23.1163 19.4146C23.4935 19.7918 24.105 19.7918 24.4821 19.4146C24.8593 19.0374 24.8593 18.4259 24.4821 18.0488L23.3991 16.9658H26.1308L28.5796 19.4146C28.9568 19.7918 29.5683 19.7918 29.9455 19.4146C30.3226 19.0374 30.3226 18.4259 29.9455 18.0488L28.8625 16.9658H31.0342C31.5676 16.9658 32 16.5334 32 16C32 15.4666 31.5676 15.0342 31.0342 15.0342Z" fill="#A2DDFD"/>
<path d="M20.6675 16.9658C20.1341 16.9658 19.7016 16.5334 19.7016 16C19.7016 15.4666 20.1341 15.0343 20.6675 15.0343H18.3316L19.9833 13.3826C19.6062 13.7597 18.9947 13.7597 18.6175 13.3826C18.2403 13.0054 18.2403 12.3939 18.6175 12.0168L16.9658 13.6684V11.3326L17.3658 10.9325L19.4146 8.88375C19.7918 8.50657 19.7918 7.89507 19.4146 7.51788C19.0374 7.14075 18.4259 7.14075 18.0488 7.51788L16.9658 8.60088V5.86919L17.3658 5.46913L19.4146 3.42038C19.7918 3.04325 19.7918 2.43169 19.4146 2.05456C19.0374 1.67738 18.4259 1.67738 18.0488 2.05456L16.9658 3.1375V0.965815C16.9658 0.43244 16.5334 1.90735e-06 16 1.90735e-06C15.4666 1.90735e-06 15.0342 0.43244 15.0342 0.965815V3.1375L13.9512 2.05456C13.5741 1.67738 12.9626 1.67738 12.5854 2.05456C12.2082 2.43169 12.2082 3.04325 12.5854 3.42038L14.6342 5.46913L15.0342 5.86919V8.60088L13.9512 7.51788C13.5741 7.14075 12.9626 7.14075 12.5854 7.51788C12.2082 7.89507 12.2082 8.50657 12.5854 8.88375L14.6342 10.9325L15.0342 11.3326V13.6684L9.51934 8.1535V7.58775V4.69038C9.51934 4.157 9.08696 3.72457 8.55353 3.72457C8.02015 3.72457 7.58778 4.157 7.58778 4.69038V6.22194L6.05215 4.68632C5.67496 4.30913 5.06346 4.30913 4.68628 4.68632C4.30909 5.0635 4.30909 5.675 4.68628 6.05213L6.2219 7.58775H4.69034C4.15696 7.58775 3.72459 8.02019 3.72459 8.55356C3.72459 9.08694 4.15696 9.51938 4.69034 9.51938H7.58778H8.15352L13.6683 15.0343H11.3325L8.88371 12.5854C8.50659 12.2083 7.89502 12.2083 7.5179 12.5854C7.14071 12.9626 7.14071 13.5741 7.5179 13.9513L8.60084 15.0343H5.86915L3.42034 12.5854C3.04321 12.2083 2.43171 12.2083 2.05453 12.5854C1.67734 12.9626 1.67734 13.5741 2.05453 13.9513L3.13753 15.0343H0.965777C0.432402 15.0343 2.71797e-05 15.4666 2.71797e-05 16C2.71797e-05 16.5334 0.432402 16.9658 0.965777 16.9658H3.13753L2.05453 18.0488C1.67734 18.4259 1.67734 19.0374 2.05453 19.4146C2.43171 19.7918 3.04321 19.7918 3.42034 19.4146L5.86915 16.9658H8.60084L7.5179 18.0488C7.14071 18.4259 7.14071 19.0374 7.5179 19.4146C7.89502 19.7918 8.50659 19.7918 8.88371 19.4146L10.9325 17.3659L11.3325 16.9658H13.6683L8.15352 22.4807H7.58778H4.69034C4.15696 22.4807 3.72459 22.9131 3.72459 23.4464C3.72459 23.9799 4.15696 24.4123 4.69034 24.4123H6.2219L4.68628 25.9479C4.30909 26.3251 4.30909 26.9366 4.68628 27.3138C5.06346 27.6909 5.67496 27.6909 6.05215 27.3138L7.58778 25.7781V27.3096C7.58778 27.8431 8.02015 28.2754 8.55353 28.2754C9.08696 28.2754 9.51934 27.8431 9.51934 27.3096V24.4123V23.8465L15.0342 18.3316V20.6675L14.6342 21.0675L12.5854 23.1163C12.2082 23.4934 12.2082 24.1049 12.5854 24.4821C12.9626 24.8593 13.5741 24.8593 13.9512 24.4821L15.0342 23.3992V26.1308L14.6342 26.5309L12.5854 28.5796C12.2082 28.9568 12.2082 29.5683 12.5854 29.9455C12.9626 30.3227 13.5741 30.3227 13.9512 29.9455L15.0342 28.8625V31.0343C15.0342 31.5676 15.4666 32 16 32C16.5334 32 16.9658 31.5676 16.9658 31.0343V28.8625L18.0488 29.9455C18.4259 30.3227 19.0374 30.3227 19.4146 29.9455C19.7918 29.5683 19.7918 28.9568 19.4146 28.5796L17.3658 26.5309L16.9658 26.1308V23.3992L18.0488 24.4821C18.4259 24.8593 19.0374 24.8593 19.4146 24.4821C19.7918 24.1049 19.7918 23.4934 19.4146 23.1163L17.3658 21.0675L16.9658 20.6675V18.3316L18.6175 19.9833C18.2403 19.6062 18.2403 18.9947 18.6175 18.6175C18.9947 18.2404 19.6061 18.2403 19.9832 18.6174L18.3316 16.9658H20.6675Z" fill="#7ACDF9"/>
</g>
</g>
<defs>
<clipPath id="clip0_3205_4994">
<rect width="32" height="32" fill="white"/>
</clipPath>
</defs>
</svg>
